<svg width="484" height="469" viewBox="0 0 484 469" fill="none" xmlns="http://www.w3.org/2000/svg">
<g clip-path="url(#clip0_21_5436)">
<path d="M171.51 50.0799C176.6 44.8199 181.81 39.7199 187.38 35.0699C251.74 -18.6001 379.58 -15.0801 415.74 76.5999C424.36 98.4499 422.94 120.69 426.31 143.45C433.97 195.22 465.3 235.61 477.56 285.37C487.06 323.94 472.18 363.84 451.11 394.48C428.21 427.78 399.92 446.7 361.28 455.04C317.97 464.39 280.7 444.41 243.49 422.72C226.76 412.97 209.49 402.95 190.91 397.86C167.64 391.49 143.13 390.27 119.56 385.56C95.04 380.66 70.43 372.87 50.03 357.5C-15.29 308.29 1.04 191.41 50.03 138.43C67.37 119.68 90.49 108.65 112.41 96.9099C136.07 84.2399 152.67 69.5299 171.49 50.0799H171.51Z" fill="#4CB2E0"/>
<path opacity="0.7" d="M171.51 50.0799C176.6 44.8199 181.81 39.7199 187.38 35.0699C251.74 -18.6001 379.58 -15.0801 415.74 76.5999C424.36 98.4499 422.94 120.69 426.31 143.45C433.97 195.22 465.3 235.61 477.56 285.37C487.06 323.94 472.18 363.84 451.11 394.48C428.21 427.78 399.92 446.7 361.28 455.04C317.97 464.39 280.7 444.41 243.49 422.72C226.76 412.97 209.49 402.95 190.91 397.86C167.64 391.49 143.13 390.27 119.56 385.56C95.04 380.66 70.43 372.87 50.03 357.5C-15.29 308.29 1.04 191.41 50.03 138.43C67.37 119.68 90.49 108.65 112.41 96.9099C136.07 84.2399 152.67 69.5299 171.49 50.0799H171.51Z" fill="white"/>
<path d="M406.74 257.92L425.27 435.46" stroke="#263238" stroke-width="2" stroke-miterlimit="10"/>
<path d="M422.28 401.48L413.88 392.61" stroke="#263238" stroke-width="2" stroke-miterlimit="10"/>
<path d="M416.43 395.27C416.43 395.27 416.67 391.35 413.09 388.15C410.93 386.22 399.59 381.45 398.51 385.45C397.34 389.8 408.95 398.33 416.43 395.28V395.27Z" fill="#4CB2E0" stroke="#263238" stroke-miterlimit="10"/>
<path d="M416.43 395.27L405.63 388.54" stroke="#263238" stroke-width="0.5" stroke-miterlimit="10"/>
<path d="M424.39 421.67L415.99 412.8" stroke="#263238" stroke-width="2" stroke-miterlimit="10"/>
<path d="M418.54 415.46C418.54 415.46 418.78 411.54 415.2 408.34C413.04 406.41 401.7 401.64 400.62 405.64C399.45 409.99 411.06 418.52 418.54 415.47V415.46Z" fill="#4CB2E0" stroke="#263238" stroke-miterlimit="10"/>
<path d="M418.54 415.46L407.74 408.73" stroke="#263238" stroke-width="0.5" stroke-miterlimit="10"/>
<path d="M417.14 352.21L408.74 343.34" stroke="#263238" stroke-width="2" stroke-miterlimit="10"/>
<path d="M411.29 346C411.29 346 411.53 342.08 407.95 338.88C405.79 336.95 394.45 332.18 393.37 336.18C392.2 340.53 403.81 349.06 411.29 346.01V346Z" fill="#4CB2E0" stroke="#263238" stroke-miterlimit="10"/>
<path d="M411.29 346L400.49 339.27" stroke="#263238" stroke-width="0.5" stroke-miterlimit="10"/>
<path d="M419.25 372.4L410.85 363.53" stroke="#263238" stroke-width="2" stroke-miterlimit="10"/>
<path d="M413.4 366.19C413.4 366.19 413.64 362.27 410.06 359.07C407.9 357.14 396.56 352.37 395.48 356.37C394.31 360.72 405.92 369.25 413.4 366.2V366.19Z" fill="#4CB2E0" stroke="#263238" stroke-miterlimit="10"/>
<path d="M413.4 366.19L402.6 359.46" stroke="#263238" stroke-width="0.5" stroke-miterlimit="10"/>
<path d="M413.72 319.41L405.32 310.54" stroke="#263238" stroke-width="2" stroke-miterlimit="10"/>
<path d="M407.87 313.2C407.87 313.2 408.11 309.28 404.53 306.08C402.37 304.15 391.03 299.38 389.95 303.38C388.78 307.73 400.39 316.26 407.87 313.21V313.2Z" fill="#4CB2E0" stroke="#263238" stroke-miterlimit="10"/>
<path d="M407.87 313.2L397.07 306.47" stroke="#263238" stroke-width="0.5" stroke-miterlimit="10"/>
<path d="M410.28 286.47L401.88 277.6" stroke="#263238" stroke-width="2" stroke-miterlimit="10"/>
<path d="M404.43 280.26C404.43 280.26 404.67 276.34 401.09 273.14C398.93 271.21 387.59 266.44 386.51 270.44C385.34 274.79 396.95 283.32 404.43 280.27V280.26Z" fill="#4CB2E0" stroke="#263238" stroke-miterlimit="10"/>
<path d="M404.43 280.26L393.63 273.53" stroke="#263238" stroke-width="0.5" stroke-miterlimit="10"/>
<path d="M420.87 389.54L427.26 379.12" stroke="#263238" stroke-width="2" stroke-miterlimit="10"/>
<path d="M425.31 382.25C425.31 382.25 424.26 378.46 427.11 374.59C428.82 372.26 438.94 365.25 440.82 368.94C442.86 372.95 433.26 383.7 425.31 382.26V382.25Z" fill="#4CB2E0" stroke="#263238" stroke-miterlimit="10"/>
<path d="M425.31 382.25L435.03 372.95" stroke="#263238" stroke-width="0.5" stroke-miterlimit="10"/>
<path d="M415.32 336.4L421.71 325.99" stroke="#263238" stroke-width="2" stroke-miterlimit="10"/>
<path d="M419.76 329.12C419.76 329.12 418.71 325.33 421.56 321.46C423.27 319.13 433.39 312.12 435.27 315.81C437.31 319.82 427.71 330.57 419.76 329.13V329.12Z" fill="#4CB2E0" stroke="#263238" stroke-miterlimit="10"/>
<path d="M419.76 329.12L429.49 319.82" stroke="#263238" stroke-width="0.5" stroke-miterlimit="10"/>
<path d="M412.89 313.05L419.27 302.64" stroke="#263238" stroke-width="2" stroke-miterlimit="10"/>
<path d="M417.33 305.77C417.33 305.77 416.28 301.98 419.13 298.11C420.84 295.78 430.96 288.77 432.84 292.46C434.88 296.47 425.28 307.22 417.33 305.78V305.77Z" fill="#4CB2E0" stroke="#263238" stroke-miterlimit="10"/>
<path d="M417.33 305.77L427.05 296.47" stroke="#263238" stroke-width="0.5" stroke-miterlimit="10"/>
<path d="M409.31 278.82L415.7 268.41" stroke="#263238" stroke-width="2" stroke-miterlimit="10"/>
<path d="M413.75 271.53C413.75 271.53 412.7 267.74 415.55 263.87C417.26 261.54 427.38 254.53 429.26 258.22C431.3 262.23 421.7 272.98 413.75 271.54V271.53Z" fill="#4CB2E0" stroke="#263238" stroke-miterlimit="10"/>
<path d="M413.75 271.53L423.48 262.24" stroke="#263238" stroke-width="0.5" stroke-miterlimit="10"/>
<path d="M406.58 256.94C406.58 256.94 405.53 253.15 408.38 249.28C410.09 246.95 420.21 239.94 422.09 243.63C424.13 247.64 414.53 258.39 406.58 256.95V256.94Z" fill="#4CB2E0" stroke="#263238" stroke-miterlimit="10"/>
<path d="M406.58 256.94L416.31 247.64" stroke="#263238" stroke-width="0.5" stroke-miterlimit="10"/>
<path d="M407.15 257.34C407.15 257.34 403.27 257.98 399.72 254.75C397.58 252.8 391.67 242.01 395.53 240.53C399.73 238.92 409.42 249.59 407.15 257.35V257.34Z" fill="#4CB2E0" stroke="#263238" stroke-miterlimit="10"/>
<path d="M407.15 257.34L398.92 246.69" stroke="#263238" stroke-width="0.5" stroke-miterlimit="10"/>
<path d="M455.61 282.37L437.18 459.92" stroke="#263238" stroke-width="2" stroke-miterlimit="10"/>
<path d="M441.26 426.06L434.86 415.65" stroke="#263238" stroke-width="2" stroke-miterlimit="10"/>
<path d="M436.81 418.77C436.81 418.77 437.85 414.98 435.01 411.11C433.3 408.78 423.18 401.77 421.3 405.46C419.26 409.47 428.87 420.22 436.81 418.77Z" fill="#4CB2E0" stroke="#263238" stroke-miterlimit="10"/>
<path d="M436.81 418.77L427.63 409.96" stroke="#263238" stroke-width="0.5" stroke-miterlimit="10"/>
<path d="M446.37 376.78L439.98 366.37" stroke="#263238" stroke-width="2" stroke-miterlimit="10"/>
<path d="M441.93 369.5C441.93 369.5 442.97 365.71 440.13 361.84C438.42 359.51 428.3 352.5 426.42 356.19C424.38 360.2 433.99 370.95 441.93 369.5Z" fill="#4CB2E0" stroke="#263238" stroke-miterlimit="10"/>
<path d="M441.93 369.5L432.74 360.69" stroke="#263238" stroke-width="0.5" stroke-miterlimit="10"/>
<path d="M444.27 396.98L437.88 386.56" stroke="#263238" stroke-width="2" stroke-miterlimit="10"/>
<path d="M439.83 389.69C439.83 389.69 440.87 385.9 438.03 382.03C436.32 379.7 426.2 372.69 424.32 376.38C422.28 380.39 431.89 391.14 439.84 389.69H439.83Z" fill="#4CB2E0" stroke="#263238" stroke-miterlimit="10"/>
<path d="M439.83 389.69L430.65 380.88" stroke="#263238" stroke-width="0.5" stroke-miterlimit="10"/>
<path d="M449.77 343.98L443.38 333.57" stroke="#263238" stroke-width="2" stroke-miterlimit="10"/>
<path d="M445.33 336.7C445.33 336.7 446.37 332.91 443.53 329.04C441.82 326.71 431.7 319.7 429.82 323.39C427.78 327.4 437.39 338.15 445.34 336.7H445.33Z" fill="#4CB2E0" stroke="#263238" stroke-miterlimit="10"/>
<path d="M445.33 336.7L436.15 327.89" stroke="#263238" stroke-width="0.5" stroke-miterlimit="10"/>
<path d="M453.19 311.04L446.8 300.63" stroke="#263238" stroke-width="2" stroke-miterlimit="10"/>
<path d="M448.75 303.75C448.75 303.75 449.79 299.96 446.95 296.09C445.24 293.76 435.12 286.75 433.24 290.44C431.2 294.45 440.81 305.2 448.76 303.75H448.75Z" fill="#4CB2E0" stroke="#263238" stroke-miterlimit="10"/>
<path d="M448.75 303.75L439.56 294.94" stroke="#263238" stroke-width="0.5" stroke-miterlimit="10"/>
<path d="M442.34 414.07L450.73 405.2" stroke="#263238" stroke-width="2" stroke-miterlimit="10"/>
<path d="M448.18 407.86C448.18 407.86 447.94 403.94 451.52 400.73C453.67 398.8 465.02 394.02 466.1 398.02C467.27 402.37 455.66 410.91 448.18 407.86Z" fill="#4CB2E0" stroke="#263238" stroke-miterlimit="10"/>
<path d="M448.18 407.86L459.61 400.76" stroke="#263238" stroke-width="0.5" stroke-miterlimit="10"/>
<path d="M447.85 360.941L456.24 352.061" stroke="#263238" stroke-width="2" stroke-miterlimit="10"/>
<path d="M453.69 354.72C453.69 354.72 453.45 350.8 457.03 347.59C459.18 345.66 470.53 340.88 471.61 344.88C472.78 349.23 461.17 357.77 453.69 354.72Z" fill="#4CB2E0" stroke="#263238" stroke-miterlimit="10"/>
<path d="M453.69 354.72L465.13 347.63" stroke="#263238" stroke-width="0.5" stroke-miterlimit="10"/>
<path d="M450.27 337.59L458.67 328.71" stroke="#263238" stroke-width="2" stroke-miterlimit="10"/>
<path d="M456.12 331.37C456.12 331.37 455.88 327.45 459.46 324.24C461.61 322.31 472.96 317.53 474.04 321.53C475.21 325.88 463.6 334.42 456.12 331.37Z" fill="#4CB2E0" stroke="#263238" stroke-miterlimit="10"/>
<path d="M456.12 331.37L467.55 324.28" stroke="#263238" stroke-width="0.5" stroke-miterlimit="10"/>
<path d="M453.82 303.35L462.22 294.48" stroke="#263238" stroke-width="2" stroke-miterlimit="10"/>
<path d="M459.67 297.14C459.67 297.14 459.43 293.22 463.01 290.01C465.16 288.08 476.51 283.3 477.59 287.3C478.76 291.65 467.15 300.19 459.67 297.14Z" fill="#4CB2E0" stroke="#263238" stroke-miterlimit="10"/>
<path d="M459.67 297.14L471.1 290.04" stroke="#263238" stroke-width="0.5" stroke-miterlimit="10"/>
<path d="M455.66 281.37C455.66 281.37 455.42 277.45 459 274.24C461.15 272.31 472.5 267.53 473.58 271.53C474.75 275.88 463.14 284.42 455.66 281.37Z" fill="#4CB2E0" stroke="#263238" stroke-miterlimit="10"/>
<path d="M455.66 281.37L467.09 274.28" stroke="#263238" stroke-width="0.5" stroke-miterlimit="10"/>
<path d="M456.13 281.88C456.13 281.88 452.2 281.71 449.39 277.81C447.7 275.47 444.14 263.68 448.22 263.03C452.66 262.32 459.94 274.76 456.12 281.88H456.13Z" fill="#4CB2E0" stroke="#263238" stroke-miterlimit="10"/>
<path d="M456.13 281.88L450.27 269.77" stroke="#263238" stroke-width="0.5" stroke-miterlimit="10"/>
<path d="M434.49 210.07V434.59" stroke="#263238" stroke-width="2" stroke-miterlimit="10"/>
<path d="M434.67 400.84L427.24 391.14" stroke="#263238" stroke-width="2" stroke-miterlimit="10"/>
<path d="M429.5 394.05C429.5 394.05 430.15 390.17 426.91 386.62C424.97 384.48 414.18 378.56 412.69 382.42C411.07 386.62 421.74 396.32 429.5 394.05Z" fill="#4CB2E0" stroke="#263238" stroke-miterlimit="10"/>
<path d="M429.5 394.05L419.46 386.23" stroke="#263238" stroke-width="0.5" stroke-miterlimit="10"/>
<path d="M434.67 358.64L427.24 348.95" stroke="#263238" stroke-width="2" stroke-miterlimit="10"/>
<path d="M429.5 351.85C429.5 351.85 430.15 347.97 426.91 344.42C424.97 342.28 414.18 336.36 412.69 340.22C411.07 344.42 421.74 354.12 429.5 351.85Z" fill="#4CB2E0" stroke="#263238" stroke-miterlimit="10"/>
<path d="M429.5 351.85L419.46 344.04" stroke="#263238" stroke-width="0.5" stroke-miterlimit="10"/>
<path d="M434.67 309.1L427.24 299.41" stroke="#263238" stroke-width="2" stroke-miterlimit="10"/>
<path d="M429.5 302.32C429.5 302.32 430.15 298.44 426.91 294.89C424.97 292.75 414.18 286.83 412.69 290.69C411.07 294.89 421.74 304.59 429.5 302.32Z" fill="#4CB2E0" stroke="#263238" stroke-miterlimit="10"/>
<path d="M429.5 302.32L419.46 294.5" stroke="#263238" stroke-width="0.5" stroke-miterlimit="10"/>
<path d="M434.67 276.13L427.24 266.43" stroke="#263238" stroke-width="2" stroke-miterlimit="10"/>
<path d="M429.5 269.34C429.5 269.34 430.15 265.46 426.91 261.91C424.97 259.77 414.18 253.85 412.69 257.71C411.07 261.91 421.74 271.61 429.5 269.34Z" fill="#4CB2E0" stroke="#263238" stroke-miterlimit="10"/>
<path d="M429.5 269.34L419.46 261.52" stroke="#263238" stroke-width="0.5" stroke-miterlimit="10"/>
<path d="M434.67 243.01L427.24 233.31" stroke="#263238" stroke-width="2" stroke-miterlimit="10"/>
<path d="M429.5 236.22C429.5 236.22 430.15 232.34 426.91 228.79C424.97 226.65 414.18 220.73 412.69 224.59C411.07 228.79 421.74 238.49 429.5 236.22Z" fill="#4CB2E0" stroke="#263238" stroke-miterlimit="10"/>
<path d="M429.5 236.22L419.46 228.4" stroke="#263238" stroke-width="0.5" stroke-miterlimit="10"/>
<path d="M434.51 413.72L441.94 404.02" stroke="#263238" stroke-width="2" stroke-miterlimit="10"/>
<path d="M439.68 406.93C439.68 406.93 439.03 403.05 442.27 399.5C444.21 397.36 455 391.44 456.49 395.3C458.11 399.5 447.44 409.2 439.68 406.93Z" fill="#4CB2E0" stroke="#263238" stroke-miterlimit="10"/>
<path d="M439.68 406.93L450.32 398.7" stroke="#263238" stroke-width="0.5" stroke-miterlimit="10"/>
<path d="M434.51 346.61L441.94 336.92" stroke="#263238" stroke-width="2" stroke-miterlimit="10"/>
<path d="M439.68 339.83C439.68 339.83 439.03 335.95 442.27 332.4C444.21 330.26 455 324.34 456.49 328.2C458.11 332.4 447.44 342.1 439.68 339.83Z" fill="#4CB2E0" stroke="#263238" stroke-miterlimit="10"/>
<path d="M439.68 339.83L450.32 331.59" stroke="#263238" stroke-width="0.5" stroke-miterlimit="10"/>
<path d="M434.51 313.49L441.94 303.8" stroke="#263238" stroke-width="2" stroke-miterlimit="10"/>
<path d="M439.68 306.71C439.68 306.71 439.03 302.83 442.27 299.28C444.21 297.14 455 291.22 456.49 295.08C458.11 299.28 447.44 308.98 439.68 306.71Z" fill="#4CB2E0" stroke="#263238" stroke-miterlimit="10"/>
<path d="M439.68 306.71L450.32 298.47" stroke="#263238" stroke-width="0.5" stroke-miterlimit="10"/>
<path d="M434.51 269.71L441.94 260.02" stroke="#263238" stroke-width="2" stroke-miterlimit="10"/>
<path d="M439.68 262.93C439.68 262.93 439.03 259.05 442.27 255.5C444.21 253.36 455 247.44 456.49 251.3C458.11 255.5 447.44 265.2 439.68 262.93Z" fill="#4CB2E0" stroke="#263238" stroke-miterlimit="10"/>
<path d="M439.68 262.93L450.32 254.69" stroke="#263238" stroke-width="0.5" stroke-miterlimit="10"/>
<path d="M434.51 235.3L441.94 225.6" stroke="#263238" stroke-width="2" stroke-miterlimit="10"/>
<path d="M439.68 228.51C439.68 228.51 439.03 224.63 442.27 221.08C444.21 218.94 455 213.02 456.49 216.88C458.11 221.08 447.44 230.78 439.68 228.51Z" fill="#4CB2E0" stroke="#263238" stroke-miterlimit="10"/>
<path d="M439.68 228.51L450.32 220.27" stroke="#263238" stroke-width="0.5" stroke-miterlimit="10"/>
<path d="M434.06 213.25C434.06 213.25 433.41 209.37 436.65 205.82C438.59 203.68 449.38 197.76 450.87 201.62C452.49 205.82 441.82 215.52 434.06 213.25Z" fill="#4CB2E0" stroke="#263238" stroke-miterlimit="10"/>
<path d="M434.06 213.25L444.7 205.01" stroke="#263238" stroke-width="0.5" stroke-miterlimit="10"/>
<path d="M434.58 213.7C434.58 213.7 430.66 213.94 427.46 210.35C425.54 208.19 420.78 196.84 424.77 195.77C429.12 194.6 437.64 206.23 434.58 213.7Z" fill="#4CB2E0" stroke="#263238" stroke-miterlimit="10"/>
<path d="M434.58 213.7L427.51 202.26" stroke="#263238" stroke-width="0.5" stroke-miterlimit="10"/>
<path d="M443.73 462.91H419.95L416.98 432.77H446.7L443.73 462.91Z" fill="#263238" stroke="#263238" stroke-miterlimit="10"/>
<path d="M21.17 257.92L39.7 435.46" stroke="#263238" stroke-width="2" stroke-miterlimit="10"/>
<path d="M36.72 401.48L28.32 392.61" stroke="#263238" stroke-width="2" stroke-miterlimit="10"/>
<path d="M30.87 395.27C30.87 395.27 31.11 391.35 27.53 388.15C25.37 386.22 14.03 381.45 12.95 385.45C11.78 389.8 23.39 398.33 30.87 395.28V395.27Z" fill="#4CB2E0" stroke="#263238" stroke-miterlimit="10"/>
<path d="M30.87 395.27L20.07 388.54" stroke="#263238" stroke-width="0.5" stroke-miterlimit="10"/>
<path d="M38.82 421.67L30.42 412.8" stroke="#263238" stroke-width="2" stroke-miterlimit="10"/>
<path d="M32.98 415.46C32.98 415.46 33.22 411.54 29.64 408.34C27.48 406.41 16.14 401.64 15.06 405.64C13.89 409.99 25.5 418.52 32.98 415.47V415.46Z" fill="#4CB2E0" stroke="#263238" stroke-miterlimit="10"/>
<path d="M32.98 415.46L22.17 408.73" stroke="#263238" stroke-width="0.5" stroke-miterlimit="10"/>
<path d="M31.57 352.21L23.17 343.34" stroke="#263238" stroke-width="2" stroke-miterlimit="10"/>
<path d="M25.73 346C25.73 346 25.97 342.08 22.39 338.88C20.23 336.95 8.89 332.18 7.81 336.18C6.64 340.53 18.25 349.06 25.73 346.01V346Z" fill="#4CB2E0" stroke="#263238" stroke-miterlimit="10"/>
<path d="M25.73 346L14.92 339.27" stroke="#263238" stroke-width="0.5" stroke-miterlimit="10"/>
<path d="M33.68 372.4L25.28 363.53" stroke="#263238" stroke-width="2" stroke-miterlimit="10"/>
<path d="M27.83 366.19C27.83 366.19 28.07 362.27 24.49 359.07C22.33 357.14 10.99 352.37 9.91 356.37C8.74 360.72 20.35 369.25 27.83 366.2V366.19Z" fill="#4CB2E0" stroke="#263238" stroke-miterlimit="10"/>
<path d="M27.83 366.19L17.03 359.46" stroke="#263238" stroke-width="0.5" stroke-miterlimit="10"/>
<path d="M28.15 319.41L19.75 310.54" stroke="#263238" stroke-width="2" stroke-miterlimit="10"/>
<path d="M22.3 313.2C22.3 313.2 22.54 309.28 18.96 306.08C16.8 304.15 5.46 299.38 4.38 303.38C3.21 307.73 14.82 316.26 22.3 313.21V313.2Z" fill="#4CB2E0" stroke="#263238" stroke-miterlimit="10"/>
<path d="M22.3 313.2L11.5 306.47" stroke="#263238" stroke-width="0.5" stroke-miterlimit="10"/>
<path d="M24.71 286.47L16.31 277.6" stroke="#263238" stroke-width="2" stroke-miterlimit="10"/>
<path d="M18.87 280.26C18.87 280.26 19.11 276.34 15.53 273.14C13.37 271.21 2.03 266.44 0.950001 270.44C-0.219999 274.79 11.39 283.32 18.87 280.27V280.26Z" fill="#4CB2E0" stroke="#263238" stroke-miterlimit="10"/>
<path d="M18.87 280.26L8.06 273.53" stroke="#263238" stroke-width="0.5" stroke-miterlimit="10"/>
<path d="M35.3 389.54L41.69 379.12" stroke="#263238" stroke-width="2" stroke-miterlimit="10"/>
<path d="M39.74 382.25C39.74 382.25 38.69 378.46 41.54 374.59C43.25 372.26 53.37 365.25 55.25 368.94C57.29 372.95 47.69 383.7 39.74 382.26V382.25Z" fill="#4CB2E0" stroke="#263238" stroke-miterlimit="10"/>
<path d="M39.74 382.25L49.47 372.95" stroke="#263238" stroke-width="0.5" stroke-miterlimit="10"/>
<path d="M29.76 336.4L36.15 325.99" stroke="#263238" stroke-width="2" stroke-miterlimit="10"/>
<path d="M34.2 329.12C34.2 329.12 33.15 325.33 36 321.46C37.71 319.13 47.83 312.12 49.71 315.81C51.75 319.82 42.15 330.57 34.2 329.13V329.12Z" fill="#4CB2E0" stroke="#263238" stroke-miterlimit="10"/>
<path d="M34.2 329.12L43.92 319.82" stroke="#263238" stroke-width="0.5" stroke-miterlimit="10"/>
<path d="M27.32 313.05L33.71 302.64" stroke="#263238" stroke-width="2" stroke-miterlimit="10"/>
<path d="M31.76 305.77C31.76 305.77 30.71 301.98 33.56 298.11C35.27 295.78 45.39 288.77 47.27 292.46C49.31 296.47 39.71 307.22 31.76 305.78V305.77Z" fill="#4CB2E0" stroke="#263238" stroke-miterlimit="10"/>
<path d="M31.76 305.77L41.49 296.47" stroke="#263238" stroke-width="0.5" stroke-miterlimit="10"/>
<path d="M23.75 278.82L30.14 268.41" stroke="#263238" stroke-width="2" stroke-miterlimit="10"/>
<path d="M28.19 271.53C28.19 271.53 27.14 267.74 29.99 263.87C31.7 261.54 41.82 254.53 43.7 258.22C45.74 262.23 36.14 272.98 28.19 271.54V271.53Z" fill="#4CB2E0" stroke="#263238" stroke-miterlimit="10"/>
<path d="M28.19 271.53L37.92 262.24" stroke="#263238" stroke-width="0.5" stroke-miterlimit="10"/>
<path d="M21.02 256.94C21.02 256.94 19.97 253.15 22.82 249.28C24.53 246.95 34.65 239.94 36.53 243.63C38.57 247.64 28.97 258.39 21.02 256.95V256.94Z" fill="#4CB2E0" stroke="#263238" stroke-miterlimit="10"/>
<path d="M21.02 256.94L30.74 247.64" stroke="#263238" stroke-width="0.5" stroke-miterlimit="10"/>
<path d="M21.58 257.34C21.58 257.34 17.7 257.98 14.15 254.75C12.01 252.8 6.1 242.01 9.96 240.53C14.16 238.92 23.85 249.59 21.58 257.35V257.34Z" fill="#4CB2E0" stroke="#263238" stroke-miterlimit="10"/>
<path d="M21.58 257.34L13.36 246.69" stroke="#263238" stroke-width="0.5" stroke-miterlimit="10"/>
<path d="M70.04 282.37L51.62 459.92" stroke="#263238" stroke-width="2" stroke-miterlimit="10"/>
<path d="M55.69 426.06L49.3 415.65" stroke="#263238" stroke-width="2" stroke-miterlimit="10"/>
<path d="M51.25 418.77C51.25 418.77 52.29 414.98 49.45 411.11C47.74 408.78 37.62 401.77 35.74 405.46C33.7 409.47 43.31 420.22 51.25 418.77Z" fill="#4CB2E0" stroke="#263238" stroke-miterlimit="10"/>
<path d="M51.25 418.77L42.06 409.96" stroke="#263238" stroke-width="0.5" stroke-miterlimit="10"/>
<path d="M60.81 376.78L54.41 366.37" stroke="#263238" stroke-width="2" stroke-miterlimit="10"/>
<path d="M56.36 369.5C56.36 369.5 57.4 365.71 54.56 361.84C52.85 359.51 42.73 352.5 40.85 356.19C38.81 360.2 48.42 370.95 56.37 369.5H56.36Z" fill="#4CB2E0" stroke="#263238" stroke-miterlimit="10"/>
<path d="M56.36 369.5L47.18 360.69" stroke="#263238" stroke-width="0.5" stroke-miterlimit="10"/>
<path d="M58.71 396.98L52.32 386.56" stroke="#263238" stroke-width="2" stroke-miterlimit="10"/>
<path d="M54.27 389.69C54.27 389.69 55.31 385.9 52.47 382.03C50.76 379.7 40.64 372.69 38.76 376.38C36.72 380.39 46.33 391.14 54.28 389.69H54.27Z" fill="#4CB2E0" stroke="#263238" stroke-miterlimit="10"/>
<path d="M54.27 389.69L45.08 380.88" stroke="#263238" stroke-width="0.5" stroke-miterlimit="10"/>
<path d="M64.21 343.98L57.82 333.57" stroke="#263238" stroke-width="2" stroke-miterlimit="10"/>
<path d="M59.77 336.7C59.77 336.7 60.81 332.91 57.97 329.04C56.26 326.71 46.14 319.7 44.26 323.39C42.22 327.4 51.83 338.15 59.78 336.7H59.77Z" fill="#4CB2E0" stroke="#263238" stroke-miterlimit="10"/>
<path d="M59.77 336.7L50.58 327.89" stroke="#263238" stroke-width="0.5" stroke-miterlimit="10"/>
<path d="M67.63 311.04L61.23 300.63" stroke="#263238" stroke-width="2" stroke-miterlimit="10"/>
<path d="M63.18 303.75C63.18 303.75 64.22 299.96 61.38 296.09C59.67 293.76 49.55 286.75 47.67 290.44C45.63 294.45 55.24 305.2 63.19 303.75H63.18Z" fill="#4CB2E0" stroke="#263238" stroke-miterlimit="10"/>
<path d="M63.18 303.75L54 294.94" stroke="#263238" stroke-width="0.5" stroke-miterlimit="10"/>
<path d="M56.77 414.07L65.16 405.2" stroke="#263238" stroke-width="2" stroke-miterlimit="10"/>
<path d="M62.61 407.86C62.61 407.86 62.37 403.94 65.95 400.73C68.11 398.8 79.45 394.02 80.53 398.02C81.7 402.37 70.09 410.91 62.61 407.86Z" fill="#4CB2E0" stroke="#263238" stroke-miterlimit="10"/>
<path d="M62.61 407.86L74.05 400.76" stroke="#263238" stroke-width="0.5" stroke-miterlimit="10"/>
<path d="M62.28 360.941L70.68 352.061" stroke="#263238" stroke-width="2" stroke-miterlimit="10"/>
<path d="M68.13 354.72C68.13 354.72 67.89 350.8 71.47 347.59C73.63 345.66 84.97 340.88 86.05 344.88C87.22 349.23 75.61 357.77 68.13 354.72Z" fill="#4CB2E0" stroke="#263238" stroke-miterlimit="10"/>
<path d="M68.13 354.72L79.56 347.63" stroke="#263238" stroke-width="0.5" stroke-miterlimit="10"/>
<path d="M64.71 337.59L73.1 328.71" stroke="#263238" stroke-width="2" stroke-miterlimit="10"/>
<path d="M70.55 331.37C70.55 331.37 70.31 327.45 73.89 324.24C76.04 322.31 87.39 317.53 88.47 321.53C89.64 325.88 78.03 334.42 70.55 331.37Z" fill="#4CB2E0" stroke="#263238" stroke-miterlimit="10"/>
<path d="M70.55 331.37L81.98 324.28" stroke="#263238" stroke-width="0.5" stroke-miterlimit="10"/>
<path d="M68.26 303.35L76.65 294.48" stroke="#263238" stroke-width="2" stroke-miterlimit="10"/>
<path d="M74.1 297.14C74.1 297.14 73.86 293.22 77.44 290.01C79.59 288.08 90.94 283.3 92.02 287.3C93.19 291.65 81.58 300.19 74.1 297.14Z" fill="#4CB2E0" stroke="#263238" stroke-miterlimit="10"/>
<path d="M74.1 297.14L85.54 290.04" stroke="#263238" stroke-width="0.5" stroke-miterlimit="10"/>
<path d="M70.09 281.37C70.09 281.37 69.85 277.45 73.43 274.24C75.58 272.31 86.93 267.53 88.01 271.53C89.18 275.88 77.57 284.42 70.09 281.37Z" fill="#4CB2E0" stroke="#263238" stroke-miterlimit="10"/>
<path d="M70.09 281.37L81.53 274.28" stroke="#263238" stroke-width="0.5" stroke-miterlimit="10"/>
<path d="M70.56 281.88C70.56 281.88 66.63 281.71 63.82 277.81C62.13 275.47 58.57 263.68 62.65 263.03C67.09 262.32 74.37 274.76 70.55 281.88H70.56Z" fill="#4CB2E0" stroke="#263238" stroke-miterlimit="10"/>
<path d="M70.56 281.88L64.7 269.77" stroke="#263238" stroke-width="0.5" stroke-miterlimit="10"/>
<path d="M48.93 210.07V434.59" stroke="#263238" stroke-width="2" stroke-miterlimit="10"/>
<path d="M49.11 400.84L41.68 391.14" stroke="#263238" stroke-width="2" stroke-miterlimit="10"/>
<path d="M43.94 394.05C43.94 394.05 44.59 390.17 41.35 386.62C39.41 384.48 28.62 378.56 27.13 382.42C25.51 386.62 36.18 396.32 43.94 394.05Z" fill="#4CB2E0" stroke="#263238" stroke-miterlimit="10"/>
<path d="M43.94 394.05L33.89 386.23" stroke="#263238" stroke-width="0.5" stroke-miterlimit="10"/>
<path d="M49.11 358.64L41.68 348.95" stroke="#263238" stroke-width="2" stroke-miterlimit="10"/>
<path d="M43.94 351.85C43.94 351.85 44.59 347.97 41.35 344.42C39.41 342.28 28.62 336.36 27.13 340.22C25.51 344.42 36.18 354.12 43.94 351.85Z" fill="#4CB2E0" stroke="#263238" stroke-miterlimit="10"/>
<path d="M43.94 351.85L33.89 344.04" stroke="#263238" stroke-width="0.5" stroke-miterlimit="10"/>
<path d="M49.11 309.1L41.68 299.41" stroke="#263238" stroke-width="2" stroke-miterlimit="10"/>
<path d="M43.94 302.32C43.94 302.32 44.59 298.44 41.35 294.89C39.41 292.75 28.62 286.83 27.13 290.69C25.51 294.89 36.18 304.59 43.94 302.32Z" fill="#4CB2E0" stroke="#263238" stroke-miterlimit="10"/>
<path d="M43.94 302.32L33.89 294.5" stroke="#263238" stroke-width="0.5" stroke-miterlimit="10"/>
<path d="M49.11 276.13L41.68 266.43" stroke="#263238" stroke-width="2" stroke-miterlimit="10"/>
<path d="M43.94 269.34C43.94 269.34 44.59 265.46 41.35 261.91C39.41 259.77 28.62 253.85 27.13 257.71C25.51 261.91 36.18 271.61 43.94 269.34Z" fill="#4CB2E0" stroke="#263238" stroke-miterlimit="10"/>
<path d="M43.94 269.34L33.89 261.52" stroke="#263238" stroke-width="0.5" stroke-miterlimit="10"/>
<path d="M49.11 243.01L41.68 233.31" stroke="#263238" stroke-width="2" stroke-miterlimit="10"/>
<path d="M43.94 236.22C43.94 236.22 44.59 232.34 41.35 228.79C39.41 226.65 28.62 220.73 27.13 224.59C25.51 228.79 36.18 238.49 43.94 236.22Z" fill="#4CB2E0" stroke="#263238" stroke-miterlimit="10"/>
<path d="M43.94 236.22L33.89 228.4" stroke="#263238" stroke-width="0.5" stroke-miterlimit="10"/>
<path d="M48.94 413.72L56.38 404.02" stroke="#263238" stroke-width="2" stroke-miterlimit="10"/>
<path d="M54.12 406.93C54.12 406.93 53.47 403.05 56.71 399.5C58.65 397.36 69.44 391.44 70.93 395.3C72.55 399.5 61.88 409.2 54.12 406.93Z" fill="#4CB2E0" stroke="#263238" stroke-miterlimit="10"/>
<path d="M54.12 406.93L64.75 398.7" stroke="#263238" stroke-width="0.5" stroke-miterlimit="10"/>
<path d="M48.94 346.61L56.38 336.92" stroke="#263238" stroke-width="2" stroke-miterlimit="10"/>
<path d="M54.12 339.83C54.12 339.83 53.47 335.95 56.71 332.4C58.65 330.26 69.44 324.34 70.93 328.2C72.55 332.4 61.88 342.1 54.12 339.83Z" fill="#4CB2E0" stroke="#263238" stroke-miterlimit="10"/>
<path d="M54.12 339.83L64.75 331.59" stroke="#263238" stroke-width="0.5" stroke-miterlimit="10"/>
<path d="M48.94 313.49L56.38 303.8" stroke="#263238" stroke-width="2" stroke-miterlimit="10"/>
<path d="M54.12 306.71C54.12 306.71 53.47 302.83 56.71 299.28C58.65 297.14 69.44 291.22 70.93 295.08C72.55 299.28 61.88 308.98 54.12 306.71Z" fill="#4CB2E0" stroke="#263238" stroke-miterlimit="10"/>
<path d="M54.12 306.71L64.75 298.47" stroke="#263238" stroke-width="0.5" stroke-miterlimit="10"/>
<path d="M48.94 269.71L56.38 260.02" stroke="#263238" stroke-width="2" stroke-miterlimit="10"/>
<path d="M54.12 262.93C54.12 262.93 53.47 259.05 56.71 255.5C58.65 253.36 69.44 247.44 70.93 251.3C72.55 255.5 61.88 265.2 54.12 262.93Z" fill="#4CB2E0" stroke="#263238" stroke-miterlimit="10"/>
<path d="M54.12 262.93L64.75 254.69" stroke="#263238" stroke-width="0.5" stroke-miterlimit="10"/>
<path d="M48.94 235.3L56.38 225.6" stroke="#263238" stroke-width="2" stroke-miterlimit="10"/>
<path d="M54.12 228.51C54.12 228.51 53.47 224.63 56.71 221.08C58.65 218.94 69.44 213.02 70.93 216.88C72.55 221.08 61.88 230.78 54.12 228.51Z" fill="#4CB2E0" stroke="#263238" stroke-miterlimit="10"/>
<path d="M54.12 228.51L64.75 220.27" stroke="#263238" stroke-width="0.5" stroke-miterlimit="10"/>
<path d="M48.5 213.25C48.5 213.25 47.85 209.37 51.09 205.82C53.03 203.68 63.82 197.76 65.31 201.62C66.93 205.82 56.26 215.52 48.5 213.25Z" fill="#4CB2E0" stroke="#263238" stroke-miterlimit="10"/>
<path d="M48.5 213.25L59.14 205.01" stroke="#263238" stroke-width="0.5" stroke-miterlimit="10"/>
<path d="M49.02 213.7C49.02 213.7 45.1 213.94 41.9 210.35C39.98 208.19 35.22 196.84 39.21 195.77C43.56 194.6 52.08 206.23 49.02 213.7Z" fill="#4CB2E0" stroke="#263238" stroke-miterlimit="10"/>
<path d="M49.02 213.7L41.94 202.26" stroke="#263238" stroke-width="0.5" stroke-miterlimit="10"/>
<path d="M58.17 462.91H34.39L31.42 432.77H61.14L58.17 462.91Z" fill="#263238" stroke="#263238" stroke-miterlimit="10"/>
<path d="M0.5 462.91H482.76" stroke="#263238" stroke-linecap="round" stroke-linejoin="round"/>
<g opacity="0.3">
<path d="M425.46 35.2302C425.46 35.2302 423.71 29.3802 418.44 27.9202C413.18 26.4602 410.54 32.8902 408.79 33.4802C407.04 34.0602 405.28 31.4302 403.23 31.7302C401.18 32.0302 401.18 35.5302 399.72 36.4102C398.26 37.2902 396.5 34.9502 394.16 35.8302C391.82 36.7102 390.94 38.7502 390.94 38.7502C390.94 38.7502 388.89 37.2902 386.85 37.5802C384.81 37.8702 382.76 41.0902 382.76 41.0902H435.98C435.98 41.0902 435.69 34.0701 433.35 33.1901C431.01 32.3101 428.09 36.1102 425.45 35.2402L425.46 35.2302Z" stroke="black" stroke-linecap="round" stroke-linejoin="round"/>
<path d="M248.81 43.0903C248.81 43.0903 246.55 35.5603 239.77 33.6803C232.99 31.8003 229.6 40.0803 227.34 40.8403C225.08 41.5903 222.82 38.2003 220.19 38.5803C217.56 38.9603 217.55 43.4803 215.67 44.6103C213.79 45.7403 211.53 42.7303 208.52 43.8603C205.51 44.9903 204.38 47.6303 204.38 47.6303C204.38 47.6303 201.74 45.7503 199.11 46.1203C196.47 46.5003 193.84 50.6403 193.84 50.6403H262.38C262.38 50.6403 262 41.6003 258.99 40.4703C255.98 39.3403 252.21 44.2403 248.82 43.1103L248.81 43.0903Z" stroke="black" stroke-linecap="round" stroke-linejoin="round"/>
<path d="M299.76 31.6101C299.76 31.6101 298.49 27.3601 294.66 26.3001C290.84 25.2401 288.92 29.9101 287.65 30.3401C286.38 30.7701 285.1 28.8501 283.61 29.0701C282.12 29.2901 282.12 31.8301 281.06 32.4701C280 33.1101 278.72 31.4101 277.02 32.0401C275.32 32.6801 274.68 34.1601 274.68 34.1601C274.68 34.1601 273.19 33.1001 271.71 33.3101C270.22 33.5201 268.74 35.8601 268.74 35.8601H307.41C307.41 35.8601 307.2 30.7601 305.5 30.1201C303.8 29.4801 301.68 32.2401 299.76 31.6101Z" stroke="black" stroke-linecap="round" stroke-linejoin="round"/>
<path d="M72.98 46.68C72.98 46.68 71.71 42.43 67.88 41.37C64.06 40.31 62.14 44.98 60.87 45.41C59.6 45.84 58.32 43.92 56.83 44.14C55.34 44.36 55.34 46.9 54.28 47.54C53.22 48.18 51.94 46.48 50.24 47.11C48.54 47.75 47.9 49.23 47.9 49.23C47.9 49.23 46.41 48.17 44.93 48.38C43.45 48.59 41.96 50.93 41.96 50.93H80.63C80.63 50.93 80.42 45.83 78.72 45.19C77.02 44.55 74.9 47.31 72.98 46.68Z" stroke="black" stroke-linecap="round" stroke-linejoin="round"/>
</g>
<path d="M314.42 78.9302V180.28H214.92" stroke="#263238" stroke-linecap="round" stroke-linejoin="round"/>
<path d="M206.16 180.28H181.36V18.04H314.42V72.19" stroke="#263238" stroke-linecap="round" stroke-linejoin="round"/>
<path d="M216.27 297.4H181.36V193.7H314.42V297.4H225.03" stroke="#263238" stroke-linecap="round" stroke-linejoin="round"/>
<path d="M466.74 66.1299V182.19L333.68 180.28V18.0399L466.74 6.16992V57.3599" stroke="#263238" stroke-linecap="round" stroke-linejoin="round"/>
<path d="M466.74 309.27L333.68 297.4V193.7L466.74 196.76V309.27Z" stroke="#263238" stroke-linecap="round" stroke-linejoin="round"/>
<path d="M105.87 13.1799L27.24 6.16992V182.19L160.31 180.28V18.0399L112.01 13.7299" stroke="#263238" stroke-linecap="round" stroke-linejoin="round"/>
<path d="M75.36 195.65L27.24 196.76V309.27L160.31 297.4V193.7L85.48 195.42" stroke="#263238" stroke-linecap="round" stroke-linejoin="round"/>
<g opacity="0.3">
<path d="M94.51 109.27V59.5902H110.3V107.68H118.19V35.9102H151.92" stroke="black" stroke-linecap="round" stroke-linejoin="round"/>
<path d="M55.76 156.48H67.96V135.67H81.59V123.47H94.51V113.99" stroke="black" stroke-linecap="round" stroke-linejoin="round"/>
<path d="M205.03 76.9103V64.6203H259.57V54.5703H281.82V81.1203H291.86V114.14H301.91V89.7403H307.65" stroke="black" stroke-linecap="round" stroke-linejoin="round"/>
<path d="M189.24 100.5H205.03V82.98" stroke="black" stroke-linecap="round" stroke-linejoin="round"/>
<path d="M410.4 51.7002H423.19V134.95" stroke="black" stroke-linecap="round" stroke-linejoin="round"/>
<path d="M335.64 89.7402H365.07V51.7002H403.66" stroke="black" stroke-linecap="round" stroke-linejoin="round"/>
<path d="M436.69 135.67H450.47V169.39H462.67" stroke="black" stroke-linecap="round" stroke-linejoin="round"/>
<path d="M390.9 170.83V135.67H431.97" stroke="black" stroke-linecap="round" stroke-linejoin="round"/>
<path d="M298.32 138.54H245.94V175.14" stroke="black" stroke-linecap="round" stroke-linejoin="round"/>
<path d="M234.47 117.72H215.08V152.89" stroke="black" stroke-linecap="round" stroke-linejoin="round"/>
<path d="M271.05 137.82V117.72H241.88" stroke="black" stroke-linecap="round" stroke-linejoin="round"/>
<path d="M231.58 155.04H190.68" stroke="black" stroke-linecap="round" stroke-linejoin="round"/>
<path d="M151.92 110.55H118.91V140.69" stroke="black" stroke-linecap="round" stroke-linejoin="round"/>
<path d="M32.79 123.47H42.12V81.1201H90.21" stroke="black" stroke-linecap="round" stroke-linejoin="round"/>
<path d="M425.35 95.48H449.75V106.96H461.23" stroke="black" stroke-linecap="round" stroke-linejoin="round"/>
<path d="M379.16 70.3604H370.55V78.9704H379.16V70.3604Z" stroke="black" stroke-linecap="round" stroke-linejoin="round"/>
<path d="M399.25 70.3604H390.64V78.9704H399.25V70.3604Z" stroke="black" stroke-linecap="round" stroke-linejoin="round"/>
<path d="M419.35 70.3604H410.74V78.9704H419.35V70.3604Z" stroke="black" stroke-linecap="round" stroke-linejoin="round"/>
<path d="M224.4 76.1001H215.79V84.7101H224.4V76.1001Z" stroke="black" stroke-linecap="round" stroke-linejoin="round"/>
<path d="M244.5 76.1001H235.89V84.7101H244.5V76.1001Z" stroke="black" stroke-linecap="round" stroke-linejoin="round"/>
<path d="M264.59 76.1001H255.98V84.7101H264.59V76.1001Z" stroke="black" stroke-linecap="round" stroke-linejoin="round"/>
<path d="M404.53 146.43H395.92V155.04H404.53V146.43Z" stroke="black" stroke-linecap="round" stroke-linejoin="round"/>
<path d="M424.63 146.43H416.02V155.04H424.63V146.43Z" stroke="black" stroke-linecap="round" stroke-linejoin="round"/>
<path d="M444.72 146.43H436.11V155.04H444.72V146.43Z" stroke="black" stroke-linecap="round" stroke-linejoin="round"/>
<path d="M261 146.43H252.39V155.04H261V146.43Z" stroke="black" stroke-linecap="round" stroke-linejoin="round"/>
<path d="M281.1 146.43H272.49V155.04H281.1V146.43Z" stroke="black" stroke-linecap="round" stroke-linejoin="round"/>
<path d="M301.19 146.43H292.58V155.04H301.19V146.43Z" stroke="black" stroke-linecap="round" stroke-linejoin="round"/>
<path d="M133.26 46.6802H124.65V55.2902H133.26V46.6802Z" stroke="black" stroke-linecap="round" stroke-linejoin="round"/>
<path d="M153.36 46.6802H144.75V55.2902H153.36V46.6802Z" stroke="black" stroke-linecap="round" stroke-linejoin="round"/>
<path d="M133.26 68.21H124.65V76.82H133.26V68.21Z" stroke="black" stroke-linecap="round" stroke-linejoin="round"/>
<path d="M153.36 68.21H144.75V76.82H153.36V68.21Z" stroke="black" stroke-linecap="round" stroke-linejoin="round"/>
<path d="M133.26 89.7402H124.65V98.3502H133.26V89.7402Z" stroke="black" stroke-linecap="round" stroke-linejoin="round"/>
<path d="M153.36 89.7402H144.75V98.3502H153.36V89.7402Z" stroke="black" stroke-linecap="round" stroke-linejoin="round"/>
<path d="M57.19 86.8701H48.58V95.4801H57.19V86.8701Z" stroke="black" stroke-linecap="round" stroke-linejoin="round"/>
<path d="M77.29 86.8701H68.68V95.4801H77.29V86.8701Z" stroke="black" stroke-linecap="round" stroke-linejoin="round"/>
<path d="M57.19 104.81H48.58V113.42H57.19V104.81Z" stroke="black" stroke-linecap="round" stroke-linejoin="round"/>
<path d="M77.29 104.81H68.68V113.42H77.29V104.81Z" stroke="black" stroke-linecap="round" stroke-linejoin="round"/>
<path d="M261 164.37H252.39V172.98H261V164.37Z" stroke="black" stroke-linecap="round" stroke-linejoin="round"/>
<path d="M281.1 164.37H272.49V172.98H281.1V164.37Z" stroke="black" stroke-linecap="round" stroke-linejoin="round"/>
<path d="M301.19 164.37H292.58V172.98H301.19V164.37Z" stroke="black" stroke-linecap="round" stroke-linejoin="round"/>
<path d="M261 203.11H252.39V211.72H261V203.11Z" stroke="black" stroke-linecap="round" stroke-linejoin="round"/>
<path d="M281.1 203.11H272.49V211.72H281.1V203.11Z" stroke="black" stroke-linecap="round" stroke-linejoin="round"/>
<path d="M301.19 203.11H292.58V211.72H301.19V203.11Z" stroke="black" stroke-linecap="round" stroke-linejoin="round"/>
<path d="M261 223.34H252.39V231.95H261V223.34Z" stroke="black" stroke-linecap="round" stroke-linejoin="round"/>
<path d="M281.1 223.34H272.49V231.95H281.1V223.34Z" stroke="black" stroke-linecap="round" stroke-linejoin="round"/>
<path d="M301.19 223.34H292.58V231.95H301.19V223.34Z" stroke="black" stroke-linecap="round" stroke-linejoin="round"/>
<path d="M379.16 95.48H370.55V104.09H379.16V95.48Z" stroke="black" stroke-linecap="round" stroke-linejoin="round"/>
<path d="M399.25 95.48H390.64V104.09H399.25V95.48Z" stroke="black" stroke-linecap="round" stroke-linejoin="round"/>
<path d="M419.35 95.48H410.74V104.09H419.35V95.48Z" stroke="black" stroke-linecap="round" stroke-linejoin="round"/>
<path d="M379.16 120.59H370.55V129.2H379.16V120.59Z" stroke="black" stroke-linecap="round" stroke-linejoin="round"/>
<path d="M399.25 120.59H390.64V129.2H399.25V120.59Z" stroke="black" stroke-linecap="round" stroke-linejoin="round"/>
<path d="M419.35 120.59H410.74V129.2H419.35V120.59Z" stroke="black" stroke-linecap="round" stroke-linejoin="round"/>
<path d="M245.25 200.27V252.84" stroke="black" stroke-linecap="round" stroke-linejoin="round"/>
<path d="M43.03 221.16H51.12V200.94" stroke="black" stroke-linecap="round" stroke-linejoin="round"/>
</g>
<path d="M284.96 368.81L281.87 460.35C281.83 461.44 282.85 462.48 283.97 462.48C284.77 462.48 285.37 461.95 285.44 461.18L293.42 368.82H284.97L284.96 368.81Z" fill="white" stroke="#263238" stroke-linecap="round" stroke-linejoin="round"/>
<path d="M272.03 428.31C272.03 428.31 269.34 438.11 268.96 439.07C268.58 440.03 252.63 449.63 248.79 450.98C244.95 452.33 239.38 454.82 239.38 456.17C239.38 459.44 244.91 463.6 264.16 460.97C271.98 459.9 274.53 455.59 283.17 457.32C283.17 457.32 282.4 459.24 285.67 459.05C288.94 458.86 294.7 458.47 295.08 457.13C295.46 455.79 295.27 444.84 294.5 443.3C293.73 441.76 292.2 438.31 291.81 437.73C291.43 437.15 290.66 427.55 290.66 427.55L272.03 428.32V428.31Z" fill="white" stroke="#263238" stroke-linecap="round" stroke-linejoin="round"/>
<path d="M248.79 450.97C244.95 452.31 239.38 454.81 239.38 456.16C239.38 459.43 244.91 463.59 264.16 460.96C271.98 459.89 274.53 455.58 283.17 457.31C283.17 457.31 282.4 459.23 285.67 459.04C288.94 458.85 294.7 458.46 295.08 457.12C295.46 455.78 295.27 444.83 294.5 443.29C294.22 442.73 293.84 441.91 293.45 441.07C291.66 441.7 289.3 442.53 286.63 443.48C280.68 445.59 275.11 444.44 275.11 444.44C275.11 444.44 275.49 439.64 273.38 437.53C271.27 435.42 268.96 439.07 268.96 439.07C268.58 440.03 252.63 449.63 248.79 450.98V450.97Z" fill="#263238" stroke="#263238" stroke-linecap="round" stroke-linejoin="round"/>
<path d="M405.46 368.81L423.55 460.35C423.78 461.44 422.95 462.48 421.83 462.48C421.03 462.48 420.34 461.95 420.13 461.18L397.01 368.82H405.46V368.81Z" fill="white" stroke="#263238" stroke-linecap="round" stroke-linejoin="round"/>
<path d="M359.33 368.81L362.42 460.35C362.46 461.44 361.44 462.48 360.32 462.48C359.52 462.48 358.92 461.95 358.85 461.18L350.87 368.82H359.32L359.33 368.81Z" fill="white" stroke="#263238" stroke-linecap="round" stroke-linejoin="round"/>
<path d="M336.44 368.81L354.53 460.35C354.76 461.44 353.93 462.48 352.81 462.48C352.01 462.48 351.32 461.95 351.11 461.18L327.99 368.82H336.44V368.81Z" fill="white" stroke="#263238" stroke-linecap="round" stroke-linejoin="round"/>
<path d="M344.65 349.33H284.79V363.65H344.65V349.33Z" fill="#969696" stroke="#263238" stroke-linecap="round" stroke-linejoin="round"/>
<path d="M284.79 369.05H409.21V363.65H284.79V369.05Z" fill="white" stroke="#263238" stroke-linecap="round" stroke-linejoin="round"/>
<path d="M348.17 363.65H284.79V369.05H348.17V363.65Z" fill="white" stroke="#263238" stroke-linecap="round" stroke-linejoin="round"/>
<path d="M305.16 315.2C305.16 315.2 263.49 307.62 257.94 310.91C252.38 314.19 253.9 327.58 254.91 331.87C255.92 336.16 262.74 428.49 262.74 428.49L291.78 434.7L287.49 343.24L314.01 345.51L305.17 315.21L305.16 315.2Z" fill="#263238" stroke="#263238" stroke-linecap="round" stroke-linejoin="round"/>
<path d="M285.07 298.36C285.07 298.36 269.52 298.01 268.46 298.71C267.4 299.42 253.44 303.13 253.44 303.13L280.47 309.84L293.19 308.43L285.06 298.36H285.07Z" fill="white" stroke="#263238" stroke-linecap="round" stroke-linejoin="round"/>
<path d="M273.06 299.95L265.82 305.25L272.89 310.02L272.18 305.6C272.18 305.6 277.83 306.48 279.42 306.13C281.01 305.78 283.48 304.36 283.48 304.36" fill="white"/>
<path d="M273.06 299.95L265.82 305.25L272.89 310.02L272.18 305.6C272.18 305.6 277.83 306.48 279.42 306.13C281.01 305.78 283.48 304.36 283.48 304.36" stroke="#263238" stroke-linecap="round" stroke-linejoin="round"/>
<path d="M311.75 224.33L305.92 282.63C305.92 282.63 302.56 284.4 302.56 285.28C302.56 286.16 302.74 288.28 302.74 288.28L287.37 296.58L285.07 298.35L293.2 308.42L319.17 302.24L314.93 227.51L311.75 224.33Z" fill="#4CB2E0" stroke="#263238" stroke-linecap="round" stroke-linejoin="round"/>
<path d="M314.43 291.51C314.43 291.51 311.34 289.39 306.51 287.07C301.68 284.75 308.06 285.52 310.76 286.68" stroke="#263238" stroke-linecap="round" stroke-linejoin="round"/>
<path d="M420.32 319.28C420.32 319.28 436.75 263.41 434.64 259.18C432.53 254.95 430.18 254.02 423.84 254.02H351.07L344.26 363.65L420.32 319.28Z" fill="#969696" stroke="#263238" stroke-linecap="round" stroke-linejoin="round"/>
<path d="M334.01 209.32C334.01 209.32 312.63 222.22 311.75 224.34C310.87 226.46 315.28 293.95 315.28 295.19C315.28 296.43 314.93 305.97 314.93 305.97L341.96 309.68C341.96 309.68 349.73 329.82 371.99 339.01C394.25 348.2 405.38 338.13 405.38 337.24C405.38 336.35 400.79 302.26 400.79 302.26C400.79 302.26 393.37 218.16 391.96 216.04C390.55 213.92 361.31 199.43 361.31 199.43L334.01 209.33V209.32Z" fill="#4CB2E0" stroke="#263238" stroke-linecap="round" stroke-linejoin="round"/>
<path d="M383.59 319.02C385.2 319.37 386.87 319.62 388.61 319.71" stroke="#263238" stroke-linecap="round" stroke-linejoin="round"/>
<path d="M364.66 308.7C364.66 308.7 370.55 314.7 379.55 317.86" stroke="#263238" stroke-linecap="round" stroke-linejoin="round"/>
<path d="M357.51 308.51C357.51 308.51 361.76 315.46 366.78 318.36" stroke="#263238" stroke-linecap="round" stroke-linejoin="round"/>
<path d="M329.02 227.43L326.36 299.38L331.52 299.08L345.09 233.48L346.27 230.23L349.36 210.18L335.95 206.5L329.02 227.43Z" fill="white" stroke="#263238" stroke-linecap="round" stroke-linejoin="round"/>
<path d="M336.39 213.28L330.93 223.16L333.44 235.25L327.98 263.99L326.36 299.38L331.52 299.08L338.17 266.92L337.13 234.8L342.73 221.68L336.39 213.28Z" fill="#263238" stroke="#263238" stroke-linecap="round" stroke-linejoin="round"/>
<path d="M327.69 203.84L336.24 216.67L359.09 197.36L355.7 192.05L355.41 189.84L356.59 170.67L335.8 167.43L327.69 203.84Z" fill="white" stroke="#263238" stroke-linecap="round" stroke-linejoin="round"/>
<path d="M318.7 157.7C318.7 157.7 313.54 169.94 314.13 171.71C314.72 173.48 315.46 174.81 315.01 175.84C314.57 176.87 309.56 185.72 310.29 187.04C311.03 188.37 314.71 190.87 314.71 190.87C314.71 190.87 315.74 199.42 314.71 201.19C313.68 202.96 313.38 206.79 318.4 207.82C323.42 208.85 339.34 202.81 342.28 200.15C345.23 197.5 344.34 190.86 343.46 187.62C342.58 184.38 341.4 173.32 345.52 171.99C349.64 170.66 351.71 174.05 350.68 179.07C349.65 184.08 347.58 187.03 347.58 187.03L355.25 191.01C355.25 191.01 360.12 183.64 362.47 178.18C364.83 172.73 366.75 165.8 362.76 156.36C358.77 146.92 346.69 144.42 337.99 143.53C329.29 142.65 322.66 144.56 322.66 144.56C322.66 144.56 318.38 141.76 315.73 144.85C313.08 147.95 312.63 154.29 314.7 155.61L316.76 156.94C316.76 156.94 315.29 158.12 316.17 158.56C317.05 159 318.68 157.68 318.68 157.68L318.7 157.7Z" fill="white" stroke="#263238" stroke-linecap="round" stroke-linejoin="round"/>
<path d="M338.01 143.54C329.31 142.66 322.68 144.57 322.68 144.57C322.68 144.57 318.4 141.77 315.75 144.86C313.1 147.96 312.65 154.3 314.72 155.62L316.78 156.95C316.78 156.95 315.31 158.13 316.19 158.57C316.19 158.57 316.2 158.57 316.21 158.57L318.7 157.68C318.7 157.68 321.06 153.7 326.37 156.06C331.68 158.42 328.29 162.1 327.7 164.91C327.11 167.72 332.71 171.84 332.71 171.84C332.71 171.84 336.69 175.23 337.13 178.18C337.57 181.13 335.51 187.91 334.33 189.38C333.15 190.85 325.93 194.84 325.93 194.84C325.93 194.84 323.42 190.12 314.73 190.86C314.73 190.86 315.76 199.41 314.73 201.18C313.7 202.95 313.4 206.78 318.42 207.81C323.44 208.84 339.36 202.8 342.3 200.14C345.25 197.49 344.36 190.85 343.48 187.61C342.6 184.37 341.42 173.31 345.54 171.98C349.66 170.65 351.73 174.04 350.7 179.06C349.67 184.07 347.6 187.02 347.6 187.02L355.27 191C355.27 191 360.14 183.63 362.49 178.17C364.85 172.72 366.77 165.79 362.78 156.35C358.8 146.91 346.71 144.41 338.01 143.52V143.54Z" fill="#263238" stroke="#263238" stroke-linecap="round" stroke-linejoin="round"/>
<path d="M320.47 176.71C320.47 177.93 320.01 178.92 319.44 178.92C318.87 178.92 318.41 177.93 318.41 176.71C318.41 175.49 318.87 174.5 319.44 174.5C320.01 174.5 320.47 175.49 320.47 176.71Z" fill="#263238"/>
<path d="M316.04 172.59C316.04 172.59 318.4 169.79 322.23 171.85" stroke="#263238" stroke-width="2" stroke-linecap="round" stroke-linejoin="round"/>
<path d="M317.81 195.59C317.81 195.59 319.87 195.59 323.12 194.26" stroke="#8A8A8A" stroke-linecap="round" stroke-linejoin="round"/>
<path d="M317.81 179.66C317.81 179.66 318.99 182.31 321.2 183.05" stroke="#263238" stroke-linecap="round" stroke-linejoin="round"/>
<path d="M336.24 216.67L346.27 230.23L361.3 199.42L359.09 197.36L336.24 216.67Z" fill="white" stroke="#263238" stroke-linecap="round" stroke-linejoin="round"/>
<path d="M331.46 209.64L330.34 211.66L329.02 227.43L336.24 216.67L331.46 209.64Z" fill="white" stroke="#263238" stroke-linecap="round" stroke-linejoin="round"/>
<path d="M338.05 281.28L335.42 288.11" stroke="#263238" stroke-linecap="round" stroke-linejoin="round"/>
<path d="M363.12 211.32L360.33 225.39L352.03 226.81L356.8 232.46L338.99 278.81" stroke="#263238" stroke-linecap="round" stroke-linejoin="round"/>
<path d="M364.75 203.13L363.89 207.47" stroke="#263238" stroke-linecap="round" stroke-linejoin="round"/>
<path d="M322.88 260.37L324.64 289.17" stroke="#263238" stroke-linecap="round" stroke-linejoin="round"/>
<path d="M326.76 215.32L321.82 225.22L326.23 228.57L321.29 234.4L322.62 256.13" stroke="#263238" stroke-linecap="round" stroke-linejoin="round"/>
<path d="M288.25 309.49L241.96 299.6L241.08 303.31L287.19 313.38L288.25 309.49Z" fill="#263238" stroke="#263238" stroke-linecap="round" stroke-linejoin="round"/>
<path d="M305.56 301.89C305.56 301.89 295.49 298.89 294.78 298.71C294.07 298.53 290.54 298 289.3 299.06C288.06 300.12 284.71 301.53 284 301.71C283.29 301.89 280.47 303.3 280.11 304.36C279.76 305.42 281.7 306.66 283.82 306.13C285.94 305.6 290.36 304.01 290.36 304.01L294.42 305.07L282.94 310.72L274.46 310.9C274.46 310.9 276.05 312.84 276.93 313.2C277.81 313.55 285.06 315.85 285.06 315.85C285.06 315.85 290.54 317.62 293.54 317.44C296.54 317.26 305.38 311.43 305.38 311.43L305.56 301.89Z" fill="white" stroke="#263238" stroke-linecap="round" stroke-linejoin="round"/>
<path d="M372.52 223.63C372.52 223.63 361.39 234.41 361.21 238.12C361.03 241.83 355.2 288.65 355.2 288.65L303.97 301.02L304.32 312.68C304.32 312.68 377.46 307.2 378.35 306.67C379.23 306.14 380.65 302.08 380.65 302.08C380.65 302.08 393.19 238.3 393.19 235.65C393.19 233 391.78 219.93 390.72 218.34" fill="#4CB2E0"/>
<path d="M372.52 223.63C372.52 223.63 361.39 234.41 361.21 238.12C361.03 241.83 355.2 288.65 355.2 288.65L303.97 301.02L304.32 312.68C304.32 312.68 377.46 307.2 378.35 306.67C379.23 306.14 380.65 302.08 380.65 302.08C380.65 302.08 393.19 238.3 393.19 235.65C393.19 233 391.78 219.93 390.72 218.34" stroke="#263238" stroke-linecap="round" stroke-linejoin="round"/>
<path d="M355.21 288.64L354.5 294.47" stroke="#263238" stroke-linecap="round" stroke-linejoin="round"/>
<path d="M311.59 429.76L304.68 441.09C304.68 441.09 284.9 451.85 283.17 452.61C281.44 453.38 274.34 454.34 274.14 456.07C273.95 457.8 274.14 459.14 274.33 460.1C274.52 461.06 283.16 463.94 294.69 463.75C306.21 463.56 319.47 461.45 319.47 461.45C319.47 461.45 318.7 462.22 322.35 462.22C326 462.22 333.11 460.88 333.49 459.53C333.87 458.19 333.68 451.08 332.53 447.24C331.38 443.4 329.07 439.17 329.07 439.17L328.69 433.02L311.6 429.75L311.59 429.76Z" fill="white" stroke="#263238" stroke-linecap="round" stroke-linejoin="round"/>
<path d="M274.14 456.08C273.95 457.81 274.14 459.15 274.33 460.11C274.52 461.07 283.17 463.95 294.69 463.76C306.21 463.57 319.47 461.46 319.47 461.46C319.47 461.46 318.7 462.23 322.35 462.23C326 462.23 333.11 460.89 333.49 459.54C333.87 458.2 333.68 451.09 332.53 447.25C331.93 445.26 331.03 443.18 330.3 441.63C323.62 443.28 314.09 443.41 314.09 443.41C314.09 443.41 313.9 437.65 310.25 436.88C308.52 436.52 307.19 437.45 306.26 438.52L304.68 441.1C304.68 441.1 284.9 451.86 283.17 452.62C281.44 453.39 274.33 454.35 274.14 456.08Z" fill="#263238" stroke="#263238" stroke-linecap="round" stroke-linejoin="round"/>
<path d="M371.99 338.99C349.73 329.8 341.96 309.66 341.96 309.66C341.96 309.66 306.93 307.87 302.64 309.64C298.35 311.41 297.59 314.44 298.09 317.22C298.6 320 297.33 428.59 297.33 428.59L329.15 435.66L334.2 346.01C334.2 346.01 385.97 351.57 394.81 348.79C400.86 346.89 402.41 342.62 402.55 339.63C397.96 342.34 387.78 345.51 371.99 338.99Z" fill="#263238" stroke="#263238" stroke-linecap="round" stroke-linejoin="round"/>
<path d="M409.21 363.65C409.21 363.65 421.65 320.22 420.71 319.28C419.77 318.34 359.91 324.44 351.22 329.14C342.53 333.83 332.44 363.65 332.44 363.65H409.2H409.21Z" fill="#696969" stroke="#263238" stroke-linecap="round" stroke-linejoin="round"/>
<path d="M70.11 368.81L52.02 460.35C51.79 461.44 52.62 462.48 53.74 462.48C54.54 462.48 55.23 461.95 55.44 461.18L78.56 368.82H70.11V368.81Z" fill="white" stroke="#263238" stroke-linecap="round" stroke-linejoin="round"/>
<path d="M116.23 368.81L113.14 460.35C113.1 461.44 114.12 462.48 115.24 462.48C116.04 462.48 116.64 461.95 116.71 461.18L124.69 368.82H116.24L116.23 368.81Z" fill="white" stroke="#263238" stroke-linecap="round" stroke-linejoin="round"/>
<path d="M139.13 368.81L121.04 460.35C120.81 461.44 121.64 462.48 122.76 462.48C123.56 462.48 124.25 461.95 124.46 461.18L147.58 368.82H139.13V368.81Z" fill="white" stroke="#263238" stroke-linecap="round" stroke-linejoin="round"/>
<path d="M190.61 368.81L193.7 460.35C193.74 461.44 192.72 462.48 191.6 462.48C190.8 462.48 190.2 461.95 190.13 461.18L182.15 368.82H190.6L190.61 368.81Z" fill="white" stroke="#263238" stroke-linecap="round" stroke-linejoin="round"/>
<path d="M54.85 319.28C54.85 319.28 38.42 263.41 40.53 259.18C42.64 254.95 44.99 254.02 51.33 254.02H124.1L130.91 363.65L54.85 319.28Z" fill="#969696" stroke="#263238" stroke-linecap="round" stroke-linejoin="round"/>
<path d="M159.79 175.38C159.79 175.38 162.61 173.5 163.78 171.39C164.95 169.28 168.47 164.11 159.55 158.95C150.63 153.79 148.75 143.69 130.68 149.79C112.6 155.89 110.73 166.22 111.2 175.38C111.67 184.54 106.27 214.58 106.27 214.58L150.17 223.5L151.34 205.89L155.1 174.43L159.8 175.37L159.79 175.38Z" fill="#263238" stroke="#263238" stroke-linecap="round" stroke-linejoin="round"/>
<path d="M150.88 219.41C150.88 219.41 160.78 223.54 161.2 226.43C161.62 229.32 166.36 271.21 166.36 271.21L179.57 283.18L174.62 294.12C174.62 294.12 161.83 289.37 157.91 287.72C153.99 286.07 149.04 277.82 149.04 277.82C149.04 277.82 151.52 247.49 148.83 238.2C146.15 228.91 144.08 216.95 144.08 216.95L150.89 219.43L150.88 219.41Z" fill="#4CB2E0" stroke="#263238" stroke-linecap="round" stroke-linejoin="round"/>
<path d="M190.77 349.33H130.91V363.65H190.77V349.33Z" fill="#969696" stroke="#263238" stroke-linecap="round" stroke-linejoin="round"/>
<path d="M190.77 363.65H66.35V369.05H190.77V363.65Z" fill="white" stroke="#263238" stroke-linecap="round" stroke-linejoin="round"/>
<path d="M190.77 363.65H127.39V369.05H190.77V363.65Z" fill="white" stroke="#263238" stroke-linecap="round" stroke-linejoin="round"/>
<path d="M168.22 302.57C168.22 302.57 193.27 301.74 197.17 303.73C198.16 304.23 202.56 306.7 203.92 310.6C210.47 329.33 233.97 377.09 237.76 383.46C242.3 391.1 254.06 408.02 254.06 408.02C254.06 408.02 268.92 417.92 269.74 420.4C270.56 422.88 267.47 424.32 262.93 424.53C258.39 424.74 246.22 422.05 242.09 419.78C237.96 417.51 229.92 415.86 226.41 413.8C224.25 412.53 224.14 410.29 224.97 407.82C225.8 405.34 228.68 396.68 228.68 396.68C228.68 396.68 216.45 375.83 207.33 370.29C193.2 361.71 198 338 190.15 329.54C182.31 321.08 169.45 332.3 162.23 336.42C155.01 340.55 148.82 345.29 148.82 345.29L168.22 302.58V302.57Z" fill="white" stroke="#263238" stroke-linecap="round" stroke-linejoin="round"/>
<path d="M254.06 408.02L251.17 412.56C251.17 412.56 236.93 408.23 231.98 405.75C230.16 404.84 228.23 403.93 226.52 403.15C225.88 405.06 225.28 406.88 224.96 407.82C224.13 410.3 224.24 412.53 226.4 413.8C229.91 415.86 237.96 417.51 242.08 419.78C246.21 422.05 258.38 424.73 262.92 424.53C267.46 424.32 270.55 422.88 269.73 420.4C268.9 417.92 254.05 408.02 254.05 408.02H254.06Z" fill="#4CB2E0" stroke="#263238" stroke-linecap="round" stroke-linejoin="round"/>
<path d="M139.12 350.24L168.01 350.03C168.01 350.03 162.85 372.32 164.5 380.36C166.15 388.41 168.42 421.01 168.63 432.36C168.84 443.71 166.15 455.68 165.95 457.53C165.74 459.39 169.87 461.45 172.76 461.66C175.65 461.87 180.6 461.87 184.11 463.72C187.62 465.58 192.98 467.85 199.38 467.85C205.78 467.85 211.97 468.06 210.52 464.34C209.08 460.63 201.44 460.01 196.49 454.85C191.54 449.69 184.11 443.91 184.11 442.06C184.11 440.21 184.94 403.06 188.03 392.33C191.13 381.6 197.11 356.22 196.7 347.55C196.29 338.88 196.49 335.99 196.29 333.93C196.08 331.87 189.27 320.52 177.1 324.85C164.93 329.18 150.07 344.87 150.07 344.87L139.13 350.24H139.12Z" fill="white" stroke="#263238" stroke-linecap="round" stroke-linejoin="round"/>
<path d="M168.01 350.03L168.71 338.37" stroke="#263238" stroke-linecap="round" stroke-linejoin="round"/>
<path d="M210.52 464.35C209.08 460.64 201.44 460.02 196.49 454.86C196.2 454.55 195.89 454.25 195.58 453.94L192.77 459.4C192.77 459.4 177.09 454.45 171.93 450.73C170.18 449.47 168.72 448.5 167.55 447.76C166.85 452.78 166.06 456.56 165.95 457.54C165.74 459.4 169.87 461.46 172.76 461.67C175.65 461.88 180.6 461.88 184.11 463.73C187.62 465.59 192.98 467.86 199.38 467.86C205.78 467.86 211.97 468.07 210.52 464.35Z" fill="#4CB2E0" stroke="#263238" stroke-linecap="round" stroke-linejoin="round"/>
<path d="M93.11 285.86C93.11 285.86 73.51 309.8 74.13 323.62C74.75 337.45 78.05 353.75 101.16 356.64C124.27 359.53 146.35 346.53 148.83 345.29C151.31 344.05 168.23 302.58 168.23 302.58L151.1 303.41L143.05 288.35L93.11 285.87V285.86Z" fill="#263238" stroke="#263238" stroke-linecap="round" stroke-linejoin="round"/>
<path d="M156.78 244.16C157.12 245.91 157.5 247.63 157.9 249.13C159.55 255.32 157.49 266.67 156.25 269.15C155.01 271.63 145.52 293.71 145.52 293.71C145.52 293.71 137.06 298.25 118.28 296.6C99.5 294.95 92.69 290.2 92.69 290.2C92.69 290.2 90.63 217.36 90.83 216.53C91.04 215.7 120.54 210.34 120.54 210.34L141.18 214.88L153.56 221.28" fill="#4CB2E0"/>
<path d="M156.78 244.16C157.12 245.91 157.5 247.63 157.9 249.13C159.55 255.32 157.49 266.67 156.25 269.15C155.01 271.63 145.52 293.71 145.52 293.71C145.52 293.71 137.06 298.25 118.28 296.6C99.5 294.95 92.69 290.2 92.69 290.2C92.69 290.2 90.63 217.36 90.83 216.53C91.04 215.7 120.54 210.34 120.54 210.34L141.18 214.88L153.56 221.28" stroke="#263238" stroke-linecap="round" stroke-linejoin="round"/>
<path d="M131.51 275.1L127.56 276.48" stroke="#263238" stroke-linecap="round" stroke-linejoin="round"/>
<path d="M144.6 270.53L134.36 274.1" stroke="#263238" stroke-linecap="round" stroke-linejoin="round"/>
<path d="M148.37 271.32L136.28 276.28" stroke="#263238" stroke-linecap="round" stroke-linejoin="round"/>
<path d="M140.07 246.17C141.06 252.07 142.3 259.79 142.42 261.8C142.62 265.17 141.23 268.94 141.23 268.94" stroke="#263238" stroke-linecap="round" stroke-linejoin="round"/>
<path d="M138.86 239.01C138.86 239.01 139.13 240.56 139.52 242.87" stroke="#263238" stroke-linecap="round" stroke-linejoin="round"/>
<path d="M155.01 233.03C155.01 233.03 155.37 235.92 155.96 239.55L155.01 233.03Z" fill="#4CB2E0"/>
<path d="M155.01 233.03C155.01 233.03 155.37 235.92 155.96 239.55" stroke="#263238" stroke-linecap="round" stroke-linejoin="round"/>
<path d="M90.84 216.52L85.47 276.16L106.93 271.62L111.68 229.11" fill="#4CB2E0"/>
<path d="M90.84 216.52L85.47 276.16L106.93 271.62L111.68 229.11" stroke="#263238" stroke-linecap="round" stroke-linejoin="round"/>
<path d="M100.86 267.51L105.31 267.09" stroke="#263238" stroke-linecap="round" stroke-linejoin="round"/>
<path d="M88.31 268.67L97.37 267.83" stroke="#263238" stroke-linecap="round" stroke-linejoin="round"/>
<path d="M104.06 239.84C100.01 232.37 94.35 222.58 92.4 222.38" stroke="#263238" stroke-linecap="round" stroke-linejoin="round"/>
<path d="M108.46 248.2C108.46 248.2 107.57 246.44 106.2 243.84" stroke="#263238" stroke-linecap="round" stroke-linejoin="round"/>
<path d="M94.29 236.55L106.26 248.2" stroke="#263238" stroke-linecap="round" stroke-linejoin="round"/>
<path d="M81.76 276.16L87.33 289.16L109.82 277.19L108.79 267.7L81.76 276.16Z" fill="#4CB2E0" stroke="#263238" stroke-linecap="round" stroke-linejoin="round"/>
<path d="M161.59 274.17C161.59 274.17 164.47 274.3 165.78 274.04C167.09 273.78 169.97 272.73 169.84 273.91C169.71 275.09 168.92 275.87 167.88 276.4C166.83 276.92 161.86 278.1 161.86 278.1L161.6 274.17H161.59Z" fill="white" stroke="#263238" stroke-linecap="round" stroke-linejoin="round"/>
<path d="M108.38 278.02L140.78 280.5C140.78 280.5 154.4 269.98 156.26 269.15C158.12 268.32 164.72 268.32 164.72 268.32L173.39 270.18C173.39 270.18 172.56 271.62 170.09 272.04C167.62 272.46 166.38 271.21 166.38 271.21L158.54 272.65C158.54 272.65 164.32 275.13 164.94 275.54C165.56 275.95 163.7 279.87 163.29 281.32C162.88 282.76 161.44 287.89 160.4 286.07C160.04 285.44 160.19 284.66 160.04 283.74C159.89 282.81 158.75 282.57 158.75 282.57C158.75 282.57 155.04 285.67 151.94 287.11C148.84 288.55 143.07 288.35 143.07 288.35C143.07 288.35 109.85 294.33 102.63 294.54C95.41 294.75 94.58 291.65 92.73 290.21C90.87 288.77 90.67 287.53 90.67 287.53L108.42 278.04L108.38 278.02Z" fill="white" stroke="#263238" stroke-linecap="round" stroke-linejoin="round"/>
<path d="M157.53 275.35C157.53 275.35 163.29 276.4 163.81 278.1" stroke="#263238" stroke-linecap="round" stroke-linejoin="round"/>
<path d="M156.22 278.49C156.22 278.49 162.11 279.41 162.5 279.93C162.89 280.45 163.26 281.31 163.26 281.31" stroke="#263238" stroke-linecap="round" stroke-linejoin="round"/>
<path d="M182.04 246.86L156.04 299.69C156.04 299.69 165.74 299.9 178.74 298.04C191.74 296.18 197.31 294.12 197.31 294.12L224.34 250.99C224.34 250.99 213.61 253.88 182.04 246.86Z" fill="white" stroke="#263238" stroke-linecap="round" stroke-linejoin="round"/>
<path d="M210.31 277.75C210.31 277.75 198.15 278.95 198.49 280.01C198.83 281.06 210.65 281.21 211.17 280.46C211.69 279.71 211.68 277.15 210.31 277.75Z" fill="white" stroke="#263238" stroke-linecap="round" stroke-linejoin="round"/>
<path d="M208.11 281.21C208.11 281.21 197.14 282.41 197.44 283.47C197.75 284.52 208.41 284.67 208.88 283.92C209.34 283.17 209.34 280.61 208.11 281.21Z" fill="white" stroke="#263238" stroke-linecap="round" stroke-linejoin="round"/>
<path d="M205.8 287.55C205.8 287.55 197.21 286.79 197.25 287.76C197.29 288.73 205.37 290.64 205.87 290.05C206.37 289.46 206.86 287.22 205.8 287.54V287.55Z" fill="white" stroke="#263238" stroke-linecap="round" stroke-linejoin="round"/>
<path d="M207.07 285.25C207.07 285.25 196.09 284.09 196.17 285.18C196.25 286.27 206.64 288.69 207.25 288.06C207.86 287.43 208.41 284.93 207.07 285.25Z" fill="white" stroke="#263238" stroke-linecap="round" stroke-linejoin="round"/>
<path d="M94.55 315.78C94.55 315.78 125.71 305.88 147.58 303.81" stroke="#8A8A8A" stroke-linecap="round" stroke-linejoin="round"/>
<path d="M66.35 363.65C66.35 363.65 53.91 320.22 54.85 319.28C55.79 318.34 115.65 324.44 124.34 329.14C133.03 333.83 143.12 363.65 143.12 363.65H66.35Z" fill="#696969" stroke="#263238" stroke-linecap="round" stroke-linejoin="round"/>
<path d="M138.9 231.55L146.44 217.16L140.27 212.02L138.9 231.55Z" fill="#4CB2E0" stroke="#263238" stroke-linecap="round" stroke-linejoin="round"/>
<path d="M127.25 194.37L124.68 211.16L138.39 235.66C138.39 235.66 141.82 214.76 142.5 211.84C143.19 208.93 144.04 207.56 144.04 207.56L128.1 192.31L127.24 194.37H127.25Z" fill="white" stroke="#263238" stroke-linecap="round" stroke-linejoin="round"/>
<path d="M132.22 214.25L125.88 232.41L119.19 208.42L122.79 202.59L132.22 214.25Z" fill="#4CB2E0" stroke="#263238" stroke-linecap="round" stroke-linejoin="round"/>
<path d="M132.22 214.25L135.47 229.84L129.47 222.3L132.22 214.25Z" fill="#263238" stroke="#263238" stroke-linecap="round" stroke-linejoin="round"/>
<path d="M146.44 217.16L146.61 230.52L142.32 225.73L146.44 217.16Z" fill="#263238" stroke="#263238" stroke-linecap="round" stroke-linejoin="round"/>
<path d="M152.88 164.99C152.88 164.99 148.91 171.06 141.29 174.49C133.67 177.91 128.92 179.24 128.92 179.24C128.92 179.24 130.24 182.88 127.82 183.33C125.39 183.77 124.62 181.56 123.84 181.34C123.07 181.12 119.64 180.9 118.43 185.54C117.22 190.18 123.29 197.46 127.59 196.14C127.59 196.14 129.3 202.37 131.18 203.97C133.58 206.03 141.46 212.02 151.11 210.38C156.76 209.42 159.72 197.46 159.94 193.49C160.16 189.51 160.38 184.77 159.83 182.23C159.28 179.69 162.26 176.38 158.39 171.74C154.52 167.1 152.87 165 152.87 165L152.88 164.99Z" fill="white" stroke="#263238" stroke-linecap="round" stroke-linejoin="round"/>
<path d="M152.88 179.79C152.88 179.79 150.89 186.3 150.89 187.52C150.89 188.74 154.42 192.93 153.87 193.59C153.32 194.25 149.56 196.79 148.35 196.35" stroke="#263238" stroke-linecap="round" stroke-linejoin="round"/>
<path d="M140.3 198.01C140.3 198.01 143.5 201.65 149.91 200.33" stroke="#263238" stroke-linecap="round" stroke-linejoin="round"/>
<path d="M146.15 179.9C146.15 179.9 141.95 177.8 137.21 181.34" stroke="#263238" stroke-linecap="round" stroke-linejoin="round"/>
<path d="M154.32 179.24C154.32 179.24 157.3 177.25 159.07 178.58" stroke="#263238" stroke-linecap="round" stroke-linejoin="round"/>
<path d="M144.22 185.86C144.22 187.08 143.75 188.07 143.17 188.07C142.59 188.07 142.12 187.08 142.12 185.86C142.12 184.64 142.59 183.65 143.17 183.65C143.75 183.65 144.22 184.64 144.22 185.86Z" fill="#263238"/>
<path d="M156.42 185.31C156.42 186.53 155.95 187.52 155.37 187.52C154.79 187.52 154.32 186.53 154.32 185.31C154.32 184.09 154.79 183.1 155.37 183.1C155.95 183.1 156.42 184.09 156.42 185.31Z" fill="#263238"/>
</g>
<defs>
<clipPath id="clip0_21_5436">
<rect width="483.26" height="468.36" fill="white"/>
</clipPath>
</defs>
</svg>
