<svg width="487" height="438" viewBox="0 0 487 438" fill="none" xmlns="http://www.w3.org/2000/svg">
<g clip-path="url(#clip0_34_485)">
<path d="M472.18 267.72C456.77 309 425.28 353.68 380.96 366.91C314 386.9 306 440.88 186.07 435.87C167.37 435.09 150.09 432.46 134.21 428.26C125.67 426 117.54 423.28 109.83 420.15C39.77 391.78 3.22 329.32 0.190002 263.97C-3.81 178.02 56.16 137.05 95.13 113.07C134.11 89.0798 181.08 -3.87023 299.02 0.119773C317 0.739773 334.94 3.18977 352.33 7.90977C392.01 18.6498 432.35 42.4098 455.8 77.1298C457.56 79.7398 459.24 82.4098 460.85 85.1298C492.22 138.35 493.21 211.44 472.2 267.72H472.18Z" fill="#4CB2E0"/>
<path opacity="0.7" d="M472.18 267.72C456.77 309 425.28 353.68 380.96 366.91C314 386.9 306 440.88 186.07 435.87C167.37 435.09 150.09 432.46 134.21 428.26C125.67 426 117.54 423.28 109.83 420.15C39.77 391.78 3.22 329.32 0.190002 263.97C-3.81 178.02 56.16 137.05 95.13 113.07C134.11 89.0798 181.08 -3.87023 299.02 0.119773C317 0.739773 334.94 3.18977 352.33 7.90977C392.01 18.6498 432.35 42.4098 455.8 77.1298C457.56 79.7398 459.24 82.4098 460.85 85.1298C492.22 138.35 493.21 211.44 472.2 267.72H472.18Z" fill="white"/>
<g opacity="0.3">
<path d="M413.74 53.83C413.74 53.83 399.03 18.12 358.42 16.72C317.8 15.32 319.21 37.03 310.1 43.33C301 49.63 292.59 34.23 278.59 39.13C264.58 44.03 266.69 49.63 260.38 55.24C254.08 60.84 240.77 54.54 235.17 58.74C229.57 62.94 225.37 68.54 225.37 68.54C225.37 68.54 215.57 65.04 211.36 68.54L207.16 72.04H450.15C450.15 72.04 448.75 59.44 437.55 55.23C426.35 51.03 421.44 56.63 413.74 53.83Z" stroke="black" stroke-linecap="round" stroke-linejoin="round"/>
<path d="M146.13 170.63C146.13 170.63 136.47 147.16 109.78 146.24C83.09 145.32 84.01 159.58 78.03 163.72C72.05 167.86 66.53 157.74 57.32 160.96C48.12 164.18 49.5 167.86 45.36 171.54C41.22 175.22 32.48 171.08 28.8 173.84C25.12 176.6 22.36 180.28 22.36 180.28C22.36 180.28 15.92 177.98 13.16 180.28L10.4 182.58H170.05C170.05 182.58 169.13 174.3 161.77 171.54C154.41 168.78 151.19 172.46 146.13 170.62V170.63Z" stroke="black" stroke-linecap="round" stroke-linejoin="round"/>
<path d="M431.83 273.57C431.83 273.57 422.17 250.1 395.48 249.18C368.79 248.26 369.71 262.52 363.73 266.66C357.75 270.8 352.23 260.68 343.02 263.9C333.82 267.12 335.2 270.8 331.06 274.48C326.92 278.16 318.18 274.02 314.5 276.78C310.82 279.54 308.06 283.22 308.06 283.22C308.06 283.22 301.62 280.92 298.86 283.22L296.1 285.52H455.76C455.76 285.52 454.84 277.24 447.48 274.48C440.12 271.72 436.9 275.4 431.84 273.56L431.83 273.57Z" stroke="black" stroke-linecap="round" stroke-linejoin="round"/>
</g>
<path d="M381.49 243.23C381.49 243.23 378.72 250.85 372.83 251.89C366.94 252.93 356.55 241.5 363.13 235.62C369.71 229.73 378.71 239.08 381.48 243.24L381.49 243.23Z" fill="#4CB2E0" stroke="#263238" stroke-linecap="round" stroke-linejoin="round"/>
<path d="M390.49 205.84C390.49 205.84 381.83 226.96 385.3 237.35C388.76 247.74 410.23 255.36 416.47 241.85C422.7 228.35 408.85 209.3 403.66 205.14C398.47 200.98 392.23 202.37 390.5 205.83L390.49 205.84Z" fill="#4CB2E0" stroke="#263238" stroke-linecap="round" stroke-linejoin="round"/>
<path d="M441.05 214.84C441.05 214.84 426.16 228.34 424.43 241.85C422.7 255.35 432.74 260.2 443.13 258.47C453.52 256.74 458.71 230.42 455.6 218.3C452.48 206.18 441.06 214.84 441.06 214.84H441.05Z" fill="#4CB2E0" stroke="#263238" stroke-linecap="round" stroke-linejoin="round"/>
<path d="M443.82 289.63C443.82 289.63 427.2 290.32 426.51 298.29C425.82 306.26 433.78 307.99 441.75 301.06C449.71 294.13 450.75 289.98 443.83 289.63H443.82Z" fill="#4CB2E0" stroke="#263238" stroke-linecap="round" stroke-linejoin="round"/>
<path d="M426.78 300.19C426.78 300.19 439.88 294.2 445.78 293.16" stroke="#263238" stroke-miterlimit="10"/>
<path d="M447.52 341.75C447.52 341.75 435.31 330.45 429.17 335.57C423.03 340.69 427.42 347.56 437.95 348.33C448.48 349.1 452.16 346.9 447.52 341.75Z" fill="#4CB2E0" stroke="#263238" stroke-linecap="round" stroke-linejoin="round"/>
<path d="M428.02 337.11C428.02 337.11 441.51 342.18 446.4 345.63" stroke="#263238" stroke-miterlimit="10"/>
<path d="M383.12 338.42C383.12 338.42 399.95 322.84 408.41 329.91C416.87 336.97 410.82 346.44 396.31 347.5C381.8 348.56 376.73 345.53 383.12 338.43V338.42Z" fill="#4CB2E0" stroke="#263238" stroke-linecap="round" stroke-linejoin="round"/>
<path d="M410 332.02C410 332.02 391.41 339 384.66 343.76" stroke="#263238" stroke-miterlimit="10"/>
<path d="M402.61 306.26C402.61 306.26 400.88 314.57 394.65 317.69C388.42 320.81 377.34 314.23 383.22 304.19C389.11 294.15 399.5 302.11 402.61 306.27V306.26Z" fill="#4CB2E0" stroke="#263238" stroke-linecap="round" stroke-linejoin="round"/>
<path d="M388.07 280.29C388.07 280.29 384.95 273.36 372.83 277.87C360.71 282.37 355.86 289.3 363.48 291.72C371.1 294.14 388.07 280.29 388.07 280.29Z" fill="#4CB2E0" stroke="#263238" stroke-linecap="round" stroke-linejoin="round"/>
<path d="M385.74 279.97C385.74 279.97 372.9 281.36 365.96 287.26" stroke="#263238" stroke-miterlimit="10"/>
<path d="M422.69 197.18C422.69 197.18 424.77 202.03 428.92 200.99C433.08 199.95 434.11 193.72 440.69 195.45C447.27 197.18 452.81 204.8 452.81 201.34C452.81 197.88 444.5 188.87 435.15 188.87C425.8 188.87 423.03 192.68 422.68 197.18H422.69Z" fill="#4CB2E0" stroke="#263238" stroke-linecap="round" stroke-linejoin="round"/>
<path d="M388.07 280.29C388.07 280.29 402.98 277.43 409.19 293.99C409.8 295.61 410.31 297.31 410.75 299.06" stroke="#263238" stroke-miterlimit="10"/>
<path d="M450.29 264.24C450.29 264.24 453.41 257.31 465.53 261.82C477.65 266.32 482.5 273.25 474.88 275.67C467.26 278.09 450.29 264.24 450.29 264.24Z" fill="#4CB2E0" stroke="#263238" stroke-linecap="round" stroke-linejoin="round"/>
<path d="M453.06 264.7C453.06 264.7 465.55 264.01 471.45 271.29" stroke="#263238" stroke-miterlimit="10"/>
<path d="M450.29 264.24C450.29 264.24 445.35 263.29 439.97 265.65" stroke="#263238" stroke-miterlimit="10"/>
<path d="M396.01 251.82C388.7 244.36 381.48 243.23 381.48 243.23C381.48 243.23 370.82 240.41 366.65 244.23" stroke="#263238" stroke-miterlimit="10"/>
<path d="M397.5 213.46L396.85 210.57" stroke="#263238" stroke-miterlimit="10"/>
<path d="M414.36 366.551C414.36 366.551 415.91 306.921 414.36 288.811C412.81 270.701 405.56 249.491 405.56 249.491L398.18 216.541" stroke="#263238" stroke-miterlimit="10"/>
<path d="M445.14 226.27L446.47 223.41" stroke="#263238" stroke-miterlimit="10"/>
<path d="M417.98 366.48C417.98 366.48 418.5 312.09 420.57 296.56C422.64 281.04 430.92 256.72 430.92 256.72L443.62 229.5" stroke="#263238" stroke-miterlimit="10"/>
<path d="M426.78 300.19C426.78 300.19 423.16 331.37 421.09 366.56" stroke="#263238" stroke-miterlimit="10"/>
<path d="M409.18 366.48C409.18 366.48 410.21 316.74 408.15 310.02C406.08 303.29 402.61 306.26 402.61 306.26C402.61 306.26 393.03 307.39 389.56 312.94" stroke="#263238" stroke-miterlimit="10"/>
<path d="M411.56 302.92C414.27 318.09 411.77 366.53 411.77 366.53" stroke="#263238" stroke-miterlimit="10"/>
<path d="M437.04 267.28C434.04 269.33 431.16 272.64 429.18 277.94C422.97 294.5 423.68 366.56 423.68 366.56" stroke="#263238" stroke-miterlimit="10"/>
<path d="M397.82 253.8C401.05 257.6 404.19 262.73 406.6 269.66C414.88 293.46 417.98 355.1 416.43 366.48" stroke="#263238" stroke-miterlimit="10"/>
<path d="M418.84 276.07C418.34 306.11 417.98 366.48 417.98 366.48" stroke="#263238" stroke-miterlimit="10"/>
<path d="M418.91 272.33C419.25 252.47 419.65 233.03 420.06 222.57C421.09 195.66 422.7 197.17 422.7 197.17C422.7 197.17 424.62 191.13 435.37 191.82" stroke="#263238" stroke-miterlimit="10"/>
<path d="M405.65 295.02C405.65 295.02 396.99 287.3 400.46 283.5C403.92 279.7 425.39 276.92 431.63 281.85C437.86 286.79 424.01 293.75 418.82 295.26C413.63 296.78 407.39 296.27 405.66 295.01L405.65 295.02Z" fill="#4CB2E0" stroke="#263238" stroke-linecap="round" stroke-linejoin="round"/>
<path d="M413.65 288.7C413.53 289.48 413.46 290.26 413.46 291.01" stroke="#263238" stroke-miterlimit="10"/>
<path d="M416.63 279.68C416.63 279.68 415.34 282.26 414.41 285.41" stroke="#263238" stroke-miterlimit="10"/>
<path d="M405.65 345.49C405.65 345.49 396.99 337.77 400.46 333.97C403.92 330.17 425.39 327.39 431.63 332.32C437.86 337.26 424.01 344.22 418.82 345.73C413.63 347.25 407.39 346.74 405.66 345.48L405.65 345.49Z" fill="#4CB2E0" stroke="#263238" stroke-linecap="round" stroke-linejoin="round"/>
<path d="M416.63 330.16C416.63 330.16 413.46 336.5 413.46 341.48" stroke="#263238" stroke-miterlimit="10"/>
<path d="M412.1 324.14C412.1 324.14 406.22 318.9 408.57 316.32C410.92 313.74 425.5 311.85 429.73 315.2C433.96 318.55 424.56 323.28 421.03 324.31C417.5 325.34 413.27 325 412.1 324.14Z" fill="#4CB2E0" stroke="#263238" stroke-linecap="round" stroke-linejoin="round"/>
<path d="M419.55 313.73C419.55 313.73 417.4 318.03 417.4 321.41" stroke="#263238" stroke-miterlimit="10"/>
<path d="M427.4 357.9H403.97V409.86H427.4V357.9Z" fill="#263238" stroke="#263238" stroke-linecap="round" stroke-linejoin="round"/>
<path d="M260.545 302.411C276.275 299.336 285.831 280.498 281.89 260.334C277.949 240.171 262.002 226.318 246.273 229.392C230.543 232.467 220.987 251.305 224.928 271.469C228.869 291.632 244.816 305.485 260.545 302.411Z" fill="#4CB2E0" stroke="#263238" stroke-miterlimit="10"/>
<path d="M115.48 230.85C115.48 230.85 92.36 195.14 65.42 200.92C47.48 204.77 58.02 238.91 58.02 238.91" fill="#4CB2E0"/>
<path d="M115.48 230.85C115.48 230.85 92.36 195.14 65.42 200.92C47.48 204.77 58.02 238.91 58.02 238.91" stroke="#263238" stroke-miterlimit="10"/>
<path d="M64.04 242.26C64.04 242.26 63.99 242.27 63.96 242.27L62.31 241.85C62.31 241.85 52 210.54 67.02 210.93C79.69 211.26 96.74 240.5 101.74 249.61C91.98 242.8 78.39 239.75 64.04 242.25V242.26Z" fill="#263238" stroke="#263238" stroke-miterlimit="10"/>
<path d="M175.64 394.71L181.96 422.59C183.93 431.26 191.63 437.41 200.52 437.41C209.41 437.41 217.12 431.26 219.08 422.59L230.21 373.52" fill="#263238"/>
<path d="M175.64 394.71L181.96 422.59C183.93 431.26 191.63 437.41 200.52 437.41C209.41 437.41 217.12 431.26 219.08 422.59L230.21 373.52" stroke="#263238" stroke-miterlimit="10"/>
<path d="M79.06 394.71L85.4 422.69C87.35 431.3 95.01 437.42 103.84 437.42C112.76 437.42 120.47 431.18 122.33 422.46L128.66 392.79" fill="#263238"/>
<path d="M79.06 394.71L85.4 422.69C87.35 431.3 95.01 437.42 103.84 437.42C112.76 437.42 120.47 431.18 122.33 422.46L128.66 392.79" stroke="#263238" stroke-miterlimit="10"/>
<path d="M23.36 311.32C23.36 345.37 41.38 375.88 69.82 396.41C93.02 413.17 123.15 423.29 156.09 423.29C229.39 423.29 288.81 373.16 288.81 311.32C288.81 249.48 229.39 199.35 156.09 199.35C82.79 199.35 23.36 249.48 23.36 311.32Z" fill="#4CB2E0" stroke="#263238" stroke-miterlimit="10"/>
<path d="M103.62 243.68C103.62 247.42 101.8 250.45 99.56 250.45C97.32 250.45 95.5 247.42 95.5 243.68C95.5 239.94 97.32 236.91 99.56 236.91C101.8 236.91 103.62 239.94 103.62 243.68Z" fill="#263238" stroke="#263238" stroke-miterlimit="10"/>
<path d="M90.66 242.53C90.66 242.53 95.22 233.22 102.52 239.06" stroke="#263238" stroke-miterlimit="10"/>
<path d="M70.59 244.05C70.59 247.79 68.77 250.82 66.53 250.82C64.29 250.82 62.47 247.79 62.47 244.05C62.47 240.31 64.29 237.28 66.53 237.28C68.77 237.28 70.59 240.31 70.59 244.05Z" fill="#263238" stroke="#263238" stroke-miterlimit="10"/>
<path d="M57.64 242.9C57.64 242.9 62.2 233.59 69.5 239.43" stroke="#263238" stroke-miterlimit="10"/>
<path d="M67.54 323.2C67.54 323.2 87.31 323.65 93.6 301.19L67.54 323.2Z" fill="#4CB2E0"/>
<path d="M67.54 323.2C67.54 323.2 87.31 323.65 93.6 301.19" stroke="#263238" stroke-miterlimit="10"/>
<path d="M81 260.94C74.71 258.99 65.39 256.44 56.39 255.3L81 260.94Z" fill="#4CB2E0"/>
<path d="M81 260.94C74.71 258.99 65.39 256.44 56.39 255.3" stroke="#263238" stroke-miterlimit="10"/>
<path d="M88.63 263.49C88.63 263.49 87.05 262.9 84.41 262.03L88.63 263.49Z" fill="#4CB2E0"/>
<path d="M88.63 263.49C88.63 263.49 87.05 262.9 84.41 262.03" stroke="#263238" stroke-miterlimit="10"/>
<path d="M47.75 365.78C54.8 375.74 63.73 384.65 74.13 392.16C81.01 397.13 88.54 401.49 96.59 405.13" stroke="#263238" stroke-miterlimit="10"/>
<path d="M33.36 335.85C35.05 341.88 37.34 347.71 40.19 353.3L33.36 335.85Z" fill="white"/>
<path d="M33.36 335.85C35.05 341.88 37.34 347.71 40.19 353.3" stroke="#263238" stroke-miterlimit="10"/>
<path d="M262.38 254.1C258.21 248.59 253.45 243.43 248.18 238.68" stroke="#263238" stroke-miterlimit="10"/>
<path d="M268.7 359.2C277.31 344.81 282.16 328.54 282.16 311.32C282.16 294.1 277.3 277.81 268.68 263.41" stroke="#263238" stroke-miterlimit="10"/>
<path d="M96.59 405.13C114.31 413.14 134.57 417.69 156.08 417.69C180.69 417.69 203.65 411.74 223.06 401.46" stroke="#263238" stroke-miterlimit="10"/>
<path d="M128.73 204.38C131.37 205.31 133.48 206.2 135.14 207.02C136.41 207.65 137.44 208.23 138.23 208.72C139.91 208.52 141.6 208.34 143.3 208.21C147.5 207.84 151.77 207.66 156.08 207.66C175.46 207.66 193.84 211.34 210.36 217.94C213.24 219.09 216.05 220.33 218.82 221.66C213.54 216.12 207.63 212.09 202.91 209.42C188.39 204.55 172.6 201.87 156.08 201.87C146.7 201.87 137.56 202.74 128.73 204.38Z" fill="#808080" stroke="#263238" stroke-miterlimit="10"/>
<path d="M135.14 207.02L143.3 208.21C147.5 207.84 151.77 207.66 156.08 207.66C175.46 207.66 193.84 211.34 210.36 217.94C207.73 216.01 205.19 214.4 202.91 213.1C188.39 208.24 172.6 205.55 156.08 205.55C148.96 205.55 141.97 206.06 135.14 207.02Z" fill="#263238" stroke="#263238" stroke-miterlimit="10"/>
<path d="M46.39 319.77C64.6264 319.77 79.41 304.987 79.41 286.75C79.41 268.514 64.6264 253.73 46.39 253.73C28.1536 253.73 13.37 268.514 13.37 286.75C13.37 304.987 28.1536 319.77 46.39 319.77Z" fill="#4CB2E0" stroke="#263238" stroke-miterlimit="10"/>
<path d="M55.92 298.72C59.7584 298.72 62.87 293.585 62.87 287.25C62.87 280.916 59.7584 275.78 55.92 275.78C52.0816 275.78 48.97 280.916 48.97 287.25C48.97 293.585 52.0816 298.72 55.92 298.72Z" fill="#263238" stroke="#263238" stroke-miterlimit="10"/>
<path d="M31.03 296.93C34.8684 296.93 37.98 291.795 37.98 285.46C37.98 279.126 34.8684 273.99 31.03 273.99C27.1916 273.99 24.08 279.126 24.08 285.46C24.08 291.795 27.1916 296.93 31.03 296.93Z" fill="#263238" stroke="#263238" stroke-miterlimit="10"/>
<path d="M207.67 394.71L213.99 422.59C215.96 431.26 223.66 437.41 232.55 437.41C241.44 437.41 249.15 431.26 251.11 422.59L262.24 373.52" fill="#4CB2E0"/>
<path d="M207.67 394.71L213.99 422.59C215.96 431.26 223.66 437.41 232.55 437.41C241.44 437.41 249.15 431.26 251.11 422.59L262.24 373.52" stroke="#263238" stroke-miterlimit="10"/>
<path d="M113.06 394.71L119.4 422.69C121.35 431.3 129.01 437.42 137.84 437.42C146.76 437.42 154.47 431.18 156.33 422.46L162.66 392.79" fill="#4CB2E0"/>
<path d="M113.06 394.71L119.4 422.69C121.35 431.3 129.01 437.42 137.84 437.42C146.76 437.42 154.47 431.18 156.33 422.46L162.66 392.79" stroke="#263238" stroke-miterlimit="10"/>
<path d="M168.36 249.11C168.36 249.11 165.02 207.69 136.62 195.99C117.71 188.2 110 220.88 110 220.88" fill="#4CB2E0"/>
<path d="M168.36 249.11C168.36 249.11 165.02 207.69 136.62 195.99C117.71 188.2 110 220.88 110 220.88" stroke="#263238" stroke-miterlimit="10"/>
<path d="M113.95 227.07C113.95 227.07 113.9 227.05 113.87 227.04L112.53 225.72C112.53 225.72 119 195.37 132.95 204.68C144.73 212.53 145.69 245.33 145.7 255.36C140.01 244.25 128.78 233.75 113.95 227.08V227.07Z" fill="#263238" stroke="#263238" stroke-miterlimit="10"/>
<path d="M209.29 294.19C209.29 294.19 206.11 295.74 201.62 298.3C197.13 300.87 194.4 301.67 194.88 302.95C195.36 304.23 198.73 304.55 204.51 304.72C210.29 304.88 214.3 303.44 214.94 303.44C215.58 303.44 220.24 303.6 222 302.96C223.77 302.32 222.48 297.5 222.48 297.5C222.48 297.5 211.98 293.12 209.29 294.19Z" fill="white" stroke="#263238" stroke-linecap="round" stroke-linejoin="round"/>
<path d="M245.33 294.19C245.33 294.19 242.15 295.74 237.66 298.3C233.17 300.87 230.44 301.67 230.92 302.95C231.4 304.23 234.77 304.55 240.55 304.72C246.33 304.88 250.34 303.44 250.98 303.44C251.62 303.44 256.28 303.6 258.04 302.96C259.81 302.32 258.52 297.5 258.52 297.5C258.52 297.5 248.02 293.12 245.33 294.19Z" fill="white" stroke="#263238" stroke-linecap="round" stroke-linejoin="round"/>
<path d="M261.96 173.68C261.96 173.68 266.01 182.53 265.79 191.39C265.57 200.25 256.71 236.15 257.15 240.58C257.59 245.01 261.58 248.56 261.14 259.19C260.7 269.82 257.82 286.25 257.82 286.25C257.82 286.25 259.51 291.66 259.06 293.21C258.62 294.76 258.85 298.79 258.85 298.79C258.85 298.79 255.93 296.65 253.27 296.65C250.61 296.65 243.62 295.17 243.62 294.51C243.62 293.85 246.08 287.59 246.08 287.59L246.3 282.49C246.3 282.49 242.09 246.56 241.2 239.25C240.31 231.94 236.99 197.15 236.99 197.15C236.99 197.15 229.46 241.02 229.24 242.57C229.02 244.12 230.35 253.2 227.91 259.85C225.47 266.5 223.92 282.67 223.92 286.21C223.92 289.75 223.03 299.06 223.03 299.06C223.03 299.06 218.6 299.06 216.16 297.95C213.72 296.84 211.95 295.07 211.29 294.85C210.63 294.63 209.3 294.19 209.3 294.19C209.3 294.19 209.52 292.42 209.96 290.87C210.4 289.32 212.18 286.22 212.18 286.22L212.84 256.53C212.84 256.53 212.4 240.14 212.84 237.48C213.28 234.82 213.06 232.16 213.06 231.28C213.06 230.4 213.06 197.38 214.17 190.29C215.28 183.2 215.59 174.04 215.59 174.04L258.93 169.03L261.97 173.7L261.96 173.68Z" fill="#263238" stroke="#263238" stroke-linecap="round" stroke-linejoin="round"/>
<path d="M259.86 166.88L261.95 173.68C261.95 173.68 247.78 183.11 234.18 183.81C220.58 184.51 216.22 181.22 215.18 180.35C214.14 179.48 215.58 174.03 215.58 174.03C215.58 174.03 230.75 175.6 238.59 173.68C246.43 171.76 259.86 166.88 259.86 166.88Z" fill="#4CB2E0" stroke="#263238" stroke-linecap="round" stroke-linejoin="round"/>
<path d="M241.96 102.66C241.96 102.66 256.73 106.63 257.68 108.22C258.63 109.81 253.99 144.7 253.32 147.37C252.65 150.04 254.66 158.4 255.99 160.24C257.33 162.08 261.17 164.08 261.17 167.26C261.17 170.44 239.61 178.29 231.92 178.29C224.23 178.29 215.67 177 214.83 176.17C213.99 175.33 214.7 172.44 214.7 171.77C214.7 171.1 214.87 152.21 214.87 152.21C214.87 152.21 210.52 147.03 209.52 140.84C208.52 134.65 209.88 126.79 209.88 126.79C209.88 126.79 208.61 115.51 209.72 111.23C210.83 106.94 219.25 103.92 219.25 103.92C219.25 103.92 227.51 100.43 241.96 102.65V102.66Z" fill="#4CB2E0" stroke="#263238" stroke-linecap="round" stroke-linejoin="round"/>
<path d="M229.73 149.97C228.26 149.23 226.44 148.07 224.38 146.24" stroke="#263238" stroke-linecap="round" stroke-linejoin="round"/>
<path d="M233.62 151.24C233.62 151.24 232.93 151.21 231.71 150.8" stroke="#263238" stroke-linecap="round" stroke-linejoin="round"/>
<path d="M216.43 102.69C216.43 102.69 214.81 107.32 216 109.47C217.18 111.62 221.71 111.95 221.71 111.95C221.71 111.95 221.28 110.66 222.25 108.29C223.22 105.92 224.83 102.15 224.83 102.15L216.43 102.69Z" fill="#263238" stroke="#263238" stroke-linecap="round" stroke-linejoin="round"/>
<path d="M205.77 87.61C205.77 87.61 205.99 91.27 206.63 92.13C207.28 92.99 209.11 92.13 209.43 94.5C209.75 96.87 209.86 100.85 210.72 101.18C211.58 101.5 213.95 101.07 213.95 101.07C213.95 101.07 217.93 104.73 219.12 105.27C220.3 105.81 220.63 105.92 221.49 105.27C222.35 104.62 224.61 102.9 224.61 102.9C224.61 102.9 222.89 107.85 223.53 109.36C224.18 110.87 226.55 113.34 229.24 110.87C231.93 108.4 233.55 102.79 233.55 102.79L226.44 82.65L206.95 78.02C206.95 78.02 204.8 86.1 205.77 87.6V87.61Z" fill="white" stroke="#263238" stroke-linecap="round" stroke-linejoin="round"/>
<path d="M225.48 86C225.48 86 228.93 101.18 229.79 106.89C230.65 112.6 229.14 114.86 229.14 114.86C229.14 114.86 237.76 114.32 240.77 109.04C243.78 103.76 246.37 100.86 244.65 95.79C242.93 90.73 238.19 74.68 233.67 69.19C229.15 63.7 219.13 62.41 215.36 63.05C211.59 63.7 207.28 68.65 205.34 72.31C203.4 75.97 202.11 83.29 200.82 84.05C199.53 84.81 198.34 86.63 200.28 87.17C202.22 87.71 205.77 87.6 205.77 87.6C205.77 87.6 205.99 84.15 206.52 82.54C207.06 80.92 207.49 79.96 207.49 79.96C207.49 79.96 208.14 81.79 215.35 83.94C222.57 86.09 225.26 85.02 225.26 85.02L225.48 85.99V86Z" fill="#263238" stroke="#263238" stroke-linecap="round" stroke-linejoin="round"/>
<path d="M207.49 79.9702C207.49 79.9702 214.27 89.2302 226.01 87.1902" stroke="#263238" stroke-linecap="round" stroke-linejoin="round"/>
<path d="M210.4 90.7401C210.4 90.7401 212.02 88.1601 214.71 89.2301" stroke="#263238" stroke-linecap="round" stroke-linejoin="round"/>
<path d="M218.8 97.3101C218.8 97.3101 219.02 98.9301 217.72 99.8901" stroke="#263238" stroke-linecap="round" stroke-linejoin="round"/>
<path d="M213.03 93.4899C213.29 94.2199 213.85 94.6799 214.27 94.5299C214.69 94.3799 214.82 93.6699 214.55 92.9399C214.29 92.2099 213.73 91.7499 213.31 91.8999C212.89 92.0499 212.76 92.7599 213.03 93.4899Z" fill="#263238"/>
<path d="M224.62 102.91L227.31 100.11L225.48 107.97L224.62 102.91Z" fill="#263238" stroke="#263238" stroke-linecap="round" stroke-linejoin="round"/>
<path d="M167.46 129.71C167.46 129.71 166.33 128.91 165.69 127.78C165.05 126.65 164.08 128.42 164.24 129.55C164.4 130.68 165.53 132.28 165.53 132.28L167.46 129.71Z" fill="white" stroke="#263238" stroke-linecap="round" stroke-linejoin="round"/>
<path d="M233.318 167.661C236.978 145.404 221.904 124.395 199.647 120.734C177.391 117.073 156.381 132.148 152.721 154.405C149.06 176.661 164.135 197.671 186.391 201.331C208.648 204.992 229.657 189.917 233.318 167.661Z" fill="#858585" stroke="#263238" stroke-linecap="round" stroke-linejoin="round"/>
<path d="M228.272 165.895C231.469 146.417 218.27 128.036 198.792 124.839C179.314 121.642 160.933 134.841 157.736 154.319C154.539 173.797 167.738 192.179 187.216 195.375C206.694 198.572 225.076 185.373 228.272 165.895Z" fill="white" stroke="#263238" stroke-linecap="round" stroke-linejoin="round"/>
<path d="M178.84 166.97L193.01 161.03V193.74" stroke="#263238" stroke-linecap="round" stroke-linejoin="round"/>
<path d="M193.01 162.32C194.231 162.32 195.22 161.33 195.22 160.11C195.22 158.889 194.231 157.9 193.01 157.9C191.789 157.9 190.8 158.889 190.8 160.11C190.8 161.33 191.789 162.32 193.01 162.32Z" fill="#858585" stroke="#263238" stroke-linecap="round" stroke-linejoin="round"/>
<path d="M248.79 106C248.79 106 257.84 106.64 259.59 107.91C261.34 109.18 273.05 144.04 273.72 148.55C274.39 153.06 272.88 153.57 272.05 153.57C271.22 153.57 251.66 159.92 249.31 160.42C246.97 160.92 246.47 160.59 245.63 159.92C244.79 159.25 240.78 154.4 241.95 151.56C243.12 148.72 245.13 148.22 245.13 148.22L257.83 143.54L247.83 125.7" fill="#4CB2E0"/>
<path d="M248.79 106C248.79 106 257.84 106.64 259.59 107.91C261.34 109.18 273.05 144.04 273.72 148.55C274.39 153.06 272.88 153.57 272.05 153.57C271.22 153.57 251.66 159.92 249.31 160.42C246.97 160.92 246.47 160.59 245.63 159.92C244.79 159.25 240.78 154.4 241.95 151.56C243.12 148.72 245.13 148.22 245.13 148.22L257.83 143.54L247.83 125.7" stroke="#263238" stroke-linecap="round" stroke-linejoin="round"/>
<path d="M263.83 145.5C263.83 145.5 261.13 143.56 257.84 143.53" stroke="#263238" stroke-linecap="round" stroke-linejoin="round"/>
<path d="M262.01 142.77C262.01 142.77 265.47 143.86 267.47 146.05" stroke="#263238" stroke-linecap="round" stroke-linejoin="round"/>
<path d="M235.43 154.06C235.43 154.06 241.11 152.22 241.95 151.55C242.79 150.88 244.62 151.38 245.63 153.72C246.63 156.06 245.63 159.91 245.63 159.91L238.94 161.58C238.94 161.58 237.27 161.91 235.6 159.07C233.93 156.23 233.59 154.22 235.43 154.05V154.06Z" fill="#4CB2E0" stroke="#263238" stroke-linecap="round" stroke-linejoin="round"/>
<path d="M237.76 154.54C237.76 154.54 233.27 153.96 232.69 153.82C232.11 153.68 230.37 151.79 229.65 151.21C228.93 150.63 226.6 151.48 224.86 149.45C223.12 147.42 222.4 149.59 222.54 150.75C222.68 151.91 224.28 152.49 225.29 153.07C226.3 153.65 227.18 155.26 227.18 155.26C227.18 155.26 223.85 157.87 222.11 158.3C220.37 158.73 215.74 159.75 215.6 160.33C215.46 160.91 216.03 161.05 216.76 161.05C217.49 161.05 222.12 160.76 222.12 160.76L225.45 160.18L220.24 162.64C220.24 162.64 216.04 163.22 216.04 163.8C216.04 164.38 216.76 164.67 217.63 164.52C218.5 164.38 221.83 164.66 222.99 164.23C224.15 163.8 226.91 163.01 226.91 163.01C226.91 163.01 222.12 166.26 221.54 166.4C220.96 166.54 218.36 166.83 218.93 167.41C219.51 167.99 220.52 168.57 221.97 167.99C223.42 167.41 226.02 166.4 226.02 166.4C226.02 166.4 225.44 167.56 224.86 167.99C224.28 168.42 223.99 169.15 224.72 169.15C225.45 169.15 227.9 167.41 228.92 166.54C229.93 165.67 231.82 163.21 231.82 163.21L235.87 161.18L237.9 160.31C237.9 160.31 239.35 157.56 237.76 154.52V154.54Z" fill="white" stroke="#263238" stroke-linecap="round" stroke-linejoin="round"/>
<path d="M226.03 166.41C226.03 166.41 227.58 166.11 228.25 165.17" stroke="#263238" stroke-linecap="round" stroke-linejoin="round"/>
<path d="M161.83 130.04C161.83 130.04 159.42 131.49 160.38 132.94C161.35 134.39 164.24 136.48 164.4 135.35C164.56 134.22 163.6 132.94 163.27 131.65C162.95 130.36 162.3 129.24 161.82 130.04H161.83Z" fill="white" stroke="#263238" stroke-linecap="round" stroke-linejoin="round"/>
<path d="M157.39 136.61C157.71 138.38 161.73 139.02 162.06 138.54C162.15 138.4 162.14 138.17 162.07 137.91C161.83 136.98 161.06 136.29 160.14 136.05C158.89 135.72 157.19 135.47 157.39 136.61Z" fill="white" stroke="#263238" stroke-linecap="round" stroke-linejoin="round"/>
<path d="M156.6 139.12C156.92 140.89 160.21 140.8 160.54 140.32C160.63 140.18 161.35 140.68 161.28 140.42C161.04 139.49 160.27 138.8 159.35 138.56C158.1 138.23 156.4 137.98 156.6 139.12Z" fill="white" stroke="#263238" stroke-linecap="round" stroke-linejoin="round"/>
<path d="M160.38 132.93C160.38 132.93 158.61 134.22 158.93 135.02C159.25 135.82 161.18 137.11 161.99 137.59C162.79 138.07 163.92 137.75 163.44 136.79C162.96 135.83 162.15 134.7 162.15 134.7L160.38 132.93Z" fill="white" stroke="#263238" stroke-linecap="round" stroke-linejoin="round"/>
<path d="M427.61 399.83V376.86H395.24V353.9H362.88V330.93H333.82V303.32H246.03V437.35L459.98 437.41V399.83H427.61Z" fill="#263238" stroke="#263238" stroke-linecap="round" stroke-linejoin="round"/>
<path d="M362.49 399.83V376.86H330.12V353.9H297.75V330.93H268.7V303.32H180.91V437.35L394.85 437.41V399.83H362.49Z" fill="#C4C4C4" stroke="#263238" stroke-linecap="round" stroke-linejoin="round"/>
<path d="M362.87 330.93H297.75V353.89H362.87V330.93Z" fill="#263238" stroke="#263238" stroke-linecap="round" stroke-linejoin="round"/>
<path d="M395.36 353.97H330.24V376.93H395.36V353.97Z" fill="#263238" stroke="#263238" stroke-linecap="round" stroke-linejoin="round"/>
<path d="M427.57 376.76H362.45V399.72H427.57V376.76Z" fill="#263238" stroke="#263238" stroke-linecap="round" stroke-linejoin="round"/>
<path d="M23.14 437.41H477.65" stroke="#263238" stroke-miterlimit="10"/>
<path d="M103.053 119.272C105.579 104.324 95.5083 90.1583 80.56 87.6327C65.6116 85.107 51.4462 95.1776 48.9205 110.126C46.3949 125.074 56.4655 139.24 71.4138 141.765C86.3622 144.291 100.528 134.221 103.053 119.272Z" fill="#858585" stroke="#263238" stroke-linecap="round" stroke-linejoin="round"/>
<path d="M77.1329 138.247C90.3927 137.844 100.815 126.768 100.412 113.508C100.01 100.248 88.934 89.8259 75.6742 90.2287C62.4145 90.6315 51.9918 101.707 52.3946 114.967C52.7974 128.227 63.8731 138.649 77.1329 138.247Z" fill="white" stroke="#263238" stroke-linecap="round" stroke-linejoin="round"/>
<path d="M87.17 120.6L76.4 114.24L72.97 134.9" stroke="#263238" stroke-linecap="round" stroke-linejoin="round"/>
<path d="M75.3 113.24C74.75 113.85 74.8 114.79 75.41 115.33C76.02 115.88 76.96 115.83 77.5 115.22C78.05 114.61 78 113.67 77.39 113.13C76.78 112.58 75.84 112.63 75.3 113.24Z" fill="#858585" stroke="#263238" stroke-linecap="round" stroke-linejoin="round"/>
</g>
<defs>
<clipPath id="clip0_34_485">
<rect width="486.43" height="437.91" fill="white"/>
</clipPath>
</defs>
</svg>
