<svg width="618" height="386" viewBox="0 0 618 386" fill="none" xmlns="http://www.w3.org/2000/svg">
<g clip-path="url(#clip0_34_15)">
<path d="M579.996 156.454C576.069 148.172 570.123 141.013 562.902 135.38C532.204 111.416 388.623 2.28069 317.988 0.0172143C238.626 -2.5292 -21.0469 295.229 3.08002 323.223C27.2069 351.216 325.602 393.211 360.526 384.937C395.442 376.663 559.839 218.486 575.119 200.429C588.534 184.576 585.548 168.166 580.004 156.446L579.996 156.454Z" fill="#4CB2E0"/>
<path opacity="0.7" d="M579.996 156.454C576.069 148.172 570.123 141.013 562.902 135.38C532.204 111.416 388.623 2.28069 317.988 0.0172143C238.626 -2.5292 -21.0469 295.229 3.08002 323.223C27.2069 351.216 325.602 393.211 360.526 384.937C395.442 376.663 559.839 218.486 575.119 200.429C588.534 184.576 585.548 168.166 580.004 156.446L579.996 156.454Z" fill="white"/>
<path opacity="0.3" d="M552.892 92.2708C552.892 92.2708 547.176 64.2774 528.123 66.1894C519.465 67.0553 513.664 71.4108 508.65 78.1669C502.208 86.835 499.898 81.7936 490.675 84.6401C482.419 87.1865 483.693 94.1827 478.611 95.4602C473.529 96.7292 469.722 91.0104 462.741 92.2794C455.759 93.5483 451.943 100.553 451.943 100.553H578.926C578.926 100.553 578.293 92.9224 570.037 90.376C561.781 87.8296 557.974 94.1913 552.892 92.2879V92.2708Z" stroke="black" stroke-miterlimit="10"/>
<path opacity="0.3" d="M164.054 33.1293C164.054 33.1293 160.153 14.0012 147.131 15.3044C141.211 15.896 137.25 18.8711 133.819 23.4838C129.413 29.4083 127.838 25.9616 121.533 27.9079C115.895 29.6483 116.759 34.4325 113.294 35.2985C109.82 36.1644 107.219 32.2548 102.445 33.1207C97.6712 33.9867 95.0703 38.7708 95.0703 38.7708H181.842C181.842 38.7708 181.405 33.5494 175.767 31.8175C170.129 30.077 167.528 34.4239 164.054 33.1207V33.1293Z" stroke="black" stroke-miterlimit="10"/>
<g opacity="0.3">
<path d="M427.081 8.47671L409.456 45.5723L473.541 76.1489L491.166 39.0533L427.081 8.47671Z" stroke="black" stroke-miterlimit="10"/>
<path d="M434.567 16.4702C433.395 18.9394 430.443 19.994 427.979 18.8108C427.791 18.7251 427.611 18.6222 427.449 18.5107L417.327 39.808C417.516 39.868 417.712 39.9452 417.901 40.0309C420.365 41.2055 421.417 44.1635 420.236 46.6327C420.193 46.727 420.142 46.8128 420.091 46.8985L465.881 68.7531C465.915 68.6587 465.958 68.5644 466 68.4701C467.173 66.0009 470.124 64.9463 472.588 66.1295C472.776 66.2152 472.956 66.3181 473.119 66.4296L483.24 45.1323C483.052 45.0723 482.855 44.9951 482.667 44.9094C480.203 43.7348 479.15 40.7768 480.331 38.3076C480.417 38.119 480.519 37.9389 480.631 37.776L434.798 15.9043C434.738 16.0929 434.661 16.2901 434.576 16.4787L434.567 16.4702ZM457.667 45.8268C455.742 49.8822 450.908 51.5969 446.861 49.6678C442.815 47.7387 441.103 42.8945 443.028 38.8391C444.954 34.7838 449.787 33.069 453.834 34.9981C457.881 36.9272 459.592 41.7714 457.667 45.8268Z" stroke="black" stroke-miterlimit="10"/>
</g>
<g opacity="0.3">
<path d="M45.5675 29.4972L27.943 66.5928L92.0277 97.1694L109.652 60.0738L45.5675 29.4972Z" stroke="black" stroke-miterlimit="10"/>
<path d="M53.0193 37.4758C51.8472 39.945 48.8955 40.9996 46.4315 39.8164C46.2432 39.7307 46.0636 39.6278 45.901 39.5163L35.7797 60.8136C35.9679 60.8736 36.1647 60.9508 36.3529 61.0365C38.8169 62.2111 39.8693 65.169 38.6886 67.6383C38.6458 67.7326 38.5945 67.8183 38.5432 67.9127L84.333 89.7672C84.3672 89.6729 84.41 89.5786 84.4528 89.4843C85.6249 87.015 88.5766 85.9605 91.0406 87.1436C91.2288 87.2294 91.4085 87.3323 91.5711 87.4437L101.692 66.1465C101.504 66.0864 101.307 66.0093 101.119 65.9235C98.6551 64.7489 97.6028 61.791 98.7835 59.3217C98.869 59.1331 98.9717 58.9531 99.0829 58.7902L53.2503 36.9185C53.1904 37.1071 53.1134 37.3043 53.0279 37.4929L53.0193 37.4758ZM76.1196 66.8324C74.1945 70.8878 69.3606 72.6025 65.3138 70.6734C61.267 68.7443 59.5558 63.9001 61.4809 59.8447C63.4059 55.7893 68.2398 54.0746 72.2866 56.0037C76.3335 57.9328 78.0446 62.777 76.1196 66.8324Z" stroke="black" stroke-miterlimit="10"/>
</g>
<g opacity="0.3">
<path d="M503.296 144L485.672 181.095L549.756 211.672L567.381 174.576L503.296 144Z" stroke="black" stroke-miterlimit="10"/>
<path d="M510.772 151.996C509.6 154.466 506.648 155.52 504.184 154.337C503.996 154.251 503.816 154.148 503.654 154.037L493.532 175.334C493.721 175.394 493.917 175.471 494.106 175.557C496.57 176.732 497.622 179.69 496.441 182.159C496.399 182.253 496.347 182.339 496.296 182.433L542.086 204.288C542.12 204.193 542.163 204.099 542.205 204.005C543.378 201.536 546.329 200.481 548.793 201.664C548.982 201.75 549.161 201.853 549.324 201.964L559.445 180.667C559.257 180.607 559.06 180.53 558.872 180.444C556.408 179.269 555.356 176.311 556.536 173.842C556.622 173.654 556.724 173.474 556.836 173.311L511.003 151.439C510.943 151.628 510.866 151.825 510.781 152.013L510.772 151.996ZM533.872 181.353C531.947 185.4 527.113 187.123 523.067 185.194C519.02 183.265 517.309 178.421 519.234 174.365C521.159 170.31 525.993 168.595 530.039 170.524C534.086 172.453 535.797 177.297 533.872 181.353Z" stroke="black" stroke-miterlimit="10"/>
</g>
<g opacity="0.3">
<path d="M301.668 82.935L325.732 116.199L383.198 74.4515L359.134 41.1873L301.668 82.935Z" stroke="black" stroke-miterlimit="10"/>
<path d="M312.213 80.1993C313.813 82.4113 313.325 85.515 311.109 87.1183C310.938 87.2383 310.767 87.3498 310.587 87.4441L324.404 106.538C324.55 106.401 324.704 106.264 324.875 106.144C327.082 104.54 330.179 105.029 331.779 107.25C331.839 107.335 331.891 107.421 331.95 107.507L373.009 77.6786C372.941 77.6014 372.881 77.5242 372.821 77.4385C371.221 75.2179 371.709 72.1228 373.924 70.5195C374.096 70.3994 374.267 70.288 374.446 70.1937L360.629 51.0999C360.484 51.237 360.33 51.3742 360.158 51.4943C357.951 53.0975 354.854 52.6088 353.254 50.3882C353.134 50.2168 353.023 50.0453 352.929 49.8652L311.828 79.7277C311.965 79.8735 312.101 80.0278 312.221 80.1993H312.213ZM348.993 73.9318C351.62 77.5671 350.816 82.6428 347.188 85.2749C343.56 87.9071 338.496 87.1011 335.869 83.4659C333.242 79.8306 334.047 74.7549 337.674 72.1228C341.302 69.4906 346.367 70.2965 348.993 73.9318Z" stroke="black" stroke-miterlimit="10"/>
</g>
<g opacity="0.15">
<path d="M28.1738 146.972C33.598 147.152 44.8059 142.385 44.8145 142.376C44.9343 142.325 39.4415 135.929 39.048 135.569C34.5049 131.359 23.2457 125.906 17.2054 129.31C12.8591 131.77 12.1319 137.403 14.8954 141.322C17.7188 145.334 23.5623 146.809 28.1823 146.963L28.1738 146.972Z" fill="black"/>
<path d="M45.1139 178.232C50.1874 177.023 59.111 170.061 59.8211 169.504C63.6626 174.528 68.0089 179.372 72.6802 184.028C75.3496 186.694 78.1131 189.292 80.9279 191.873C79.4734 190.887 78.1644 190.021 77.9676 189.918C72.4749 187.063 60.1804 184.782 55.2524 189.669C51.7018 193.193 52.4889 198.818 56.185 201.87C59.958 204.991 65.9897 204.871 70.49 203.799C75.0502 202.71 82.7845 196.931 84.8036 195.371C85.8902 196.348 86.9682 197.334 88.0633 198.303C93.2993 202.967 98.544 207.597 103.558 212.296C105.32 213.95 106.997 215.648 108.682 217.337C107.39 216.462 106.287 215.742 106.107 215.648C100.614 212.793 88.32 210.504 83.3919 215.399C79.8413 218.923 80.6284 224.547 84.3245 227.6C88.1061 230.721 94.1292 230.601 98.6295 229.529C102.984 228.491 110.163 223.219 112.575 221.384C114.252 223.167 115.929 224.95 117.469 226.751C118.496 228.003 119.565 229.143 120.523 230.463C121.499 231.749 122.466 233.018 123.424 234.279C125.178 236.774 127.009 239.337 128.66 241.815C129.823 243.53 130.901 245.185 131.988 246.848C130.251 245.176 126.778 241.987 126.461 241.746C121.465 238.085 109.658 233.961 104.045 238.051C100.007 240.992 99.93 246.668 103.13 250.252C106.389 253.904 112.37 254.71 116.973 254.324C122.046 253.904 131.56 248.64 132.741 247.98C134.529 250.74 136.249 253.441 137.831 256.013C139.252 258.32 140.569 260.514 141.818 262.624L145.857 261.012C144.445 258.731 142.939 256.339 141.314 253.818C139.508 251.006 137.515 248.048 135.444 245.022C136.078 244.421 139.662 240.983 142.606 237.357C147.32 239.62 157.432 240.435 158.741 240.529C158.716 243.821 158.664 247.019 158.562 250.046C158.502 252.129 158.416 254.118 158.331 256.048L162.609 254.341C162.634 252.97 162.66 251.581 162.677 250.132C162.72 246.788 162.694 243.213 162.626 239.552C163.935 239.32 174.655 237.382 178.856 234.493C182.672 231.869 186.795 227.471 187.026 222.575C187.249 217.783 183.613 213.427 178.625 213.702C171.703 214.079 165.141 224.753 163.575 230.746C163.481 231.098 162.908 235.05 162.583 237.554C162.549 236.053 162.532 234.604 162.48 233.061C162.395 230.009 162.224 226.965 162.053 223.699C161.916 222.121 161.77 220.526 161.633 218.914C161.522 217.32 161.206 215.639 161 213.985C160.444 210.161 159.691 206.311 158.844 202.453C161.505 202.376 170.968 201.956 175.151 199.932C179.318 197.917 184.066 194.196 185.024 189.386C185.966 184.679 183.031 179.818 178.06 179.338C171.156 178.661 163.062 188.212 160.607 193.905C160.453 194.256 159.144 198.543 158.476 200.91C157.954 198.595 157.441 196.28 156.834 193.956C155.08 187.243 153.103 180.495 151.161 173.765C150.562 171.699 149.998 169.641 149.416 167.575C150.366 167.558 161.616 167.3 166.305 165.037C170.471 163.031 175.22 159.301 176.178 154.491C177.119 149.784 174.184 144.923 169.214 144.443C162.318 143.765 154.216 153.317 151.76 159.01C151.572 159.438 149.698 165.603 149.305 167.197C148.03 162.653 146.806 158.118 145.78 153.591C144.351 147.349 143.299 141.15 142.717 135.063C143.162 135.063 154.909 134.84 159.708 132.525C163.875 130.51 168.623 126.789 169.59 121.979C170.531 117.272 167.597 112.411 162.626 111.931C155.721 111.254 147.628 120.805 145.172 126.498C144.984 126.944 142.965 133.58 142.691 134.806C142.657 134.446 142.58 134.068 142.554 133.708C142.015 127.201 142.315 120.839 142.879 114.889C143.204 111.434 143.709 108.15 144.265 104.96C146.456 105.149 156.483 105.878 161.034 104.275C165.398 102.731 170.523 99.5589 172.003 94.8862C173.457 90.3078 171.07 85.1636 166.185 84.1261C159.4 82.6943 150.306 91.2938 147.234 96.6867C147.072 96.9782 145.703 100.142 144.736 102.465C145.01 101.034 145.266 99.5504 145.557 98.1785C146.635 93.0343 147.936 88.3959 149.125 84.2976C149.818 81.9741 150.494 79.8821 151.144 77.9359C153.386 76.9927 162.395 73.0831 165.629 69.6193C168.786 66.2412 171.883 61.0541 171.053 56.2185C170.24 51.4858 165.757 48.0134 160.94 49.3595C154.258 51.22 150.143 63.0518 149.895 69.2506C149.878 69.7908 150.502 78.2016 150.614 78.1588C150.614 78.1588 150.725 78.1159 150.751 78.0988C150.083 79.9593 149.399 81.9655 148.689 84.169C147.405 88.2501 146.002 92.88 144.804 98.0156C143.598 103.151 142.434 108.759 141.733 114.777C141.023 120.813 140.595 127.192 140.989 133.828C140.989 133.905 141.006 133.983 141.014 134.06C140.296 132.156 138.114 126.901 137.9 126.515C134.888 121.096 125.896 112.394 119.095 113.749C114.201 114.726 111.754 119.844 113.157 124.44C114.594 129.13 119.685 132.362 124.023 133.948C128.917 135.74 140.193 134.874 141.091 134.797C141.528 141.107 142.494 147.555 143.82 154.02C144.582 157.715 145.455 161.419 146.379 165.123C145.703 163.494 145.087 162.045 144.984 161.856C141.972 156.437 132.98 147.735 126.179 149.09C121.276 150.067 118.838 155.186 120.241 159.781C121.67 164.471 126.769 167.703 131.107 169.298C135.513 170.91 145.138 170.361 147.688 170.181C148.055 171.596 148.415 173.019 148.791 174.425C150.597 181.207 152.419 187.972 154.01 194.659C154.575 197.017 155.037 199.358 155.516 201.698C154.917 200.258 154.395 199.049 154.301 198.869C151.29 193.45 142.298 184.748 135.496 186.103C130.593 187.08 128.155 192.207 129.558 196.794C130.987 201.484 136.086 204.716 140.424 206.302C144.625 207.846 153.523 207.417 156.543 207.22C156.953 209.629 157.373 212.047 157.672 214.405C157.835 216.017 158.108 217.56 158.177 219.189C158.288 220.801 158.391 222.395 158.493 223.973C158.587 227.025 158.699 230.172 158.716 233.147C158.741 235.222 158.724 237.194 158.716 239.183C158.185 236.834 157.047 232.247 156.911 231.878C155.473 228.011 151.649 222.335 147.208 219.035C147.003 218.46 146.746 217.911 146.43 217.388C143.974 213.264 138.542 211.644 134.538 214.628C128.976 218.769 129.379 231.295 131.372 237.168C131.492 237.511 133.186 241.129 134.289 243.393C133.434 242.158 132.621 240.958 131.731 239.697C129.986 237.202 128.164 234.759 126.221 232.127C125.238 230.892 124.245 229.64 123.236 228.371C122.269 227.094 121.08 225.876 120.002 224.607C117.426 221.727 114.688 218.932 111.857 216.179C114.038 214.636 121.696 209.063 124.074 205.059C126.444 201.081 128.352 195.345 126.512 190.81C124.707 186.36 119.591 183.933 115.176 186.274C109.05 189.524 107.553 201.964 108.631 208.077C108.7 208.454 109.966 212.75 110.71 215.099C108.999 213.462 107.296 211.807 105.508 210.204C100.349 205.565 94.9848 201.038 89.6546 196.494C88.0205 195.105 86.412 193.699 84.795 192.301C85.5736 191.761 94.8223 185.322 97.4916 180.847C99.8615 176.869 101.769 171.133 99.93 166.597C98.1247 162.147 93.0085 159.721 88.5937 162.062C82.4679 165.311 80.9707 177.752 82.0487 183.865C82.1342 184.328 83.9651 190.501 84.5041 192.053C80.945 188.966 77.4201 185.863 74.0748 182.656C69.4462 178.24 65.1598 173.654 61.3269 168.895C61.6948 168.646 71.3712 161.967 74.1005 157.38C76.4704 153.402 78.3783 147.666 76.5388 143.131C74.7336 138.681 69.6173 136.255 65.2026 138.595C59.0768 141.845 57.5795 154.285 58.6661 160.398C58.7516 160.879 60.728 167.523 61.1729 168.706C60.9419 168.424 60.6767 168.158 60.4542 167.875C56.4245 162.748 53.1734 157.269 50.3671 151.996C48.733 148.935 47.347 145.917 46.0551 142.951C47.9886 141.896 56.7582 136.966 59.6671 133.108C62.4562 129.413 64.9802 123.926 63.654 119.21C62.345 114.589 57.5196 111.614 52.8825 113.457C46.4401 116.012 43.591 128.212 43.9932 134.403C44.0188 134.737 44.6177 138.141 45.0883 140.602C44.5322 139.256 43.9247 137.875 43.4114 136.572C41.4778 131.685 40.0148 127.098 38.7485 123.017C38.047 120.693 37.4566 118.576 36.9262 116.595C38.278 114.563 43.6338 106.324 44.4295 101.642C45.2081 97.0725 44.9257 91.0366 41.5719 87.4699C38.2865 83.9718 32.6398 83.5603 29.363 87.3327C24.82 92.5799 27.9 104.72 31.1084 110.028C31.3821 110.482 36.5412 117.161 36.6096 117.058C36.6096 117.058 36.6781 116.955 36.6866 116.938C37.1572 118.858 37.6876 120.916 38.3122 123.145C39.4929 127.261 40.8618 131.891 42.6927 136.838C44.5151 141.785 46.6283 147.109 49.3575 152.511C52.0868 157.929 55.2353 163.494 59.2222 168.809C59.265 168.869 59.3249 168.929 59.3677 168.989C57.7164 167.798 53.0023 164.625 52.6172 164.42C47.1245 161.564 34.8301 159.275 29.902 164.171C26.3514 167.695 27.1385 173.319 30.8346 176.371C34.6162 179.492 40.6393 179.372 45.1396 178.301L45.1139 178.232Z" fill="black"/>
<path d="M143.512 103.837C143.641 103.863 142.58 95.4864 142.452 94.9634C140.98 88.936 134.589 78.1674 127.676 77.6701C122.697 77.3186 118.992 81.614 119.137 86.4153C119.283 91.3195 123.338 95.7865 127.111 98.4701C131.535 101.617 143.504 103.837 143.512 103.837Z" fill="black"/>
</g>
<g opacity="0.15">
<path d="M321.641 236.165C327.921 236.371 340.9 230.849 340.908 230.849C341.045 230.789 334.68 223.381 334.226 222.961C328.965 218.083 315.926 211.773 308.936 215.717C303.897 218.563 303.058 225.079 306.258 229.623C309.526 234.262 316.294 235.976 321.641 236.156V236.165Z" fill="black"/>
<path d="M448.598 362.405C448.769 362.688 448.923 362.945 449.094 363.22H454.767C454.065 362.122 453.355 360.999 452.611 359.859C450.515 356.609 448.213 353.171 445.818 349.673C446.553 348.979 450.703 345 454.108 340.799C459.575 343.414 471.279 344.366 472.785 344.477C472.759 348.293 472.691 351.997 472.58 355.495C472.503 357.904 472.417 360.21 472.314 362.439L477.26 360.467C477.294 358.881 477.32 357.269 477.337 355.598C477.379 351.731 477.354 347.59 477.285 343.346C478.808 343.08 491.214 340.834 496.082 337.49C500.497 334.455 505.279 329.362 505.545 323.686C505.801 318.13 501.592 313.089 495.817 313.406C487.8 313.843 480.211 326.198 478.389 333.143C478.278 333.554 477.61 338.133 477.234 341.022C477.2 339.29 477.174 337.601 477.114 335.818C477.02 332.285 476.815 328.762 476.618 324.972C476.455 323.146 476.293 321.302 476.13 319.433C476.002 317.581 475.643 315.644 475.403 313.723C474.761 309.291 473.889 304.841 472.913 300.365C476.002 300.271 486.953 299.791 491.796 297.45C496.621 295.118 502.114 290.814 503.235 285.241C504.33 279.788 500.933 274.164 495.175 273.607C487.184 272.826 477.816 283.886 474.967 290.471C474.787 290.883 473.273 295.838 472.494 298.582C471.887 295.898 471.296 293.223 470.595 290.523C468.567 282.746 466.274 274.935 464.024 267.142C463.331 264.75 462.672 262.366 462.005 259.974C463.1 259.957 476.139 259.657 481.563 257.042C486.388 254.718 491.881 250.406 493.002 244.833C494.097 239.38 490.701 233.756 484.943 233.198C476.952 232.418 467.583 243.47 464.734 250.063C464.52 250.56 462.347 257.702 461.885 259.546C460.414 254.281 458.993 249.026 457.804 243.787C456.153 236.559 454.929 229.383 454.262 222.335C454.775 222.335 468.379 222.078 473.931 219.395C478.757 217.062 484.25 212.758 485.37 207.185C486.465 201.733 483.069 196.108 477.311 195.551C469.32 194.771 459.952 205.822 457.103 212.415C456.88 212.93 454.553 220.612 454.228 222.035C454.194 221.615 454.099 221.186 454.074 220.766C453.449 213.239 453.8 205.865 454.459 198.98C454.835 194.976 455.417 191.17 456.067 187.483C458.608 187.697 470.218 188.546 475.489 186.686C480.536 184.902 486.474 181.224 488.194 175.814C489.879 170.515 487.116 164.548 481.46 163.356C473.606 161.702 463.074 171.656 459.524 177.897C459.327 178.232 457.744 181.901 456.632 184.585C456.949 182.922 457.248 181.207 457.582 179.621C458.831 173.671 460.337 168.295 461.714 163.545C462.518 160.853 463.297 158.435 464.05 156.172C466.651 155.083 477.071 150.547 480.827 146.535C484.489 142.616 488.065 136.615 487.107 131.016C486.166 125.537 480.973 121.516 475.403 123.077C467.669 125.237 462.903 138.93 462.621 146.114C462.595 146.732 463.322 156.48 463.459 156.42C463.459 156.42 463.588 156.369 463.613 156.352C462.843 158.512 462.048 160.827 461.226 163.382C459.746 168.106 458.112 173.465 456.735 179.415C455.34 185.357 453.988 191.847 453.175 198.817C452.354 205.805 451.849 213.187 452.311 220.869C452.311 220.955 452.337 221.049 452.337 221.135C451.507 218.932 448.975 212.844 448.727 212.398C445.244 206.122 434.824 196.048 426.952 197.617C421.28 198.749 418.457 204.682 420.082 209.998C421.742 215.425 427.637 219.172 432.668 221.015C438.34 223.09 451.396 222.087 452.431 222.001C452.936 229.314 454.048 236.774 455.588 244.258C456.469 248.545 457.479 252.824 458.557 257.111C457.778 255.224 457.068 253.552 456.94 253.33C453.449 247.054 443.037 236.979 435.166 238.548C429.493 239.68 426.67 245.613 428.296 250.929C429.955 256.356 435.85 260.103 440.881 261.946C445.98 263.815 457.128 263.181 460.08 262.975C460.508 264.613 460.918 266.259 461.355 267.896C463.442 275.75 465.555 283.586 467.395 291.329C468.045 294.055 468.584 296.773 469.132 299.482C468.439 297.81 467.84 296.413 467.729 296.207C464.238 289.931 453.826 279.857 445.955 281.426C440.282 282.558 437.459 288.491 439.076 293.806C440.736 299.234 446.63 302.98 451.661 304.815C456.529 306.598 466.822 306.101 470.33 305.878C470.809 308.673 471.296 311.468 471.63 314.195C471.818 316.064 472.135 317.847 472.22 319.733C472.34 321.603 472.468 323.446 472.588 325.281C472.691 328.813 472.828 332.457 472.845 335.904C472.879 338.304 472.862 340.593 472.845 342.891C472.229 340.165 470.911 334.858 470.757 334.429C469.098 329.953 464.666 323.377 459.524 319.553C459.284 318.893 458.985 318.25 458.625 317.65C455.785 312.874 449.497 310.997 444.851 314.452C438.408 319.253 438.879 333.752 441.18 340.551C441.317 340.954 443.277 345.138 444.56 347.761C443.567 346.338 442.635 344.94 441.6 343.483C439.572 340.593 437.467 337.764 435.217 334.712C434.079 333.28 432.924 331.831 431.761 330.365C430.64 328.89 429.262 327.476 428.013 326.009C425.036 322.674 421.853 319.433 418.585 316.244C421.109 314.461 429.981 307.996 432.727 303.366C435.465 298.762 437.681 292.126 435.551 286.862C433.463 281.709 427.534 278.897 422.418 281.606C415.325 285.37 413.597 299.774 414.846 306.847C414.923 307.284 416.395 312.266 417.25 314.975C415.265 313.072 413.298 311.168 411.227 309.308C405.255 303.941 399.044 298.693 392.875 293.438C390.984 291.826 389.119 290.205 387.246 288.576C388.153 287.95 398.856 280.5 401.944 275.313C404.682 270.709 406.898 264.072 404.759 258.808C402.672 253.655 396.742 250.843 391.635 253.561C384.542 257.325 382.814 271.729 384.063 278.802C384.157 279.334 386.279 286.484 386.903 288.285C382.78 284.71 378.699 281.117 374.823 277.405C369.467 272.295 364.496 266.979 360.056 261.475C360.475 261.183 371.692 253.458 374.849 248.151C377.586 243.538 379.802 236.911 377.663 231.646C375.576 226.494 369.647 223.681 364.53 226.399C357.438 230.163 355.71 244.567 356.959 251.641C357.053 252.198 359.346 259.888 359.859 261.252C359.594 260.926 359.286 260.617 359.029 260.283C354.366 254.341 350.593 248.005 347.351 241.901C345.46 238.36 343.851 234.862 342.363 231.424C344.596 230.198 354.751 224.487 358.122 220.029C361.348 215.751 364.274 209.398 362.734 203.936C361.219 198.586 355.633 195.139 350.26 197.274C342.799 200.232 339.497 214.362 339.967 221.529C339.993 221.924 340.686 225.851 341.242 228.714C340.592 227.154 339.89 225.559 339.3 224.05C337.067 218.391 335.364 213.076 333.901 208.36C333.088 205.668 332.404 203.216 331.797 200.918C333.362 198.569 339.565 189.026 340.481 183.608C341.379 178.318 341.054 171.33 337.169 167.197C333.371 163.151 326.826 162.67 323.036 167.043C317.774 173.122 321.342 187.183 325.055 193.322C325.38 193.853 331.343 201.578 331.429 201.458C331.429 201.458 331.506 201.347 331.523 201.312C332.07 203.533 332.678 205.917 333.396 208.497C334.765 213.264 336.348 218.631 338.47 224.35C340.575 230.077 343.022 236.242 346.187 242.501C349.353 248.777 352.997 255.224 357.609 261.372C357.66 261.44 357.729 261.509 357.78 261.578C355.872 260.197 350.414 256.519 349.96 256.288C343.595 252.978 329.367 250.337 323.66 255.996C319.553 260.077 320.46 266.585 324.738 270.126C329.11 273.735 336.091 273.598 341.293 272.355C347.171 270.949 357.498 262.898 358.319 262.246C362.768 268.059 367.799 273.675 373.214 279.068C376.303 282.155 379.511 285.164 382.763 288.148C381.077 287.007 379.554 286.004 379.332 285.884C372.966 282.575 358.738 279.934 353.032 285.593C348.925 289.674 349.832 296.181 354.11 299.714C358.482 303.323 365.463 303.186 370.665 301.943C375.952 300.683 384.893 293.986 387.237 292.186C388.495 293.318 389.744 294.458 391.01 295.581C397.076 300.983 403.151 306.341 408.951 311.786C410.996 313.706 412.938 315.669 414.889 317.624C413.392 316.613 412.117 315.772 411.912 315.669C405.546 312.36 391.318 309.719 385.612 315.378C381.505 319.459 382.412 325.967 386.69 329.499C391.061 333.109 398.043 332.971 403.253 331.728C408.293 330.519 416.609 324.423 419.406 322.288C421.34 324.355 423.291 326.421 425.07 328.504C426.259 329.962 427.5 331.274 428.612 332.8C429.742 334.292 430.862 335.758 431.975 337.224C434.011 340.113 436.124 343.08 438.032 345.943C439.375 347.924 440.624 349.845 441.882 351.774C439.871 349.845 435.85 346.141 435.474 345.875C429.69 341.639 416.018 336.864 409.525 341.597C404.845 345 404.759 351.576 408.464 355.726C412.237 359.962 419.158 360.888 424.497 360.442C430.375 359.953 441.386 353.866 442.755 353.094C444.825 356.292 446.819 359.413 448.641 362.397L448.598 362.405Z" fill="black"/>
<path d="M455.186 186.223C455.332 186.248 454.1 176.552 453.954 175.951C452.243 168.972 444.851 156.506 436.843 155.932C431.076 155.52 426.79 160.493 426.952 166.057C427.124 171.733 431.821 176.903 436.184 180.007C441.309 183.651 455.169 186.223 455.178 186.223H455.186Z" fill="black"/>
</g>
<path d="M133.177 262.932H34.0515V282.368H133.177V262.932Z" fill="white" stroke="#263238" stroke-linecap="round" stroke-linejoin="round"/>
<path d="M160.632 242.5H61.5066V262.923H160.632V242.5Z" fill="white" stroke="#263238" stroke-linecap="round" stroke-linejoin="round"/>
<path d="M188.079 222.078H88.9531V242.5H188.079V222.078Z" fill="white" stroke="#263238" stroke-linecap="round" stroke-linejoin="round"/>
<path d="M215.534 201.646H116.408V222.069H215.534V201.646Z" fill="white" stroke="#263238" stroke-linecap="round" stroke-linejoin="round"/>
<path d="M244.007 363.219V201.646H215.534V222.078H188.087V242.501H160.632V262.932H133.186V363.219H244.007Z" fill="#263238" stroke="#263238" stroke-linecap="round" stroke-linejoin="round"/>
<path d="M243.998 343.783H144.873V363.219H243.998V343.783Z" fill="white" stroke="#263238" stroke-linecap="round" stroke-linejoin="round"/>
<path d="M117.426 343.783H216.552V323.36H117.426V343.783Z" fill="white" stroke="#263238" stroke-linecap="round" stroke-linejoin="round"/>
<path d="M89.9798 323.36H189.105V302.929H89.9798V323.36Z" fill="white" stroke="#263238" stroke-linecap="round" stroke-linejoin="round"/>
<path d="M62.5247 302.929H161.65V282.506H62.5247V302.929Z" fill="white" stroke="#263238" stroke-linecap="round" stroke-linejoin="round"/>
<path d="M34.0515 363.219V282.506H62.5247V302.929H89.9712V323.36H117.426V343.783H144.873V363.219H34.0515Z" fill="#263238" stroke="#263238" stroke-linecap="round" stroke-linejoin="round"/>
<path d="M541.581 240.486L535.139 261.663L520.834 250.646C520.834 250.646 520.269 247.225 519.978 246.565C519.696 245.896 517.984 243.907 517.608 243.144C517.232 242.381 516.658 243.05 516.658 243.615C516.658 244.181 517.984 246.085 517.984 246.085L517.317 246.753L512.013 244.224C511.747 244.096 511.439 244.216 511.32 244.481C511.226 244.696 511.285 244.953 511.474 245.099L514.374 247.319L513.998 248.082L509.164 246.093C508.907 245.99 508.616 246.119 508.531 246.385C508.462 246.599 508.548 246.839 508.744 246.951L513.142 249.506L510.267 250.063C509.985 250.123 509.805 250.414 509.899 250.689C509.968 250.886 510.148 251.023 510.361 251.023H513.33L510.772 251.975C510.772 251.975 511.106 252.721 511.619 252.695L514.656 252.549L519.114 252.832C519.114 252.832 533.607 268.051 534.078 268.514C534.548 268.977 537.397 270.023 537.962 269.448C538.527 268.882 544.875 261.192 544.875 261.192L543.925 241.249C543.925 241.249 542.976 239.354 541.555 240.486H541.581Z" fill="white" stroke="#263238" stroke-linecap="round" stroke-linejoin="round"/>
<path d="M545.003 216.068C545.003 216.068 542.231 216.256 540.939 211.807C539.647 207.365 542.967 206.071 544.815 205.702C546.663 205.333 547.031 201.261 550.171 200.704C553.311 200.146 556.639 202.736 557.375 204.965C558.11 207.185 562.919 203.85 565.691 206.817C568.463 209.775 568.275 215.519 568.275 217.551C568.275 219.583 574.554 219.96 574.554 224.77C574.554 229.58 573.819 231.989 574.187 232.727C574.554 233.464 577.326 248.622 577.326 248.622H542.787C542.787 248.622 541.675 237.537 542.976 234.759C544.267 231.981 545.38 231.801 545.927 229.203C546.483 226.614 545.927 222.541 545.559 220.689C545.191 218.837 545.003 216.059 545.003 216.059V216.068Z" fill="#263238" stroke="#263238" stroke-linecap="round" stroke-linejoin="round"/>
<path d="M551.651 235.505L541.307 235.685L543.343 261.046L562.919 262.529L572.159 236.242L561.071 235.316L551.651 235.505Z" fill="#4CB2E0" stroke="#263238" stroke-linecap="round" stroke-linejoin="round"/>
<path d="M548.331 210.144C548.331 210.144 545.559 214.027 545.003 216.068C544.447 218.1 543.985 220.552 544.533 223.321C545.089 226.099 546.663 230.686 547.767 231.055C548.879 231.424 551.831 231.055 551.831 231.055L551.642 235.496H550.162L550.35 242.158L557.366 242.527L561.062 235.308L559.214 234.939L557.922 224.016C557.922 224.016 559.77 221.984 559.95 220.501C560.138 219.017 560.138 218.28 560.138 218.28C560.138 218.28 557.922 219.943 556.074 218.28C554.226 216.617 553.67 214.765 553.123 212.913C552.575 211.061 551.463 209.578 550.539 209.578C549.615 209.578 548.323 210.135 548.323 210.135L548.331 210.144Z" fill="white" stroke="#263238" stroke-linecap="round" stroke-linejoin="round"/>
<path d="M551.839 231.063L554.979 229.949L552.019 233.284L551.839 231.063Z" fill="#263238" stroke="#263238" stroke-linecap="round" stroke-linejoin="round"/>
<path d="M543.343 261.046L541.316 267.528C541.316 267.528 533.924 275.484 532.452 290.291C530.972 305.098 533.376 319.725 534.112 325.649C534.848 331.574 541.983 357.758 541.983 357.758H546.783C546.783 357.758 545.012 333.426 545.012 331.016V317.504L558.59 354.92L563.021 355.109C563.021 355.109 561.25 337.438 560.138 330.219C559.026 323 557.015 316.21 557.015 316.21C557.015 316.21 566.803 296.773 566.803 283.449C566.803 270.126 563.475 267.159 563.475 267.159L562.919 262.529L543.343 261.046Z" fill="#BABABA" stroke="#263238" stroke-linecap="round" stroke-linejoin="round"/>
<path d="M549.272 281.391C549.914 278.502 550.359 276.599 550.359 276.599" stroke="#263238" stroke-linecap="round" stroke-linejoin="round"/>
<path d="M545.003 317.504C545.003 317.504 544.267 313.8 544.815 305.844C545.14 301.145 547.014 291.817 548.485 284.958" stroke="#263238" stroke-linecap="round" stroke-linejoin="round"/>
<path d="M541.974 357.758C541.974 357.758 533.291 361.831 533.291 362.757C533.291 363.683 547.142 362.757 547.142 362.757C547.142 362.757 547.698 361.274 547.51 359.979C547.322 358.684 546.774 357.758 546.774 357.758H541.974Z" fill="white" stroke="#263238" stroke-linecap="round" stroke-linejoin="round"/>
<path d="M558.581 354.92C558.581 354.92 554.517 360.107 553.225 361.402C551.933 362.697 552.301 363.623 553.413 363.623C554.526 363.623 560.805 363.254 561.909 362.508C563.021 361.771 563.569 361.025 563.569 361.025L563.013 355.1L558.581 354.912V354.92Z" fill="white" stroke="#263238" stroke-linecap="round" stroke-linejoin="round"/>
<path d="M571.047 239.577C571.047 239.577 572.706 264.192 571.235 266.79C569.755 269.38 565.511 267.905 565.143 266.79C564.775 265.676 565.511 256.056 565.511 256.056L571.055 239.586L571.047 239.577Z" fill="white" stroke="#263238" stroke-linecap="round" stroke-linejoin="round"/>
<path d="M526.063 180.692L447.767 192.124L467.518 327.964L545.814 316.532L526.063 180.692Z" fill="#4CB2E0" stroke="#263238" stroke-linecap="round" stroke-linejoin="round"/>
<path d="M521.287 201.261C516.068 202.024 511.225 198.406 510.464 193.176C510.404 192.781 510.378 192.387 510.37 191.993L465.419 198.552C465.521 198.929 465.607 199.315 465.667 199.709C466.428 204.939 462.818 209.792 457.599 210.555C457.402 210.581 457.205 210.598 457.008 210.606L471.117 307.662C471.313 307.619 471.502 307.576 471.698 307.55C476.917 306.787 481.76 310.405 482.521 315.635C482.581 316.03 482.607 316.424 482.615 316.818L527.567 310.259C527.464 309.882 527.379 309.496 527.319 309.102C526.557 303.872 530.168 299.019 535.387 298.256C535.78 298.196 536.174 298.17 536.567 298.162L522.45 201.004C522.074 201.107 521.689 201.192 521.295 201.252L521.287 201.261ZM499.042 269.885C490.495 271.137 482.547 265.196 481.306 256.63C480.057 248.065 485.986 240.1 494.533 238.857C503.08 237.605 511.029 243.547 512.269 252.112C513.518 260.677 507.589 268.642 499.042 269.885Z" fill="white" stroke="#263238" stroke-linecap="round" stroke-linejoin="round"/>
<path d="M510.571 183.56L434.137 204.055L469.545 336.664L545.979 316.169L510.571 183.56Z" fill="#4CB2E0" stroke="#263238" stroke-linecap="round" stroke-linejoin="round"/>
<path d="M508.214 204.527C503.123 205.891 497.887 202.864 496.527 197.763C496.424 197.377 496.356 196.982 496.296 196.597L452.414 208.36C452.559 208.72 452.696 209.097 452.799 209.483C454.159 214.584 451.139 219.832 446.049 221.195C445.852 221.246 445.664 221.281 445.467 221.315L470.766 316.064C470.954 316.004 471.134 315.935 471.331 315.884C476.421 314.52 481.657 317.547 483.018 322.648C483.12 323.034 483.189 323.429 483.249 323.814L527.13 312.051C526.985 311.691 526.848 311.314 526.745 310.928C525.385 305.827 528.405 300.579 533.496 299.216C533.881 299.113 534.274 299.045 534.659 298.985L509.335 204.133C508.975 204.279 508.599 204.416 508.214 204.519V204.527ZM494.097 275.278C485.747 277.516 477.174 272.552 474.941 264.184C472.708 255.816 477.662 247.225 486.012 244.987C494.362 242.749 502.935 247.714 505.168 256.082C507.401 264.45 502.447 273.04 494.097 275.278Z" fill="white" stroke="#263238" stroke-linecap="round" stroke-linejoin="round"/>
<path d="M566.803 262.709L539.279 262.152C539.279 262.152 533.735 260.3 532.811 260.3C532.093 260.3 529.92 260.977 528.987 261.269C528.739 261.346 528.602 261.594 528.645 261.852C528.696 262.117 528.961 262.297 529.227 262.255L531.879 261.783L532.615 262.34L527.284 265.787C527.062 265.933 526.985 266.224 527.113 266.464C527.242 266.704 527.533 266.799 527.781 266.687L531.785 264.801L531.922 265.813L527.635 268.051C527.353 268.196 527.225 268.539 527.344 268.831C527.456 269.114 527.755 269.277 528.054 269.208L529.629 268.848C529.997 269.302 530.595 269.491 531.16 269.328L534.078 268.505L532.23 269.688C531.939 269.877 531.904 270.28 532.161 270.52C532.341 270.683 532.606 270.7 532.811 270.563L536.507 268.033L539.673 266.01L567.556 270.94C567.556 270.94 569.917 271.146 570.319 270.674C570.721 270.203 571.534 265.744 571.603 264.595" fill="white"/>
<path d="M566.803 262.709L539.279 262.152C539.279 262.152 533.735 260.3 532.811 260.3C532.093 260.3 529.92 260.977 528.987 261.269C528.739 261.346 528.602 261.594 528.645 261.852C528.696 262.117 528.961 262.297 529.227 262.255L531.879 261.783L532.615 262.34L527.284 265.787C527.062 265.933 526.985 266.224 527.113 266.464C527.242 266.704 527.533 266.799 527.781 266.687L531.785 264.801L531.922 265.813L527.635 268.051C527.353 268.196 527.225 268.539 527.344 268.831C527.456 269.114 527.755 269.277 528.054 269.208L529.629 268.848C529.997 269.302 530.595 269.491 531.16 269.328L534.078 268.505L532.23 269.688C531.939 269.877 531.904 270.28 532.161 270.52C532.341 270.683 532.606 270.7 532.811 270.563L536.507 268.033L539.673 266.01L567.556 270.94C567.556 270.94 569.917 271.146 570.319 270.674C570.721 270.203 571.534 265.744 571.603 264.595" stroke="#263238" stroke-linecap="round" stroke-linejoin="round"/>
<path d="M529.646 268.848L533.419 267.434" stroke="#263238" stroke-linecap="round" stroke-linejoin="round"/>
<path d="M547.476 218.494C547.476 219.129 547.151 219.643 546.74 219.643C546.329 219.643 546.004 219.129 546.004 218.494C546.004 217.86 546.329 217.345 546.74 217.345C547.151 217.345 547.476 217.86 547.476 218.494Z" fill="#263238"/>
<path d="M551.608 219.369C551.608 220.003 551.283 220.518 550.872 220.518C550.462 220.518 550.137 220.003 550.137 219.369C550.137 218.734 550.462 218.22 550.872 218.22C551.283 218.22 551.608 218.734 551.608 219.369Z" fill="#263238"/>
<path d="M545.825 215.87C545.825 215.87 546.56 214.953 548.023 215.965" stroke="#263238" stroke-linecap="round" stroke-linejoin="round"/>
<path d="M550.042 216.428C550.042 216.428 551.6 215.691 552.703 217.534" stroke="#263238" stroke-linecap="round" stroke-linejoin="round"/>
<path d="M548.212 218.546C548.212 218.546 548.391 219.558 548.117 220.201C547.844 220.844 546.56 222.044 546.646 222.318C546.731 222.593 547.382 222.781 547.382 222.781" stroke="#263238" stroke-linecap="round" stroke-linejoin="round"/>
<path d="M546.552 224.984C546.552 224.984 549.118 226.176 551.138 224.521" stroke="#263238" stroke-linecap="round" stroke-linejoin="round"/>
<path d="M261.024 154.877C277.307 154.877 290.507 141.649 290.507 125.331C290.507 109.014 277.307 95.7861 261.024 95.7861C244.741 95.7861 231.541 109.014 231.541 125.331C231.541 141.649 244.741 154.877 261.024 154.877Z" fill="white" stroke="#263238" stroke-linecap="round" stroke-linejoin="round"/>
<path d="M264.002 154.877C280.284 154.877 293.484 141.649 293.484 125.331C293.484 109.014 280.284 95.7861 264.002 95.7861C247.719 95.7861 234.519 109.014 234.519 125.331C234.519 141.649 247.719 154.877 264.002 154.877Z" fill="white" stroke="#263238" stroke-linecap="round" stroke-linejoin="round"/>
<path d="M281.688 143.061C291.458 133.271 291.458 117.397 281.688 107.607C271.919 97.8167 256.079 97.8167 246.309 107.607C236.54 117.397 236.54 133.271 246.309 143.061C256.079 152.851 271.919 152.851 281.688 143.061Z" fill="white" stroke="#263238" stroke-linecap="round" stroke-linejoin="round"/>
<path d="M271.308 119.966L270.639 122.444H258.073L258.755 119.966H271.308ZM265.051 134.608L258.461 126.812L258.447 124.668H261.629C262.404 124.668 263.042 124.525 263.541 124.239C264.049 123.945 264.427 123.547 264.677 123.047C264.935 122.547 265.065 121.984 265.065 121.359C265.065 120.707 264.949 120.131 264.717 119.631C264.485 119.122 264.115 118.725 263.607 118.439C263.1 118.153 262.427 118.01 261.589 118.01H258.086L258.848 115.103H261.589C263.175 115.103 264.494 115.344 265.546 115.826C266.606 116.3 267.4 116.992 267.925 117.903C268.46 118.805 268.728 119.895 268.728 121.172C268.728 122.288 268.54 123.275 268.166 124.132C267.801 124.981 267.208 125.673 266.388 126.209C265.568 126.745 264.49 127.102 263.153 127.28L269.129 134.421V134.608H265.051ZM271.321 115.103L270.639 117.581H260.306L260.987 115.103H271.321Z" fill="#263238"/>
<path d="M189.944 121.687L190.876 164.994L190.5 195.799L195.531 195.053C195.531 195.053 200.929 166.117 200.929 164.436C200.929 162.756 203.907 141.287 203.907 141.287L209.494 169.1L212.394 195.799L217.425 195.053C217.425 195.053 218.066 166.117 218.066 160.887C218.066 155.657 217.81 122.047 217.81 122.047L202.042 117.949L189.935 121.679L189.944 121.687Z" fill="#263238" stroke="#263238" stroke-linecap="round" stroke-linejoin="round"/>
<path d="M195.531 195.053C195.531 195.053 202.983 199.906 201.862 201.029C200.741 202.152 194.598 201.029 192.921 200.841C191.244 200.652 190.688 200.283 190.688 200.283L190.5 195.799L195.531 195.053Z" fill="white" stroke="#263238" stroke-linecap="round" stroke-linejoin="round"/>
<path d="M217.433 195.053C217.433 195.053 224.885 199.906 223.764 201.029C222.644 202.152 216.501 201.029 214.824 200.841C213.147 200.652 212.591 200.283 212.591 200.283L212.402 195.799L217.433 195.053Z" fill="white" stroke="#263238" stroke-linecap="round" stroke-linejoin="round"/>
<path d="M255.839 94.9031L262.556 93.3599C262.556 93.3599 268.998 96.8151 269.546 97.2695C270.093 97.7239 268.998 97.8182 267.817 97.8182C266.637 97.8182 262.367 96.7294 262.367 96.7294C262.367 96.7294 265.182 97.5439 264.729 98.0068C264.275 98.4613 263.368 98.5556 262.915 98.4613C262.462 98.3669 260.733 98.1012 260.733 98.1012C260.733 98.1012 257.739 98.0068 256.832 97.8268L255.925 97.6468L255.831 94.9203L255.839 94.9031Z" fill="white" stroke="#263238" stroke-linecap="round" stroke-linejoin="round"/>
<path d="M212.394 68.2127C212.394 68.2127 197.114 76.7779 195.146 79.2472C193.178 81.7164 192.519 94.0627 191.202 102.791C189.884 111.519 189.721 122.382 189.721 122.382C189.721 122.382 200.733 123.865 206.807 123.702C212.89 123.539 217.818 122.056 217.818 122.056C217.818 122.056 219.957 111.022 220.445 109.375C220.932 107.729 224.885 87.9667 224.885 87.9667L237.043 97.6808H255.814L255.839 94.8943C255.839 94.8943 240.987 91.422 240.816 90.9247C240.645 90.4274 228.162 72.4825 224.389 70.3476C220.607 68.2042 215.02 66.2322 212.394 68.2042V68.2127Z" fill="#4CB2E0" stroke="#263238" stroke-linecap="round" stroke-linejoin="round"/>
<path d="M213.874 63.4375L211.085 70.1851C211.085 70.1851 209.767 70.5109 210.101 73.1516C210.426 75.7837 213.711 83.1915 214.866 83.0286C216.013 82.8657 219.632 72.9887 219.632 72.9887L213.883 63.4375H213.874Z" fill="white" stroke="#263238" stroke-linecap="round" stroke-linejoin="round"/>
<path d="M215.44 70.8877L216.612 79.8816L218.802 75.4575L215.44 70.8877Z" fill="#263238" stroke="#263238" stroke-linecap="round" stroke-linejoin="round"/>
<path d="M229.48 59.4848C229.48 59.4848 230.96 60.968 233.424 59.8106C235.888 58.6617 237.034 56.1924 234.904 54.2119C232.765 52.2399 231.618 54.3748 230.96 51.7426C230.301 49.1105 227.674 47.2929 225.373 47.953C223.071 48.6132 223.893 49.4363 222.25 49.925C220.607 50.4223 218.468 48.939 216.338 51.0739C214.208 53.2088 213.874 58.3187 213.378 60.6251C212.882 62.9314 215.02 63.5916 216.826 63.4201C218.631 63.2572 220.111 59.4676 221.591 58.3187C223.071 57.1698 229.48 59.4676 229.48 59.4676V59.4848Z" fill="#263238" stroke="#263238" stroke-linecap="round" stroke-linejoin="round"/>
<path d="M213.54 64.0975C213.54 64.0975 213.703 67.7156 214.362 68.873C215.02 70.0219 217.81 75.4577 218.793 75.4577C219.777 75.4577 221.258 75.4577 221.916 75.1319C222.575 74.8061 225.202 71.3423 226.844 68.3843C228.487 65.4178 229.471 59.4933 229.471 59.4933C229.471 59.4933 221.583 54.5548 221.095 55.5408C220.599 56.5268 220.77 58.0101 219.948 58.173C219.127 58.3359 217.322 58.4988 217.322 58.4988C217.322 58.4988 217.818 60.8051 217.159 61.2938C216.501 61.7911 214.858 60.7966 214.858 60.7966C214.858 60.7966 212.89 61.1224 213.54 64.0889V64.0975Z" fill="white" stroke="#263238" stroke-linecap="round" stroke-linejoin="round"/>
<path d="M222.686 64.6805C222.541 65.3064 222.139 65.7522 221.788 65.675C221.437 65.5893 221.275 65.0149 221.42 64.389C221.566 63.7631 221.968 63.3173 222.318 63.3944C222.669 63.4802 222.832 64.0546 222.686 64.6805Z" fill="#263238"/>
<path d="M226.973 65.8807C226.827 66.5066 226.425 66.9524 226.074 66.8752C225.724 66.7895 225.561 66.2151 225.706 65.5892C225.852 64.9633 226.254 64.5175 226.605 64.5946C226.956 64.6718 227.118 65.2548 226.973 65.8807Z" fill="#263238"/>
<path d="M220.89 62.3228C220.89 62.3228 221.54 61.7998 223.482 62.3228" stroke="#263238" stroke-linecap="round" stroke-linejoin="round"/>
<path d="M226.34 63.4888C226.34 63.4888 227.503 63.6174 228.025 64.5262" stroke="#263238" stroke-linecap="round" stroke-linejoin="round"/>
<path d="M224.911 65.8296L224.261 69.3448L222.182 69.0791" stroke="#263238" stroke-linecap="round" stroke-linejoin="round"/>
<path d="M221.54 71.1623C221.54 71.1623 219.598 71.1623 218.948 68.4272" stroke="#263238" stroke-linecap="round" stroke-linejoin="round"/>
<path d="M215.679 62.2798C215.679 62.2798 215.354 58.4902 213.874 58.4902C212.394 58.4902 211.085 61.9455 211.906 63.4287C212.728 64.912 214.866 65.4007 214.866 65.4007" fill="white"/>
<path d="M215.679 62.2798C215.679 62.2798 215.354 58.4902 213.874 58.4902C212.394 58.4902 211.085 61.9455 211.906 63.4287C212.728 64.912 214.866 65.4007 214.866 65.4007" stroke="#263238" stroke-linecap="round" stroke-linejoin="round"/>
<path d="M202.572 82.1881L205.421 105.86L229.343 114.065L229.711 116.843L197.721 112.445C197.721 112.445 193.178 89.0471 192.553 85.8148C191.929 82.5825 193.597 79.0759 195.89 77.1125C198.192 75.1576 201.802 75.0376 201.802 75.0376" fill="#4CB2E0"/>
<path d="M202.572 82.1881L205.421 105.86L229.343 114.065L229.711 116.843L197.721 112.445C197.721 112.445 193.178 89.0471 192.553 85.8148C191.929 82.5825 193.597 79.0759 195.89 77.1125C198.192 75.1576 201.802 75.0376 201.802 75.0376" stroke="#263238" stroke-linecap="round" stroke-linejoin="round"/>
<path d="M229.343 114.065C229.343 114.065 233.15 112.994 233.638 112.899C234.125 112.805 236.683 114.82 237.205 114.888C237.719 114.957 238.591 115.12 238.557 115.797C238.523 116.474 238.292 117.023 237.034 116.595C235.776 116.166 234.964 115.729 234.964 115.729C234.964 115.729 238.146 118.892 238.694 119.124C239.011 119.252 239.558 119.758 239.977 120.161C240.251 120.427 240.166 120.89 239.815 121.044C239.036 121.387 237.736 121.876 236.555 121.885C234.716 121.902 229.719 116.835 229.719 116.835L229.351 114.057L229.343 114.065Z" fill="white" stroke="#263238" stroke-linecap="round" stroke-linejoin="round"/>
<path d="M378.724 184.276C378.724 184.276 403.219 170.447 406.778 171.784C410.337 173.122 403.664 200.344 402.774 202.127C401.884 203.91 378.724 184.276 378.724 184.276Z" fill="#4CB2E0" stroke="#263238" stroke-linecap="round" stroke-linejoin="round"/>
<path d="M405.444 175.351C405.444 175.351 404.383 177.006 403.031 179.398C400.669 183.565 397.427 189.961 397.427 193.648C397.427 199.452 400.986 199.006 401.876 194.539L404.99 181.601" stroke="#263238" stroke-linecap="round" stroke-linejoin="round"/>
<path d="M199.629 256.888C206.343 256.888 211.786 249.786 211.786 241.026C211.786 232.266 206.343 225.165 199.629 225.165C192.914 225.165 187.471 232.266 187.471 241.026C187.471 249.786 192.914 256.888 199.629 256.888Z" fill="#4CB2E0" stroke="#263238" stroke-linecap="round" stroke-linejoin="round"/>
<path d="M309.826 354.843C373.804 354.843 425.669 310.841 425.669 256.562C425.669 202.283 373.804 158.281 309.826 158.281C245.847 158.281 193.982 202.283 193.982 256.562C193.982 310.841 245.847 354.843 309.826 354.843Z" fill="#4CB2E0" stroke="#263238" stroke-linecap="round" stroke-linejoin="round"/>
<path d="M385.055 324.312C365.412 340.019 338.941 349.647 309.817 349.647C257.842 349.647 214.302 318.979 202.974 277.808" fill="#4CB2E0"/>
<path d="M385.055 324.312C365.412 340.019 338.94 349.647 309.817 349.647C257.842 349.647 214.302 318.979 202.974 277.808" stroke="#263238" stroke-width="2" stroke-linecap="round" stroke-linejoin="round"/>
<path d="M200.168 259.648C200.125 258.619 200.108 257.591 200.108 256.562C200.108 245.116 202.546 234.15 207.004 224.016" fill="#4CB2E0"/>
<path d="M200.168 259.648C200.125 258.619 200.108 257.591 200.108 256.562C200.108 245.116 202.546 234.15 207.004 224.016" stroke="#263238" stroke-width="2" stroke-linecap="round" stroke-linejoin="round"/>
<path d="M275.03 169.101C285.955 165.972 297.659 164.274 309.826 164.274C321.992 164.274 333.799 165.98 344.758 169.135" stroke="#263238" stroke-width="5" stroke-linecap="round" stroke-linejoin="round"/>
<path d="M419.252 226.228C419.252 226.228 433.951 221.315 436.175 223.999C438.4 226.674 438.4 257.916 436.62 263.712C434.841 269.517 422.82 268.171 414.359 261.929C405.897 255.687 406.787 246.753 406.787 246.753" fill="#4CB2E0"/>
<path d="M419.252 226.228C419.252 226.228 433.951 221.315 436.175 223.999C438.4 226.674 438.4 257.916 436.62 263.712C434.841 269.517 422.82 268.171 414.359 261.929C405.897 255.687 406.787 246.753 406.787 246.753" stroke="#263238" stroke-linecap="round" stroke-linejoin="round"/>
<path d="M410.346 245.416L401.439 246.754" stroke="#263238" stroke-linecap="round" stroke-linejoin="round"/>
<path d="M408.113 255.233C408.113 255.233 405.888 270.854 408.558 271.3C411.227 271.746 415.685 263.712 415.685 263.712C415.685 263.712 409.448 256.57 408.113 255.233Z" fill="#263238" stroke="#263238" stroke-linecap="round" stroke-linejoin="round"/>
<path d="M400.019 218.64C400.849 221.864 400.353 224.77 398.924 225.139C397.495 225.508 395.664 223.193 394.843 219.969C394.013 216.745 394.509 213.839 395.938 213.47C397.367 213.102 399.198 215.416 400.019 218.64Z" fill="#263238"/>
<path d="M353.22 175.403C353.22 175.403 381.24 147.323 386.707 152.802C392.174 158.281 390.12 182.253 390.12 185.674V195.259" fill="#4CB2E0"/>
<path d="M353.22 175.403C353.22 175.403 381.24 147.323 386.707 152.802C392.174 158.281 390.12 182.253 390.12 185.674V195.259" stroke="#263238" stroke-linecap="round" stroke-linejoin="round"/>
<path d="M387.631 158.847C387.631 158.847 388.076 151.705 384.961 156.172C381.847 160.63 372.941 191.427 375.61 194.994C378.279 198.56 385.851 196.777 387.631 190.081C389.41 183.385 388.076 164.197 388.076 164.197" stroke="#263238" stroke-linecap="round" stroke-linejoin="round"/>
<path d="M234.262 321.706L249.594 363.22H266.508L274.08 341.803" fill="#4CB2E0"/>
<path d="M234.262 321.706L249.594 363.22H266.508L274.08 341.803" stroke="#263238" stroke-linecap="round" stroke-linejoin="round"/>
<path d="M375.61 327.073L360.911 363.22H343.997L336.425 341.802" fill="#4CB2E0"/>
<path d="M375.61 327.073L360.911 363.22H343.997L336.425 341.802" stroke="#263238" stroke-linecap="round" stroke-linejoin="round"/>
<path d="M0.427795 363.22H617.572" stroke="#263238" stroke-linecap="round" stroke-linejoin="round"/>
<path d="M321.129 249.181L319.04 256.925H279.771L281.902 249.181H321.129ZM301.578 294.938L280.983 270.573L280.941 263.875H290.884C293.307 263.875 295.298 263.428 296.858 262.535C298.445 261.614 299.629 260.372 300.408 258.809C301.216 257.246 301.62 255.488 301.62 253.534C301.62 251.497 301.258 249.697 300.534 248.134C299.81 246.543 298.654 245.301 297.066 244.408C295.479 243.515 293.376 243.068 290.758 243.068H279.813L282.194 233.984H290.758C295.716 233.984 299.838 234.737 303.124 236.245C306.438 237.724 308.917 239.887 310.56 242.733C312.231 245.552 313.066 248.957 313.066 252.948C313.066 256.437 312.482 259.521 311.312 262.2C310.17 264.852 308.318 267.015 305.756 268.689C303.193 270.364 299.824 271.48 295.646 272.038L314.32 294.352V294.938H301.578ZM321.171 233.984L319.04 241.729H286.748L288.878 233.984H321.171Z" fill="#263238"/>
<path opacity="0.35" d="M337.05 255.438C352.435 255.438 364.907 243.335 364.907 228.405C364.907 213.475 352.435 201.372 337.05 201.372C321.665 201.372 309.193 213.475 309.193 228.405C309.193 243.335 321.665 255.438 337.05 255.438Z" fill="white"/>
</g>
<defs>
<clipPath id="clip0_34_15">
<rect width="618" height="386" fill="white"/>
</clipPath>
</defs>
</svg>
