<svg width="45" height="45" viewBox="0 0 45 45" fill="none" xmlns="http://www.w3.org/2000/svg">
<g clip-path="url(#clip0_69_6355)">
<path d="M41.3892 29.5373C38.6341 29.5373 35.929 29.1064 33.3655 28.2593C32.1094 27.8309 30.5652 28.2239 29.7986 29.0113L24.7388 32.8309C18.8708 29.6986 15.2563 26.0852 12.1668 20.2614L15.874 15.3334C16.8371 14.3715 17.1826 12.9664 16.7687 11.6481C15.9179 9.07113 15.4857 6.36727 15.4857 3.61102C15.4859 1.61988 13.866 0 11.875 0H3.6109C1.61988 0 0 1.61988 0 3.6109C0 26.4332 18.567 45 41.3892 45C43.3802 45 45.0001 43.3801 45.0001 41.3891V33.1481C45 31.1572 43.3801 29.5373 41.3892 29.5373Z" fill="#4CB2E0"/>
</g>
<defs>
<clipPath id="clip0_69_6355">
<rect width="45" height="45" fill="white"/>
</clipPath>
</defs>
</svg>
