<svg width="565" height="498" viewBox="0 0 565 498" fill="none" xmlns="http://www.w3.org/2000/svg">
<g clip-path="url(#clip0_2_7)">
<g filter="url(#filter0_d_2_7)">
<path d="M425.749 68.0267H40.4655V303.494H425.749V68.0267Z" fill="white"/>
<path d="M425.749 68.0267H40.4655V303.494H425.749V68.0267Z" stroke="#3D319F" stroke-miterlimit="10"/>
</g>
<path d="M40.4655 98.5342H425.749" stroke="#3D319F" stroke-miterlimit="10"/>
<path d="M67.6934 84.2557C67.6934 88.2843 64.4286 91.548 60.3986 91.548C56.3686 91.548 53.1039 88.2843 53.1039 84.2557C53.1039 80.2272 56.3686 76.9635 60.3986 76.9635C64.4286 76.9635 67.6934 80.2272 67.6934 84.2557Z" fill="#E0E0E0"/>
<path d="M97.4974 84.2557C97.4974 88.2843 94.2326 91.548 90.2026 91.548C86.1726 91.548 82.9078 88.2843 82.9078 84.2557C82.9078 80.2272 86.1726 76.9635 90.2026 76.9635C94.2326 76.9635 97.4974 80.2272 97.4974 84.2557Z" fill="#F0F0F0"/>
<path d="M127.301 84.2557C127.301 88.2843 124.037 91.548 120.007 91.548C115.977 91.548 112.712 88.2843 112.712 84.2557C112.712 80.2272 115.977 76.9635 120.007 76.9635C124.037 76.9635 127.301 80.2272 127.301 84.2557Z" fill="#F5F5F5"/>
<path d="M83.1884 157.484H62.6559V163.144H83.1884V157.484Z" fill="#E6E6E6"/>
<path d="M237.59 157.484H98.1478V163.144H237.59V157.484Z" fill="#E6E6E6"/>
<path d="M289.202 157.484H250.203V163.144H289.202V157.484Z" fill="#E6E6E6"/>
<path d="M378.422 233.249H339.423V238.909H378.422V233.249Z" fill="#E6E6E6"/>
<path d="M365.121 157.484H297.695V163.144H365.121V157.484Z" fill="#E6E6E6"/>
<path d="M103.721 172.642H83.1884V178.302H103.721V172.642Z" fill="#E6E6E6"/>
<path d="M208.679 172.642H118.17V178.302H208.679V172.642Z" fill="#E6E6E6"/>
<path d="M330.152 233.249H239.643V238.909H330.152V233.249Z" fill="#E6E6E6"/>
<path d="M181.719 218.104H98.1478V223.764H181.719V218.104Z" fill="#E6E6E6"/>
<path d="M157.679 187.787H118.17V193.448H157.679V187.787Z" fill="#E6E6E6"/>
<path d="M315.792 202.946H276.283V208.606H315.792V202.946Z" fill="#E6E6E6"/>
<path d="M302.541 187.787H169.17V193.448H302.541V187.787Z" fill="#E6E6E6"/>
<path d="M231.52 233.249H98.1478V238.909H231.52V233.249Z" fill="#E6E6E6"/>
<path d="M400.332 172.642H293.334V178.302H400.332V172.642Z" fill="#E6E6E6"/>
<path d="M284.866 172.642H218.384V178.302H284.866V172.642Z" fill="#E6E6E6"/>
<path d="M376.803 187.787H310.321V193.448H376.803V187.787Z" fill="#E6E6E6"/>
<path d="M103.721 187.787H83.1884V193.448H103.721V187.787Z" fill="#E6E6E6"/>
<path d="M83.1884 202.946H62.6559V208.606H83.1884V202.946Z" fill="#E6E6E6"/>
<path d="M155.435 202.946H98.1478V208.606H155.435V202.946Z" fill="#E6E6E6"/>
<path d="M175.457 248.407H118.17V254.068H175.457V248.407Z" fill="#E6E6E6"/>
<path d="M340.609 263.553H248.354V269.213H340.609V263.553Z" fill="#E6E6E6"/>
<path d="M274.969 248.407H185.302V254.068H274.969V248.407Z" fill="#E6E6E6"/>
<path d="M237.743 263.553H163.839V269.213H237.743V263.553Z" fill="#E6E6E6"/>
<path d="M400.345 248.407H285.503V254.068H400.345V248.407Z" fill="#E6E6E6"/>
<path d="M153.305 263.553H118.17V269.213H153.305V263.553Z" fill="#E6E6E6"/>
<path d="M289.214 218.104H190.085V223.764H289.214V218.104Z" fill="#E6E6E6"/>
<path d="M381.152 218.104H297.695V223.764H381.152V218.104Z" fill="#E6E6E6"/>
<path d="M266.744 202.946H167.78V208.606H266.744V202.946Z" fill="#E6E6E6"/>
<path d="M83.1884 218.104H62.6559V223.764H83.1884V218.104Z" fill="#E6E6E6"/>
<path d="M83.1884 233.249H62.6559V238.909H83.1884V233.249Z" fill="#E6E6E6"/>
<path d="M103.721 248.407H83.1884V254.068H103.721V248.407Z" fill="#E6E6E6"/>
<path d="M103.721 263.553H83.1884V269.213H103.721V263.553Z" fill="#E6E6E6"/>
<path d="M14.1432 279.386H59.1233C64.875 279.386 69.5298 284.04 69.5298 289.789V334.677L58.9448 324.963H14.1432C8.39152 324.963 3.73665 320.309 3.73665 314.56V289.776C3.73665 284.027 8.39152 279.374 14.1432 279.374V279.386Z" fill="white" stroke="#3D319F" stroke-miterlimit="10"/>
<path d="M46.9314 302.997C46.9314 305.496 48.9591 307.523 51.4587 307.523C53.9583 307.523 55.986 305.496 55.986 302.997C55.986 300.498 53.9583 298.471 51.4587 298.471C48.9591 298.471 46.9314 300.498 46.9314 302.997Z" fill="#3D319F"/>
<path d="M35.7086 307.523C38.209 307.523 40.236 305.496 40.236 302.997C40.236 300.497 38.209 298.471 35.7086 298.471C33.2083 298.471 31.1813 300.497 31.1813 302.997C31.1813 305.496 33.2083 307.523 35.7086 307.523Z" fill="#3D319F"/>
<path d="M19.9713 307.523C22.4717 307.523 24.4987 305.496 24.4987 302.997C24.4987 300.497 22.4717 298.471 19.9713 298.471C17.4709 298.471 15.444 300.497 15.444 302.997C15.444 305.496 17.4709 307.523 19.9713 307.523Z" fill="#3D319F"/>
<path d="M483.712 32.9807C483.712 38.2714 479.618 42.606 474.415 43.0012V43.0267H417.511C410.981 43.0267 405.701 37.7487 405.701 31.2214C405.701 25.0766 410.407 20.0154 416.401 19.4672C416.745 8.78382 425.507 0.216736 436.283 0.216736C444.853 0.216736 452.173 5.63491 454.966 13.2458C456.56 12.4427 458.346 11.9965 460.246 11.9965C466.521 11.9965 471.66 16.892 472.03 23.075C472.566 22.9858 473.101 22.9476 473.662 22.9476C479.21 22.9476 483.712 27.4478 483.712 32.9935V32.9807Z" fill="#DBF4FF"/>
<path d="M518.719 253.915H469.811C464.86 253.915 460.846 257.927 460.846 262.877V290.949C460.846 295.899 464.86 299.912 469.811 299.912H518.719C523.671 299.912 527.684 295.899 527.684 290.949V262.877C527.684 257.927 523.671 253.915 518.719 253.915Z" fill="#F0F0F0"/>
<path d="M480.597 286.751L473.237 279.487L480.597 272.223H485.205L477.813 279.487L485.205 286.751H480.597ZM503.935 260.831L495.231 296.639H491.647L500.319 260.831H503.935ZM473.685 320.223H478.293L485.653 327.487L478.293 334.751H473.685L481.077 327.487L473.685 320.223Z" fill="white"/>
<path d="M437.008 210.557C437.584 210.497 438.022 210.323 438.322 210.035C438.634 209.747 438.79 209.369 438.79 208.901C438.79 208.469 438.742 207.677 438.646 206.525C438.538 205.445 438.484 204.581 438.484 203.933C438.484 203.081 438.73 202.415 439.222 201.935C439.726 201.455 440.386 201.215 441.202 201.215H442.408V202.997H441.616C441.232 202.997 440.944 203.087 440.752 203.267C440.572 203.435 440.482 203.711 440.482 204.095C440.482 204.383 440.5 204.767 440.536 205.247C440.572 205.727 440.596 206.069 440.608 206.273C440.716 207.377 440.77 208.277 440.77 208.973C440.77 209.585 440.614 210.095 440.302 210.503C440.002 210.911 439.534 211.181 438.898 211.313V211.349C439.534 211.481 440.002 211.751 440.302 212.159C440.614 212.567 440.77 213.077 440.77 213.689C440.77 214.385 440.716 215.285 440.608 216.389C440.596 216.593 440.572 216.935 440.536 217.415C440.5 217.895 440.482 218.279 440.482 218.567C440.482 218.951 440.572 219.227 440.752 219.395C440.944 219.575 441.232 219.665 441.616 219.665H442.408V221.447H441.202C440.386 221.447 439.726 221.207 439.222 220.727C438.73 220.247 438.484 219.581 438.484 218.729C438.484 218.081 438.538 217.217 438.646 216.137C438.742 214.985 438.79 214.193 438.79 213.761C438.79 213.293 438.634 212.915 438.322 212.627C438.022 212.339 437.584 212.165 437.008 212.105V210.557ZM451.041 212.105C450.465 212.165 450.021 212.339 449.709 212.627C449.409 212.915 449.259 213.293 449.259 213.761C449.259 214.193 449.307 214.985 449.403 216.137C449.511 217.217 449.565 218.081 449.565 218.729C449.565 219.581 449.313 220.247 448.809 220.727C448.317 221.207 447.663 221.447 446.847 221.447H445.641V219.665H446.433C446.817 219.665 447.099 219.575 447.279 219.395C447.471 219.227 447.567 218.951 447.567 218.567C447.567 218.279 447.549 217.895 447.513 217.415C447.477 216.935 447.453 216.593 447.441 216.389C447.333 215.285 447.279 214.385 447.279 213.689C447.279 213.077 447.429 212.567 447.729 212.159C448.041 211.751 448.515 211.481 449.151 211.349V211.313C448.515 211.181 448.041 210.911 447.729 210.503C447.429 210.095 447.279 209.585 447.279 208.973C447.279 208.277 447.333 207.377 447.441 206.273C447.453 206.069 447.477 205.727 447.513 205.247C447.549 204.767 447.567 204.383 447.567 204.095C447.567 203.711 447.471 203.435 447.279 203.267C447.099 203.087 446.817 202.997 446.433 202.997H445.641V201.215H446.847C447.663 201.215 448.317 201.455 448.809 201.935C449.313 202.415 449.565 203.081 449.565 203.933C449.565 204.581 449.511 205.445 449.403 206.525C449.307 207.677 449.259 208.469 449.259 208.901C449.259 209.369 449.409 209.747 449.709 210.035C450.021 210.323 450.465 210.497 451.041 210.557V212.105Z" fill="#E6E6E6"/>
<path d="M56.4229 10.7422C56.9989 10.6942 57.4309 10.5382 57.7189 10.2742C58.0189 10.0102 58.1689 9.65617 58.1689 9.21217C58.1689 8.70817 58.1149 7.98217 58.0069 7.03417C57.8869 5.90617 57.8269 5.08417 57.8269 4.56817C57.8269 3.63217 58.1029 2.90617 58.6549 2.39017C59.2189 1.86217 59.9629 1.59817 60.8869 1.59817H62.1289V3.72217H61.3729C60.6289 3.72217 60.2569 4.07617 60.2569 4.78417C60.2569 5.12017 60.3049 5.79217 60.4009 6.80017C60.4129 6.92017 60.4429 7.26217 60.4909 7.82617C60.5389 8.37817 60.5629 8.87017 60.5629 9.30217C60.5629 9.93817 60.4069 10.4662 60.0949 10.8862C59.7829 11.3062 59.3089 11.5762 58.6729 11.6962V11.7322C59.3089 11.8642 59.7829 12.1402 60.0949 12.5602C60.4069 12.9682 60.5629 13.4962 60.5629 14.1442C60.5629 14.5522 60.5389 15.0382 60.4909 15.6022C60.4429 16.1542 60.4129 16.5022 60.4009 16.6462C60.3049 17.6542 60.2569 18.3202 60.2569 18.6442C60.2569 19.0162 60.3469 19.2862 60.5269 19.4542C60.7069 19.6222 60.9889 19.7062 61.3729 19.7062H62.1289V21.8482H60.8869C59.9629 21.8482 59.2189 21.5842 58.6549 21.0562C58.1029 20.5402 57.8269 19.8142 57.8269 18.8782C57.8269 18.3502 57.8869 17.5222 58.0069 16.3942C58.1149 15.4462 58.1689 14.7262 58.1689 14.2342C58.1689 13.7902 58.0189 13.4362 57.7189 13.1722C57.4309 12.9082 56.9989 12.7522 56.4229 12.7042V10.7422ZM61.6069 39.7042C61.0309 39.7522 60.5929 39.9082 60.2929 40.1722C60.0049 40.4362 59.8609 40.7902 59.8609 41.2342C59.8609 41.7262 59.9149 42.4462 60.0229 43.3942C60.1429 44.5222 60.2029 45.3502 60.2029 45.8782C60.2029 46.8142 59.9209 47.5402 59.3569 48.0562C58.8049 48.5842 58.0669 48.8482 57.1429 48.8482H55.9009V46.7062H56.6569C57.0409 46.7062 57.3229 46.6222 57.5029 46.4542C57.6829 46.2862 57.7729 46.0162 57.7729 45.6442C57.7729 45.3202 57.7249 44.6542 57.6289 43.6462C57.6169 43.5022 57.5869 43.1542 57.5389 42.6022C57.4909 42.0382 57.4669 41.5522 57.4669 41.1442C57.4669 40.4962 57.6229 39.9682 57.9349 39.5602C58.2469 39.1402 58.7209 38.8642 59.3569 38.7322V38.6962C58.7209 38.5762 58.2469 38.3062 57.9349 37.8862C57.6229 37.4662 57.4669 36.9382 57.4669 36.3022C57.4669 35.8702 57.4909 35.3782 57.5389 34.8262C57.5869 34.2622 57.6169 33.9202 57.6289 33.8002C57.7249 32.7922 57.7729 32.1202 57.7729 31.7842C57.7729 31.0762 57.4009 30.7222 56.6569 30.7222H55.9009V28.5982H57.1429C58.0669 28.5982 58.8049 28.8622 59.3569 29.3902C59.9209 29.9062 60.2029 30.6322 60.2029 31.5682C60.2029 32.0842 60.1429 32.9062 60.0229 34.0342C59.9149 34.9822 59.8609 35.7082 59.8609 36.2122C59.8609 36.6562 60.0049 37.0102 60.2929 37.2742C60.5929 37.5382 61.0309 37.6942 61.6069 37.7422V39.7042Z" fill="#0092D3"/>
<path d="M273.209 17.4274H136.943C131.09 17.4274 126.345 22.1705 126.345 28.0215V127.002C126.345 132.853 131.09 137.596 136.943 137.596H273.209C279.062 137.596 283.807 132.853 283.807 127.002V28.0215C283.807 22.1705 279.062 17.4274 273.209 17.4274Z" fill="#4D5A64"/>
<path d="M235.828 44.2796L232.591 40.9532L235.828 37.6268H238.442L235.204 40.9532L238.442 44.2796H235.828ZM246.683 32.1768L242.674 48.9276H240.639L244.649 32.1768H246.683ZM248.633 37.6268H251.262L254.499 40.9532L251.262 44.2796H248.633L251.885 40.9532L248.633 37.6268Z" fill="#FAFAFA"/>
<path d="M173.952 45.1684H215.872C217.109 45.1684 217.109 43.2561 215.872 43.2561H173.952C172.715 43.2561 172.715 45.1684 173.952 45.1684Z" fill="#FAFAFA"/>
<path d="M140.947 61.5759H257.434C258.99 61.5759 260.609 61.7162 262.165 61.5759C262.242 61.5759 262.306 61.5759 262.382 61.5759C263.619 61.5759 263.619 59.6636 262.382 59.6636H145.883C144.327 59.6636 142.707 59.5234 141.151 59.6636C141.075 59.6636 141.011 59.6636 140.934 59.6636C139.697 59.6636 139.697 61.5759 140.934 61.5759H140.947Z" fill="#FAFAFA"/>
<path d="M248.583 80.8901H262.382C263.619 80.8901 263.619 78.9778 262.382 78.9778H248.583C247.346 78.9778 247.346 80.8901 248.583 80.8901Z" fill="#FAFAFA"/>
<path d="M175.431 80.8901H233.56C234.797 80.8901 234.797 78.9778 233.56 78.9778H175.431C174.194 78.9778 174.194 80.8901 175.431 80.8901Z" fill="#FAFAFA"/>
<path d="M140.947 96.8769H257.434C258.99 96.8769 260.609 97.0171 262.165 96.8769C262.242 96.8769 262.306 96.8769 262.382 96.8769C263.619 96.8769 263.619 94.9646 262.382 94.9646H145.883C144.327 94.9646 142.707 94.8244 141.151 94.9646C141.075 94.9646 141.011 94.9646 140.934 94.9646C139.697 94.9646 139.697 96.8769 140.934 96.8769H140.947Z" fill="#FAFAFA"/>
<path d="M226.903 114.534H262.369C263.606 114.534 263.606 112.621 262.369 112.621H226.903C225.666 112.621 225.666 114.534 226.903 114.534Z" fill="#FAFAFA"/>
<path d="M175.431 114.534H215.872C217.109 114.534 217.109 112.621 215.872 112.621H175.431C174.194 112.621 174.194 114.534 175.431 114.534Z" fill="#FAFAFA"/>
<path d="M285.478 206.821H193.605V258.504H285.478V206.821Z" fill="#FAFAFA" stroke="#0092D3" stroke-miterlimit="10"/>
<path d="M202.34 211.538C202.34 212.826 201.295 213.884 199.994 213.884C198.693 213.884 197.647 212.838 197.647 211.538C197.647 210.238 198.693 209.192 199.994 209.192C201.295 209.192 202.34 210.238 202.34 211.538Z" fill="#0092D3"/>
<path d="M211.905 211.538C211.905 212.826 210.86 213.884 209.559 213.884C208.258 213.884 207.212 212.838 207.212 211.538C207.212 210.238 208.258 209.192 209.559 209.192C210.86 209.192 211.905 210.238 211.905 211.538Z" fill="#0092D3"/>
<path d="M221.483 211.538C221.483 212.826 220.437 213.884 219.136 213.884C217.835 213.884 216.79 212.838 216.79 211.538C216.79 210.238 217.835 209.192 219.136 209.192C220.437 209.192 221.483 210.238 221.483 211.538Z" fill="#0092D3"/>
<path d="M193.605 216.128H285.478" stroke="#0092D3" stroke-miterlimit="10"/>
<path d="M141.202 36.6396H78.1764V79.1308H141.202V36.6396Z" fill="#FAFAFA" stroke="#0092D3" stroke-miterlimit="10"/>
<path d="M83.4307 42.4402C84.4942 42.4402 85.3564 41.5783 85.3564 40.5152C85.3564 39.452 84.4942 38.5901 83.4307 38.5901C82.3671 38.5901 81.505 39.452 81.505 40.5152C81.505 41.5783 82.3671 42.4402 83.4307 42.4402Z" fill="#0092D3"/>
<path d="M93.2251 40.5152C93.2251 41.5733 92.3578 42.4402 91.2993 42.4402C90.2408 42.4402 89.3736 41.5733 89.3736 40.5152C89.3736 39.457 90.2408 38.5901 91.2993 38.5901C92.3578 38.5901 93.2251 39.457 93.2251 40.5152Z" fill="#0092D3"/>
<path d="M101.094 40.5152C101.094 41.5733 100.227 42.4402 99.168 42.4402C98.1095 42.4402 97.2423 41.5733 97.2423 40.5152C97.2423 39.457 98.1095 38.5901 99.168 38.5901C100.227 38.5901 101.094 39.457 101.094 40.5152Z" fill="#0092D3"/>
<path d="M102.098 58.216C102.098 58.852 101.948 59.452 101.648 60.016C101.348 60.58 100.868 61.042 100.208 61.402C99.548 61.75 98.702 61.924 97.67 61.924H95.402V67H93.35V54.49H97.67C98.63 54.49 99.44 54.658 100.1 54.994C100.772 55.318 101.27 55.762 101.594 56.326C101.93 56.89 102.098 57.52 102.098 58.216ZM97.67 60.25C98.45 60.25 99.032 60.076 99.416 59.728C99.8 59.368 99.992 58.864 99.992 58.216C99.992 56.848 99.218 56.164 97.67 56.164H95.402V60.25H97.67ZM114.045 54.49V67H111.993V61.528H106.107V67H104.055V54.49H106.107V59.854H111.993V54.49H114.045ZM125.494 58.216C125.494 58.852 125.344 59.452 125.044 60.016C124.744 60.58 124.264 61.042 123.604 61.402C122.944 61.75 122.098 61.924 121.066 61.924H118.798V67H116.746V54.49H121.066C122.026 54.49 122.836 54.658 123.496 54.994C124.168 55.318 124.666 55.762 124.99 56.326C125.326 56.89 125.494 57.52 125.494 58.216ZM121.066 60.25C121.846 60.25 122.428 60.076 122.812 59.728C123.196 59.368 123.388 58.864 123.388 58.216C123.388 56.848 122.614 56.164 121.066 56.164H118.798V60.25H121.066Z" fill="#0092D3"/>
<path d="M78.1764 44.2888H141.202" stroke="#0092D3" stroke-miterlimit="10"/>
<path d="M560.179 99.1207H438.298V176.071H560.179" fill="#DBF4FF"/>
<path d="M560.192 99.1207H438.311V113.82H560.192V99.1207Z" fill="#0092D3"/>
<g opacity="0.2">
<path d="M560.192 99.1207H438.311V113.82H560.192V99.1207Z" fill="black"/>
</g>
<path d="M452.11 106.579C452.11 108.618 450.452 110.276 448.411 110.276C446.371 110.276 444.713 108.618 444.713 106.579C444.713 104.539 446.371 102.882 448.411 102.882C450.452 102.882 452.11 104.539 452.11 106.579Z" fill="#E0E0E0"/>
<path d="M467.222 106.579C467.222 108.618 465.564 110.276 463.524 110.276C461.483 110.276 459.825 108.618 459.825 106.579C459.825 104.539 461.483 102.882 463.524 102.882C465.564 102.882 467.222 104.539 467.222 106.579Z" fill="#F0F0F0"/>
<path d="M482.335 106.579C482.335 108.618 480.677 110.276 478.636 110.276C476.596 110.276 474.938 108.618 474.938 106.579C474.938 104.539 476.596 102.882 478.636 102.882C480.677 102.882 482.335 104.539 482.335 106.579Z" fill="#FAFAFA"/>
<path d="M118.897 151.709H17.9946V215.414H118.897" fill="#0092D3"/>
<path d="M118.884 151.709H17.9946V163.871H118.884V151.709Z" fill="#0092D3"/>
<g opacity="0.2">
<path d="M118.884 151.709H17.9946V163.871H118.884V151.709Z" fill="black"/>
</g>
<path d="M29.4214 157.879C29.4214 159.575 28.044 160.939 26.3606 160.939C24.6772 160.939 23.2999 159.562 23.2999 157.879C23.2999 156.196 24.6772 154.819 26.3606 154.819C28.044 154.819 29.4214 156.196 29.4214 157.879Z" fill="#E0E0E0"/>
<path d="M41.9321 157.879C41.9321 159.575 40.5548 160.939 38.8714 160.939C37.188 160.939 35.8107 159.562 35.8107 157.879C35.8107 156.196 37.188 154.819 38.8714 154.819C40.5548 154.819 41.9321 156.196 41.9321 157.879Z" fill="#F0F0F0"/>
<path d="M54.4429 157.879C54.4429 159.575 53.0656 160.939 51.3822 160.939C49.6988 160.939 48.3214 159.562 48.3214 157.879C48.3214 156.196 49.6988 154.819 51.3822 154.819C53.0656 154.819 54.4429 156.196 54.4429 157.879Z" fill="#FAFAFA"/>
<path d="M0 454.527H564.107" stroke="#263238" stroke-miterlimit="10"/>
<path d="M215.489 276.709C212.951 272.604 211.255 264.7 212.097 257.076C212.951 249.44 213.232 237.864 203.616 237.29C194 236.729 190.748 256.082 190.187 260.187C189.626 264.279 172.524 266.829 158.801 262.558C145.092 258.287 119.509 253.405 108.235 256.222C96.9617 259.052 101.145 268.882 101.145 268.882H101.17C93.3909 274.363 101.935 281.273 101.935 281.273C94.0158 288.438 102.815 295.998 108.401 296.737C108.248 297.451 108.197 298.191 108.337 298.981C109.842 307.268 144.148 304.259 163.75 312.928C183.351 321.597 196.92 358.147 196.92 358.147L237.82 309.065C237.82 309.065 218.027 280.801 215.489 276.709Z" fill="white"/>
<path d="M149.058 277.512C149.058 277.512 109.855 274.121 101.935 281.286C94.0157 288.451 102.815 296.011 108.401 296.75" stroke="#263238" stroke-miterlimit="10"/>
<path d="M149.058 268.843C149.058 268.843 119.471 260.926 104.767 266.956C91.1208 272.553 101.935 281.273 101.935 281.273" stroke="#263238" stroke-miterlimit="10"/>
<path d="M101.157 268.882C101.157 268.882 96.9745 259.052 108.248 256.222C119.522 253.392 145.105 258.287 158.814 262.558C172.524 266.829 189.626 264.279 190.2 260.187C190.761 256.095 194.013 236.729 203.629 237.29C213.244 237.851 212.964 249.44 212.109 257.076C211.268 264.713 212.964 272.617 215.502 276.722C218.052 280.827 237.832 309.078 237.832 309.078L196.933 358.16C196.933 358.16 183.364 321.61 163.762 312.941C144.161 304.272 109.855 307.293 108.35 298.994C106.845 290.707 121.92 286.934 144.913 289.573" stroke="#263238" stroke-miterlimit="10"/>
<path d="M180.686 340.835L242.321 305.317C242.321 305.317 295.719 401.722 364.572 426.569L282.557 457.523L216.739 453.303C216.739 453.303 190.569 398.114 180.698 340.835H180.686Z" fill="#0092D3"/>
<g opacity="0.3">
<path d="M180.686 340.835L242.321 305.317C242.321 305.317 295.719 401.722 364.572 426.569L282.557 457.523L216.739 453.303C216.739 453.303 190.569 398.114 180.698 340.835H180.686Z" fill="white"/>
</g>
<path d="M363.986 426.353C363.565 426.2 363.131 426.034 362.711 425.868V427.271L363.986 426.786V426.34V426.353Z" fill="#FAFAFA"/>
<path d="M337.243 417.161V436.896L338.518 436.411V417.161H344.461C343.721 416.74 342.994 416.32 342.267 415.886H338.518V413.579C338.097 413.311 337.663 413.043 337.243 412.763V415.886H313.05V394.213C312.629 393.831 312.196 393.461 311.775 393.079V415.899H287.582V390.529H308.982C308.523 390.108 308.064 389.675 307.617 389.254H287.582V368.461C287.161 367.977 286.728 367.492 286.307 367.008V389.254H262.114V363.884H283.629C283.272 363.464 282.914 363.03 282.557 362.609H262.127V337.24H262.93C262.216 336.245 261.528 335.264 260.852 334.295V335.965H236.659V310.595H245.408C245.14 310.136 244.885 309.715 244.642 309.32H236.646V308.594L233.177 310.595H235.371V335.965H211.178V323.28L209.903 324.019V335.978H189.154L186.947 337.252H209.903V362.622H185.71V337.966L184.435 338.706V359.397C184.843 361.194 185.277 362.992 185.71 364.777V363.91H209.903V389.28H192.482C192.61 389.7 192.737 390.134 192.878 390.555H209.903V415.924H201.435C201.588 416.358 201.741 416.778 201.907 417.199H209.903V437.673C210.349 438.744 210.77 439.752 211.178 440.72V417.186H235.371V442.556H211.956C212.148 442.99 212.326 443.423 212.505 443.831H235.371V454.527L236.646 454.604V443.818H260.839V456.146L262.114 456.223V443.806H286.307V456.121L287.582 455.636V443.806H311.775V446.508L313.05 446.024V443.806H318.929L322.309 442.531H313.05V417.161H337.243ZM235.371 415.886H211.178V390.516H235.371V415.886ZM235.371 389.241H211.178V363.872H235.371V389.241ZM235.371 362.597H211.178V337.227H235.371V362.597ZM260.839 442.518H236.646V417.148H260.839V442.518ZM260.839 415.873H236.646V390.504H260.839V415.873ZM260.839 389.229H236.646V363.859H260.839V389.229ZM260.839 362.584H236.646V337.214H260.839V362.584ZM286.307 442.505H262.114V417.135H286.307V442.505ZM286.307 415.861H262.114V390.491H286.307V415.861ZM311.775 442.505H287.582V417.135H311.775V442.505Z" fill="#FAFAFA"/>
<path d="M180.686 340.835L242.321 305.317C242.321 305.317 295.719 401.722 364.572 426.569L282.557 457.523L216.739 453.303C216.739 453.303 190.569 398.114 180.698 340.835H180.686Z" stroke="#263238" stroke-miterlimit="10"/>
<path d="M186.131 365.529L256.299 328.52" stroke="#263238" stroke-miterlimit="10"/>
<path d="M244.795 322.808C244.795 325.702 242.449 328.061 239.541 328.061C236.634 328.061 234.287 325.715 234.287 322.808C234.287 319.902 236.634 317.556 239.541 317.556C242.449 317.556 244.795 319.902 244.795 322.808Z" fill="#263238"/>
<path d="M441.486 361.73C441.486 361.73 457.925 405.075 397.59 420.412C337.255 435.748 266.233 433.071 266.233 433.071C266.233 433.071 259.015 433.173 259.449 414.267C259.882 395.361 259.028 358.02 283.323 316.753C307.617 275.485 322.73 260.391 335.049 255.687C339.334 254.055 369.074 251.569 385.513 261.079C416.312 278.902 440.096 320.743 441.486 361.73Z" fill="#0092D3"/>
<g opacity="0.3">
<path d="M441.486 361.73C441.486 361.73 457.925 405.075 397.59 420.412C337.255 435.748 266.233 433.071 266.233 433.071C266.233 433.071 259.015 433.173 259.449 414.267C259.882 395.361 259.028 358.02 283.323 316.753C307.617 275.485 322.73 260.391 335.049 255.687C339.334 254.055 369.074 251.569 385.513 261.079C416.312 278.902 440.096 320.743 441.486 361.73Z" fill="white"/>
</g>
<path d="M422.637 385.455H442.124C442.239 385.022 442.354 384.601 442.456 384.18H422.65V358.81H441.346C441.321 358.39 441.295 357.956 441.27 357.536H422.65V332.166H436.755C436.64 331.745 436.513 331.312 436.398 330.891H422.65V305.521H426.055C425.826 305.088 425.596 304.667 425.366 304.246H422.65V299.453C422.229 298.752 421.808 298.076 421.375 297.387V304.246H397.182V278.876H407.359C406.964 278.443 406.556 278.022 406.148 277.602H397.182V269.226C396.761 268.882 396.328 268.537 395.907 268.193V277.602H371.714V256.069C371.293 255.98 370.86 255.891 370.439 255.814V277.602H346.246V254.246C345.813 254.272 345.392 254.284 344.971 254.31V277.602H320.778V265.159C320.358 265.554 319.937 265.949 319.503 266.357V277.589H309.428C309.097 278.01 308.752 278.43 308.421 278.864H319.516V304.234H295.323V297.349C294.902 297.999 294.482 298.637 294.048 299.313V304.246H290.923C290.656 304.667 290.388 305.088 290.12 305.521H294.048V330.891H275.888C275.683 331.312 275.479 331.745 275.288 332.166H294.048V357.536H269.855V345.539C269.409 346.788 268.988 348.025 268.58 349.249V357.536H266.068C265.953 357.969 265.851 358.39 265.736 358.81H268.58V384.18H261.005C260.954 384.601 260.903 385.034 260.864 385.455H268.58V410.825H259.538C259.538 411.258 259.525 411.679 259.513 412.1H268.58V433.148C268.963 433.148 269.383 433.16 269.855 433.173V412.1H294.048V433.071C294.469 433.071 294.89 433.046 295.323 433.033V412.1H319.516V431.911C319.937 431.886 320.37 431.86 320.791 431.822V412.1H344.984V429.655C345.405 429.604 345.838 429.565 346.259 429.514V412.1H370.452V426.098C370.873 426.021 371.306 425.957 371.727 425.881V412.1H395.92V420.833C396.34 420.731 396.774 420.629 397.195 420.514V412.1H419.462C420.571 411.488 421.643 410.85 422.663 410.213V385.455H422.637ZM294.022 410.825H269.83V385.455H294.022V410.825ZM294.022 384.18H269.83V358.81H294.022V384.18ZM319.49 410.825H295.298V385.455H319.49V410.825ZM319.49 384.18H295.298V358.81H319.49V384.18ZM319.49 357.536H295.298V332.166H319.49V357.536ZM319.49 330.891H295.298V305.521H319.49V330.891ZM344.958 410.812H320.766V385.442H344.958V410.812ZM344.958 384.167H320.766V358.798H344.958V384.167ZM344.958 357.523H320.766V332.153H344.958V357.523ZM344.958 330.878H320.766V305.508H344.958V330.878ZM344.958 304.234H320.766V278.864H344.958V304.234ZM370.426 410.799H346.234V385.43H370.426V410.799ZM370.426 384.155H346.234V358.785H370.426V384.155ZM370.426 357.51H346.234V332.14H370.426V357.51ZM370.426 330.865H346.234V305.496H370.426V330.865ZM370.426 304.221H346.234V278.851H370.426V304.221ZM395.894 410.787H371.701V385.417H395.894V410.787ZM395.894 384.142H371.701V358.772H395.894V384.142ZM395.894 357.497H371.701V332.128H395.894V357.497ZM395.894 330.853H371.701V305.483H395.894V330.853ZM395.894 304.208H371.701V278.838H395.894V304.208ZM421.362 410.774H397.169V385.404H421.362V410.774ZM421.362 384.129H397.169V358.759H421.362V384.129ZM421.362 357.485H397.169V332.115H421.362V357.485ZM421.362 330.84H397.169V305.47H421.362V330.84Z" fill="#FAFAFA"/>
<path d="M330.637 255.687C330.637 255.687 247.639 326.046 260.89 430.177" stroke="#263238" stroke-miterlimit="10"/>
<path d="M387.681 406.886L392.412 472.86L313.815 465.007C313.815 465.007 306.227 462.661 300.246 468.512C294.265 474.364 294.38 477.513 293.908 479.515C293.436 481.516 291.676 488.961 288.194 492.875C284.713 496.789 281.818 496.649 279.305 494.099L276.806 491.562C276.806 491.562 275.824 491.052 274.485 492.365C273.146 493.678 269.69 495.208 267.789 492.595C265.889 489.981 265.813 490.287 265.813 490.287C265.813 490.287 265.213 489.178 264.129 490.249C263.045 491.32 258.276 493.156 255.801 490.211C253.327 487.266 252.345 485.302 252.345 485.302C252.345 485.302 251.618 485.06 250.139 485.634C248.66 486.208 242.602 487.674 239.286 480.496C235.958 473.331 237.973 462.457 239.286 455.33C240.6 448.204 246.708 432.74 252.243 426.493C257.778 420.246 268.236 413.005 279.178 411.182C290.12 409.372 320.562 408.148 333.391 407.829C346.234 407.523 387.681 406.873 387.681 406.873V406.886Z" fill="white"/>
<path d="M288.207 445.603C288.207 445.603 276.678 465.912 274.599 477.079C272.508 488.235 278.821 496.228 282.468 495.998C286.116 495.756 291.268 491.995 293.525 481.172C295.782 470.348 303.141 464.803 308.535 464.688C313.93 464.573 396.493 473.306 396.493 473.306" stroke="#263238" stroke-miterlimit="10"/>
<path d="M273.796 442.913C273.796 442.913 264.295 464.675 263.377 476.06C262.459 487.444 267.649 493.716 270.149 494.086C272.648 494.443 276.385 490.81 276.385 490.81" stroke="#263238" stroke-miterlimit="10"/>
<path d="M261.183 434.881C261.183 434.881 250.828 455.42 250.165 467.289C249.501 479.158 251.835 487.572 256.375 490.631C260.915 493.691 265.468 489.203 265.468 489.203" stroke="#263238" stroke-miterlimit="10"/>
<path d="M389.811 406.86C389.811 406.86 311.316 407.459 285.899 410.149C260.482 412.839 249.578 426.748 243.814 440.886C238.049 455.024 236.123 473.637 239.49 480.037C245.267 491.039 251.835 484.435 251.835 484.435" stroke="#263238" stroke-miterlimit="10"/>
<path d="M396.022 317.556C396.022 317.556 440.186 356.337 434.026 381.427C427.853 406.516 327.027 404.094 327.027 404.094V475.435C327.027 475.435 371.255 474.441 409.157 479.438C453.487 485.29 523.272 468.831 530.324 416.332C537.377 363.833 494.297 268.792 377.746 253.086L396.034 317.556H396.022Z" fill="#0092D3"/>
<g opacity="0.3">
<path d="M396.022 317.556C396.022 317.556 440.186 356.337 434.026 381.427C427.853 406.516 327.027 404.094 327.027 404.094V475.435C327.027 475.435 371.255 474.441 409.157 479.438C453.487 485.29 523.272 468.831 530.324 416.332C537.377 363.833 494.297 268.792 377.746 253.086L396.034 317.556H396.022Z" fill="white"/>
</g>
<path d="M524.509 410.825V385.455H529.253C529.177 385.034 529.1 384.601 529.024 384.18H524.509V366.689C524.101 365.452 523.68 364.216 523.234 362.966V384.18H499.041V358.81H521.678C521.512 358.39 521.333 357.956 521.168 357.536H499.041V332.166H508.159C507.892 331.745 507.624 331.312 507.343 330.891H499.041V319.213C498.62 318.665 498.199 318.13 497.766 317.581V330.891H473.573V305.521H487.117C486.696 305.1 486.275 304.667 485.854 304.246H473.56V293.078C473.139 292.734 472.719 292.377 472.285 292.033V304.246H448.092V278.876H453.449C452.747 278.456 452.033 278.022 451.319 277.602H448.092V275.766C447.672 275.536 447.238 275.307 446.817 275.077V277.614H422.625V264.101C422.204 263.948 421.77 263.795 421.349 263.642V277.614H397.157V256.592C396.736 256.49 396.302 256.401 395.881 256.311V277.614H384.671L385.028 278.889H395.881V304.259H392.221L392.578 305.534H395.869V317.148L395.983 317.556C395.983 317.556 396.404 317.926 397.144 318.601V305.534H421.336V330.904H409.412C409.795 331.324 410.178 331.745 410.573 332.179H421.349V345.373C421.783 345.96 422.204 346.559 422.625 347.158V332.179H446.817V357.548H429.027C429.243 357.969 429.473 358.402 429.677 358.823H446.817V384.193H432.865C432.623 384.626 432.342 385.047 432.036 385.468H446.817V410.838H422.625V392.467C422.204 392.671 421.783 392.862 421.349 393.053V410.838H397.157V399.683C396.736 399.759 396.302 399.823 395.881 399.899V410.838H371.689V402.742C371.268 402.781 370.834 402.806 370.413 402.844V410.838H346.221V404.017C345.787 404.017 345.366 404.043 344.946 404.043V410.838H326.989V412.113H344.946V437.482H326.989V438.757H344.946V464.127H326.989V465.402H344.946V475.422C345.366 475.422 345.787 475.422 346.221 475.435V465.402H370.413V476.174C370.834 476.2 371.268 476.213 371.689 476.238V465.402H395.881V477.959C396.302 477.997 396.736 478.036 397.157 478.087V465.402H421.349V480.471C421.77 480.483 422.204 480.496 422.625 480.509V465.402H446.817V479.311C447.238 479.26 447.672 479.209 448.092 479.145V465.389H472.285V473.88C472.706 473.752 473.139 473.612 473.56 473.472V465.389H492.983C493.761 464.968 494.539 464.548 495.304 464.114H473.56V438.744H497.753V462.674C498.187 462.419 498.607 462.151 499.028 461.883V438.732H522.494C523.208 437.546 523.871 436.335 524.496 435.098V412.087H530.732C530.771 411.666 530.796 411.246 530.822 410.812H524.483L524.509 410.825ZM421.362 304.259H397.169V278.889H421.362V304.259ZM370.426 464.114H346.234V438.744H370.426V464.114ZM370.426 437.47H346.234V412.1H370.426V437.47ZM395.894 464.114H371.701V438.744H395.894V464.114ZM395.894 437.47H371.701V412.1H395.894V437.47ZM421.362 464.114H397.169V438.744H421.362V464.114ZM421.362 437.47H397.169V412.1H421.362V437.47ZM446.83 464.114H422.637V438.744H446.83V464.114ZM446.83 437.47H422.637V412.1H446.83V437.47ZM446.83 330.904H422.637V305.534H446.83V330.904ZM446.83 304.259H422.637V278.889H446.83V304.259ZM472.298 464.114H448.105V438.744H472.298V464.114ZM472.298 437.47H448.105V412.1H472.298V437.47ZM472.298 410.825H448.105V385.455H472.298V410.825ZM472.298 384.18H448.105V358.81H472.298V384.18ZM472.298 357.536H448.105V332.166H472.298V357.536ZM472.298 330.891H448.105V305.521H472.298V330.891ZM497.766 437.457H473.573V412.087H497.766V437.457ZM497.766 410.812H473.573V385.442H497.766V410.812ZM497.766 384.167H473.573V358.798H497.766V384.167ZM497.766 357.523H473.573V332.153H497.766V357.523ZM523.234 437.444H499.041V412.074H523.234V437.444ZM523.234 410.799H499.041V385.43H523.234V410.799Z" fill="#FAFAFA"/>
<path d="M396.022 317.556C396.022 317.556 440.186 356.337 434.026 381.427C427.853 406.516 327.027 404.094 327.027 404.094V475.435C327.027 475.435 371.255 474.441 409.157 479.438C453.487 485.29 523.272 468.831 530.324 416.332C537.377 363.833 494.297 268.792 377.746 253.086" stroke="#263238" stroke-miterlimit="10"/>
<path d="M345.57 461.896C345.57 464.79 343.224 467.136 340.329 467.136C337.434 467.136 335.087 464.79 335.087 461.896C335.087 459.002 337.434 456.656 340.329 456.656C343.224 456.656 345.57 459.002 345.57 461.896Z" fill="#263238"/>
<path d="M352.763 403.813V475.422" stroke="#263238" stroke-miterlimit="10"/>
<path d="M392.999 194.786C392.999 203.15 386.163 209.932 377.721 209.932C369.278 209.932 362.443 203.15 362.443 194.786C362.443 186.423 369.278 179.641 377.721 179.641C386.163 179.641 392.999 186.423 392.999 194.786Z" stroke="black" stroke-width="2" stroke-miterlimit="10"/>
<path d="M326.454 147.795H345.634C358.387 147.795 368.819 159.677 368.819 174.185V203.914C368.819 204.756 368.781 205.585 368.704 206.4C368.909 207.28 369.036 208.185 369.036 209.129V246.329C369.036 252.895 363.667 258.275 357.086 258.275H349.473C342.905 258.275 337.523 252.907 337.523 246.329V230.317H326.428C313.675 230.317 303.243 218.435 303.243 203.927V174.197C303.243 159.677 313.675 147.808 326.428 147.808L326.454 147.795Z" fill="white" stroke="#263238" stroke-miterlimit="10"/>
<path d="M363.807 194.289L360.262 170.997C360.262 170.997 295.821 179.067 274.931 147.782C254.041 116.484 275.99 104.105 286.613 105.865C297.236 107.637 309.658 122.859 309.658 122.859C309.658 122.859 299.774 109.409 309.658 107.28C319.541 105.151 330.471 115.426 336.159 126.046C336.159 126.046 378.639 122.081 392.999 147.782C407.359 173.483 395.716 191.701 369.457 218.257L367.697 203.405L363.807 194.289Z" fill="#263238"/>
<path d="M358.03 198.866C358.03 204.947 353.095 209.881 347.011 209.881C340.928 209.881 335.993 204.947 335.993 198.866C335.993 192.785 340.928 187.851 347.011 187.851C353.095 187.851 358.03 192.785 358.03 198.866Z" fill="#0092D3"/>
<path d="M305.959 190.069C305.283 190.069 304.646 190.159 304.021 190.299V201.722C304.021 203.43 303.842 205.087 304.187 206.694C304.646 206.77 305.487 206.821 305.959 206.821C310.589 206.821 314.338 203.073 314.338 198.445C314.338 193.818 310.589 190.069 305.959 190.069Z" fill="#0092D3"/>
<path d="M338.148 183.491C338.148 185.658 336.388 187.405 334.233 187.405C332.078 187.405 330.318 185.646 330.318 183.491C330.318 181.337 332.078 179.577 334.233 179.577C336.388 179.577 338.148 181.337 338.148 183.491Z" fill="#263238"/>
<path d="M312.502 182.917C312.502 184.766 311.01 186.258 309.16 186.258C307.311 186.258 305.819 184.766 305.819 182.917C305.819 181.069 307.311 179.577 309.16 179.577C311.01 179.577 312.502 181.069 312.502 182.917Z" fill="#263238"/>
<path d="M316.238 198.942C316.238 198.942 318.202 204.679 322.373 205.075C326.53 205.47 329.795 200.855 330.024 197.26L316.238 198.942Z" fill="white"/>
<path d="M315.83 199.057C316.506 201.021 317.73 202.997 319.388 204.271C322.309 206.541 326.033 205.381 328.213 202.691C329.463 201.148 330.305 199.248 330.445 197.26C330.458 197.043 330.241 196.801 330.024 196.839C326.007 197.336 321.977 197.821 317.96 198.318C317.386 198.382 316.812 198.458 316.251 198.522C315.715 198.586 315.703 199.44 316.251 199.376C320.268 198.879 324.298 198.394 328.315 197.897C328.889 197.833 329.463 197.757 330.024 197.693C329.884 197.553 329.744 197.413 329.604 197.272C329.374 200.319 327.193 203.723 324.12 204.526C321.187 205.304 318.904 203.137 317.565 200.766C317.22 200.154 316.889 199.516 316.659 198.84C316.481 198.331 315.652 198.547 315.83 199.07V199.057Z" fill="#263238"/>
<path d="M354.064 181.196C354.064 189.636 347.942 196.482 340.393 196.482C332.843 196.482 326.721 189.636 326.721 181.196C326.721 172.757 332.843 165.911 340.393 165.911C347.942 165.911 354.064 172.757 354.064 181.196Z" stroke="#4D5A64" stroke-miterlimit="10"/>
<path d="M317.565 179.284C317.565 186.831 312.527 192.951 306.304 192.951C300.08 192.951 295.043 186.831 295.043 179.284C295.043 171.737 300.08 165.618 306.304 165.618C312.527 165.618 317.565 171.737 317.565 179.284Z" stroke="#4D5A64" stroke-miterlimit="10"/>
<path d="M321.544 179.628V192.9L314.58 188.654L321.544 179.628Z" fill="#0092D3"/>
<path d="M317.208 183.376C317.208 183.376 323.023 181.171 327.027 184.473" stroke="#4D5A64" stroke-miterlimit="10"/>
<path d="M354.038 181.757L372.594 185.633" stroke="#4D5A64" stroke-miterlimit="10"/>
<path d="M392.999 194.786C392.999 203.15 386.163 209.932 377.721 209.932C369.278 209.932 362.443 203.15 362.443 194.786C362.443 186.423 369.278 179.641 377.721 179.641C386.163 179.641 392.999 186.423 392.999 194.786Z" fill="white"/>
<path d="M369.993 196.788C369.801 193.728 371.115 190.197 374.099 188.795C375.731 188.03 377.606 187.979 379.366 188.17C380.042 188.234 380.029 187.188 379.366 187.112C376.344 186.793 373.079 187.367 371.077 189.84C369.789 191.421 369.164 193.435 368.985 195.449C368.947 195.896 368.921 196.342 368.947 196.788C368.985 197.464 370.044 197.464 370.005 196.788H369.993Z" fill="#263238"/>
<path d="M381.904 248.025H326.874C324.881 248.025 323.265 249.64 323.265 251.633V261.079C323.265 263.072 324.881 264.687 326.874 264.687H381.904C383.897 264.687 385.513 263.072 385.513 261.079V251.633C385.513 249.64 383.897 248.025 381.904 248.025Z" fill="#0092D3"/>
<path opacity="0.3" d="M381.904 248.025H326.874C324.881 248.025 323.265 249.64 323.265 251.633V261.079C323.265 263.072 324.881 264.687 326.874 264.687H381.904C383.897 264.687 385.513 263.072 385.513 261.079V251.633C385.513 249.64 383.897 248.025 381.904 248.025Z" fill="white"/>
<path d="M336.159 256.005C336.159 257.624 334.845 258.925 333.238 258.925C331.631 258.925 330.318 257.612 330.318 256.005C330.318 254.399 331.631 253.086 333.238 253.086C334.845 253.086 336.159 254.399 336.159 256.005Z" fill="#263238"/>
<path d="M371.702 264.687V252.245H385.513V251.645C385.513 251.416 385.488 251.186 385.449 250.97H371.714V248.025H370.439V250.97H346.246V248.025H344.971V250.97H323.342C323.304 251.186 323.278 251.416 323.278 251.645V252.245H344.984V264.687H346.259V252.245H370.452V264.687H371.727H371.702Z" fill="#FAFAFA"/>
<path d="M381.904 248.025H326.874C324.881 248.025 323.265 249.64 323.265 251.633V261.079C323.265 263.072 324.881 264.687 326.874 264.687H381.904C383.897 264.687 385.513 263.072 385.513 261.079V251.633C385.513 249.64 383.897 248.025 381.904 248.025Z" stroke="#263238" stroke-miterlimit="10"/>
<path d="M511.169 436.182C498.25 436.182 487.767 446.648 487.767 459.576C487.767 472.503 498.238 482.969 511.169 482.969C524.101 482.969 534.571 472.503 534.571 459.576C534.571 446.648 524.101 436.182 511.169 436.182ZM511.169 474.351C503.007 474.351 496.388 467.735 496.388 459.576C496.388 451.416 503.007 444.8 511.169 444.8C519.331 444.8 525.95 451.416 525.95 459.576C525.95 467.735 519.331 474.351 511.169 474.351Z" fill="white" stroke="#263238" stroke-miterlimit="10"/>
<path d="M504.678 422.859H455.158C451.023 422.859 447.672 426.21 447.672 430.343V489.637C447.672 493.77 451.023 497.12 455.158 497.12H504.678C508.812 497.12 512.164 493.77 512.164 489.637V430.343C512.164 426.21 508.812 422.859 504.678 422.859Z" fill="white" stroke="#263238" stroke-miterlimit="10"/>
<path d="M485.574 459.576H474.236C468.566 459.576 463.97 464.17 463.97 469.838V470.96C463.97 476.628 468.566 481.223 474.236 481.223H485.574C491.244 481.223 495.84 476.628 495.84 470.96V469.838C495.84 464.17 491.244 459.576 485.574 459.576Z" fill="#3D319F"/>
<path d="M469.683 473.395H468.561C466.807 473.395 465.386 474.816 465.386 476.57V483.594C465.386 485.347 466.807 486.768 468.561 486.768H469.683C471.437 486.768 472.859 485.347 472.859 483.594V476.57C472.859 474.816 471.437 473.395 469.683 473.395Z" fill="#3D319F"/>
<path d="M491.211 473.803H490.088C488.335 473.803 486.913 475.224 486.913 476.978V484.002C486.913 485.755 488.335 487.176 490.088 487.176H491.211C492.964 487.176 494.386 485.755 494.386 484.002V476.978C494.386 475.224 492.964 473.803 491.211 473.803Z" fill="#3D319F"/>
<path d="M471.558 465.529C470.525 460.889 469.658 456.172 469.288 451.429C468.612 442.684 472.948 438.591 482.079 439.866C486.9 440.542 488.979 433.173 484.107 432.485C475.014 431.21 464.187 433.39 461.853 443.755C460.182 451.2 462.554 460.239 464.174 467.556C465.233 472.362 472.617 470.323 471.558 465.516V465.529Z" fill="#3D319F"/>
<path d="M489.272 466.307C489.566 465.937 491.109 466.473 491.555 466.613C494.603 467.594 506.412 470.297 505.583 480.496C505.022 487.291 501.286 489.943 498.034 491.026C496.848 491.422 495.993 489.956 496.899 489.114C498.046 488.043 499.194 486.679 499.87 485.111C501.592 481.134 498.021 477.985 488.43 473.408C487.78 473.102 488.226 468.742 488.686 468.181L489.272 466.307Z" fill="#3D319F"/>
<path d="M481.569 434.474C481.569 434.933 481.199 435.302 480.74 435.302C480.281 435.302 479.911 434.933 479.911 434.474C479.911 434.015 480.281 433.645 480.74 433.645C481.199 433.645 481.569 434.015 481.569 434.474Z" fill="white"/>
<path d="M480.651 437.495C480.715 437.763 480.868 438.005 481.034 438.222C481.442 438.757 482.003 439.14 482.641 439.356C483.189 439.548 483.776 439.637 484.362 439.649C484.49 439.649 484.49 439.458 484.362 439.458C483.036 439.42 481.531 438.961 480.932 437.673C480.893 437.597 480.868 437.52 480.842 437.444C480.817 437.329 480.626 437.38 480.664 437.495H480.651Z" fill="white"/>
<path d="M478.47 464.433C478.47 465.172 477.488 465.784 476.29 465.784C475.091 465.784 474.109 465.185 474.109 464.433C474.109 463.681 475.091 463.081 476.29 463.081C477.488 463.081 478.47 463.681 478.47 464.433Z" fill="#0092D3"/>
<path d="M482.411 466.944C482.411 467.378 481.85 467.722 481.161 467.722C480.473 467.722 479.911 467.378 479.911 466.944C479.911 466.511 480.473 466.167 481.161 466.167C481.85 466.167 482.411 466.511 482.411 466.944Z" fill="#0092D3"/>
<path d="M486.428 462.597C486.428 463.171 485.344 463.63 484.005 463.63C482.666 463.63 481.582 463.171 481.582 462.597C481.582 462.023 482.666 461.564 484.005 461.564C485.344 461.564 486.428 462.023 486.428 462.597Z" fill="#0092D3"/>
<path d="M488.902 466.167C489.529 466.167 490.037 465.864 490.037 465.491C490.037 465.118 489.529 464.815 488.902 464.815C488.275 464.815 487.767 465.118 487.767 465.491C487.767 465.864 488.275 466.167 488.902 466.167Z" fill="#0092D3"/>
<g opacity="0.6">
<path d="M478.47 464.433C478.47 465.172 477.488 465.784 476.29 465.784C475.091 465.784 474.109 465.185 474.109 464.433C474.109 463.681 475.091 463.081 476.29 463.081C477.488 463.081 478.47 463.681 478.47 464.433Z" fill="white"/>
<path d="M482.411 466.944C482.411 467.378 481.85 467.722 481.161 467.722C480.473 467.722 479.911 467.378 479.911 466.944C479.911 466.511 480.473 466.167 481.161 466.167C481.85 466.167 482.411 466.511 482.411 466.944Z" fill="white"/>
<path d="M486.428 462.597C486.428 463.171 485.344 463.63 484.005 463.63C482.666 463.63 481.582 463.171 481.582 462.597C481.582 462.023 482.666 461.564 484.005 461.564C485.344 461.564 486.428 462.023 486.428 462.597Z" fill="white"/>
<path d="M488.902 466.167C489.529 466.167 490.037 465.864 490.037 465.491C490.037 465.118 489.529 464.815 488.902 464.815C488.275 464.815 487.767 465.118 487.767 465.491C487.767 465.864 488.275 466.167 488.902 466.167Z" fill="white"/>
</g>
<path d="M505.787 399.147C505.724 403.928 502.765 408.339 498.212 409.971C493.634 411.615 488.43 410.175 485.331 406.414C482.296 402.717 481.939 397.337 484.388 393.244C486.824 389.178 491.695 386.934 496.376 387.826C501.821 388.872 505.711 393.64 505.787 399.147C505.813 400.996 508.682 400.996 508.657 399.147C508.58 393.168 504.907 387.814 499.296 385.672C493.672 383.53 487.002 385.315 483.202 389.981C479.401 394.634 478.815 401.314 481.914 406.503C485.013 411.679 491.058 414.331 496.962 413.273C503.734 412.049 508.568 405.929 508.657 399.147C508.682 397.299 505.813 397.299 505.787 399.147Z" fill="#3D319F"/>
<path d="M562.131 354.068C562.041 366.829 553.56 378.176 541.509 382.281C529.355 386.424 515.48 382.893 507.063 373.14C498.799 363.578 497.702 349.453 504.346 338.719C511.156 327.717 524.7 322.184 537.326 324.733C551.316 327.551 562.029 339.662 562.131 354.081C562.143 355.929 565.013 355.929 565 354.081C564.898 340.146 555.728 327.895 542.682 323.242C529.432 318.525 513.86 322.49 504.767 333.3C495.814 343.946 494.577 359.448 502.089 371.228C509.613 383.033 523.999 388.821 537.657 386.271C553.089 383.377 564.885 369.851 565 354.081C565.013 352.232 562.143 352.232 562.131 354.081V354.068Z" fill="#3D319F"/>
<path d="M89.667 497.579L224.773 497.822C238.802 497.847 246.045 486.972 240.97 473.523L205.554 379.782C200.479 366.332 184.984 355.419 170.968 355.394L35.8617 355.152C21.8333 355.126 14.5895 366.001 19.6653 379.45L55.0806 473.191C60.1563 486.641 75.6513 497.554 89.667 497.579Z" fill="#263238"/>
<path d="M110.059 419.06C111.641 425.014 117.749 429.846 123.705 429.858C129.661 429.858 133.193 425.052 131.612 419.099C130.03 413.145 123.922 408.313 117.966 408.301C112.01 408.301 108.478 413.107 110.059 419.06Z" fill="white"/>
<path d="M319.419 498.012L183.306 497.775C181.52 497.772 180.069 496.316 180.072 494.531L180.096 480.801C180.099 479.016 181.556 477.565 183.341 477.568L319.454 477.806C321.24 477.809 322.691 479.265 322.688 481.05L322.664 494.78C322.661 496.565 321.205 498.015 319.419 498.012Z" fill="#263238"/>
<g clip-path="url(#clip1_2_7)">
<path fill-rule="evenodd" clip-rule="evenodd" d="M256.281 227.458C256.294 227.505 256.3 227.553 256.3 227.602V235.131C256.3 235.227 256.275 235.322 256.227 235.406C256.179 235.49 256.109 235.559 256.026 235.607L249.745 239.245V246.457C249.745 246.653 249.642 246.834 249.473 246.933L236.362 254.526C236.332 254.543 236.299 254.554 236.266 254.566C236.254 254.57 236.243 254.578 236.23 254.581C236.138 254.605 236.042 254.605 235.95 254.581C235.935 254.577 235.921 254.569 235.907 254.563C235.877 254.552 235.846 254.543 235.817 254.526L222.709 246.933C222.626 246.885 222.557 246.815 222.508 246.732C222.46 246.648 222.435 246.553 222.435 246.457V223.87C222.435 223.82 222.442 223.772 222.454 223.726C222.458 223.71 222.468 223.695 222.473 223.68C222.483 223.651 222.493 223.621 222.508 223.594C222.518 223.577 222.533 223.562 222.545 223.546C222.561 223.524 222.575 223.501 222.594 223.482C222.609 223.466 222.63 223.455 222.648 223.441C222.667 223.424 222.685 223.406 222.708 223.393L229.263 219.597C229.346 219.549 229.44 219.523 229.535 219.523C229.631 219.523 229.725 219.549 229.808 219.597L236.363 223.393H236.364C236.386 223.407 236.404 223.424 236.424 223.44C236.442 223.454 236.461 223.466 236.477 223.481C236.496 223.501 236.51 223.524 236.526 223.546C236.538 223.562 236.554 223.577 236.563 223.594C236.579 223.622 236.588 223.651 236.599 223.68C236.604 223.695 236.614 223.71 236.618 223.726C236.63 223.773 236.637 223.821 236.637 223.87V237.977L242.098 234.813V227.601C242.098 227.553 242.105 227.504 242.118 227.458C242.122 227.442 242.131 227.428 242.137 227.412C242.148 227.383 242.157 227.353 242.172 227.327C242.182 227.309 242.197 227.294 242.209 227.278C242.225 227.256 242.239 227.233 242.258 227.214C242.274 227.198 242.293 227.187 242.311 227.173C242.332 227.157 242.349 227.139 242.371 227.126L248.927 223.329C249.01 223.281 249.104 223.255 249.2 223.255C249.295 223.255 249.39 223.281 249.473 223.329L256.027 227.126C256.05 227.139 256.068 227.157 256.088 227.172C256.105 227.186 256.125 227.198 256.141 227.214C256.16 227.233 256.173 227.256 256.19 227.278C256.202 227.294 256.217 227.309 256.227 227.327C256.242 227.353 256.251 227.383 256.262 227.412C256.268 227.428 256.277 227.442 256.281 227.458ZM255.208 234.813V228.552L252.914 229.881L249.745 231.716V237.977L255.208 234.813H255.208ZM248.653 246.139V239.874L245.537 241.665L236.636 246.776V253.1L248.653 246.139ZM223.527 224.82V246.139L235.543 253.099V246.776L229.266 243.202L229.264 243.201L229.261 243.199C229.24 243.187 229.222 243.169 229.203 243.154C229.186 243.14 229.166 243.129 229.151 243.114L229.149 243.112C229.132 243.095 229.119 243.074 229.104 243.054C229.091 243.036 229.074 243.02 229.063 243.001L229.063 242.999C229.051 242.978 229.043 242.953 229.034 242.93C229.025 242.91 229.014 242.89 229.008 242.868C229.001 242.842 229 242.814 228.997 242.787C228.995 242.767 228.989 242.746 228.989 242.726V242.724V227.984L225.821 226.148L223.527 224.82ZM229.536 220.707L224.075 223.87L229.535 227.032L234.995 223.869L229.535 220.707H229.536ZM232.376 240.445L235.544 238.61V224.82L233.25 226.149L230.082 227.984V241.774L232.376 240.445ZM249.2 224.439L243.739 227.602L249.2 230.765L254.659 227.601L249.2 224.439ZM248.653 231.716L245.485 229.881L243.191 228.552V234.813L246.359 236.648L248.653 237.977V231.716ZM236.089 245.825L244.098 241.225L248.102 238.926L242.645 235.766L236.363 239.404L230.638 242.721L236.089 245.825Z" fill="#FF2D20"/>
</g>
<path d="M457.455 130.146V147.849H464.116V150.899H453.909V130.146H457.455ZM476.622 138.948V137.081H479.993V150.906H476.638V149.032C476.175 149.723 475.536 150.261 474.706 150.645C473.875 151.052 473.029 151.244 472.19 151.244C471.096 151.244 470.098 151.052 469.195 150.668C468.313 150.3 467.519 149.762 466.863 149.086C466.213 148.415 465.698 147.634 465.346 146.782C464.983 145.891 464.801 144.942 464.811 143.986C464.811 143.018 464.994 142.089 465.354 141.221C465.702 140.358 466.217 139.565 466.871 138.886C467.521 138.207 468.309 137.663 469.187 137.289C470.098 136.905 471.104 136.712 472.182 136.712C473.021 136.712 473.859 136.912 474.69 137.304C475.52 137.703 476.159 138.241 476.606 138.932L476.622 138.948ZM476.319 145.683C476.529 145.143 476.637 144.571 476.638 143.994C476.638 143.395 476.526 142.842 476.319 142.304C476.128 141.787 475.835 141.309 475.456 140.898C475.079 140.503 474.622 140.184 474.115 139.961C473.569 139.72 472.974 139.597 472.374 139.6C471.735 139.6 471.16 139.731 470.649 139.969C470.148 140.193 469.698 140.508 469.323 140.898C468.945 141.307 468.657 141.786 468.476 142.304C468.278 142.847 468.178 143.418 468.181 143.994C468.181 144.585 468.277 145.146 468.476 145.683C468.668 146.221 468.955 146.682 469.323 147.066C469.694 147.467 470.145 147.794 470.649 148.026C471.16 148.256 471.735 148.379 472.374 148.379C473.013 148.379 473.596 148.264 474.115 148.026C474.624 147.799 475.08 147.475 475.456 147.074C475.832 146.669 476.125 146.2 476.319 145.691V145.683ZM482.644 150.906V137.081H491.764V140.261H485.998V150.899H482.644V150.906ZM503.943 138.948V137.081H507.298V150.906H503.943V149.032C503.496 149.723 502.849 150.261 502.027 150.645C501.188 151.052 500.35 151.244 499.503 151.244C498.409 151.244 497.411 151.052 496.508 150.668C495.626 150.3 494.832 149.762 494.176 149.086C493.526 148.415 493.011 147.634 492.659 146.782C492.299 145.891 492.12 144.942 492.132 143.986C492.132 143.018 492.307 142.089 492.667 141.221C493.015 140.358 493.53 139.565 494.184 138.886C494.834 138.207 495.623 137.663 496.5 137.289C497.411 136.905 498.417 136.712 499.495 136.712C500.334 136.712 501.172 136.912 502.003 137.304C502.833 137.703 503.48 138.241 503.92 138.932L503.943 138.948ZM503.64 145.683C503.845 145.142 503.948 144.57 503.943 143.994C503.943 143.395 503.84 142.842 503.64 142.304C503.451 141.787 503.161 141.31 502.785 140.898C502.403 140.501 501.941 140.183 501.428 139.961C500.909 139.731 500.326 139.6 499.695 139.6C499.056 139.6 498.481 139.731 497.962 139.969C497.461 140.193 497.011 140.508 496.636 140.898C496.258 141.307 495.971 141.786 495.789 142.304C495.594 142.847 495.497 143.419 495.502 143.994C495.502 144.585 495.598 145.146 495.789 145.683C495.989 146.221 496.269 146.682 496.636 147.066C497.007 147.467 497.458 147.794 497.962 148.026C498.481 148.256 499.056 148.379 499.695 148.379C500.334 148.379 500.909 148.264 501.436 148.026C501.951 147.8 502.413 147.476 502.793 147.074C503.166 146.669 503.456 146.2 503.648 145.691L503.64 145.683ZM520.779 137.081H524.189L518.678 150.906H514.445L508.935 137.081H512.329L516.562 147.665L520.779 137.089V137.081ZM531.512 136.728C536.088 136.728 539.211 140.63 538.62 145.192H527.463C527.463 146.375 528.725 148.679 531.696 148.679C534.251 148.679 535.969 146.528 535.969 146.528L538.237 148.218C536.2 150.292 534.539 151.252 531.927 151.252C527.279 151.252 524.133 148.41 524.133 143.978C524.133 139.961 527.391 136.712 531.504 136.712L531.512 136.728ZM527.479 142.796H535.545C535.513 142.527 535.066 139.293 531.488 139.293C527.894 139.293 527.511 142.534 527.479 142.796ZM540.816 150.883V130.146H544.17V150.899H540.816V150.883Z" fill="#FF2D20"/>
</g>
<defs>
<filter id="filter0_d_2_7" x="18.9655" y="53.5267" width="416.283" height="266.467" filterUnits="userSpaceOnUse" color-interpolation-filters="sRGB">
<feFlood flood-opacity="0" result="BackgroundImageFix"/>
<feColorMatrix in="SourceAlpha" type="matrix" values="0 0 0 0 0 0 0 0 0 0 0 0 0 0 0 0 0 0 127 0" result="hardAlpha"/>
<feOffset dx="-6" dy="1"/>
<feGaussianBlur stdDeviation="7.5"/>
<feComposite in2="hardAlpha" operator="out"/>
<feColorMatrix type="matrix" values="0 0 0 0 0 0 0 0 0 0 0 0 0 0 0 0 0 0 0.15 0"/>
<feBlend mode="normal" in2="BackgroundImageFix" result="effect1_dropShadow_2_7"/>
<feBlend mode="normal" in="SourceGraphic" in2="effect1_dropShadow_2_7" result="shape"/>
</filter>
<clipPath id="clip0_2_7">
<rect width="565" height="498" fill="white"/>
</clipPath>
<clipPath id="clip1_2_7">
<rect width="34.1015" height="35.6822" fill="white" transform="translate(222.435 219.523)"/>
</clipPath>
</defs>
</svg>
