<svg width="45" height="45" viewBox="0 0 45 45" fill="none" xmlns="http://www.w3.org/2000/svg">
<g clip-path="url(#clip0_69_6336)">
<path d="M22.5056 0H22.4944C10.0884 0 0 10.0912 0 22.5C0 27.4219 1.58625 31.9837 4.28344 35.6878L1.47938 44.0466L10.1278 41.2819C13.6856 43.6388 17.9297 45 22.5056 45C34.9116 45 45 34.9059 45 22.5C45 10.0941 34.9116 0 22.5056 0ZM35.5978 31.7728C35.055 33.3056 32.9006 34.5769 31.1822 34.9481C30.0066 35.1984 28.4709 35.3981 23.3016 33.255C16.6894 30.5156 12.4313 23.7966 12.0994 23.3606C11.7816 22.9247 9.4275 19.8028 9.4275 16.5741C9.4275 13.3453 11.0672 11.7731 11.7281 11.0981C12.2709 10.5441 13.1681 10.2909 14.0287 10.2909C14.3072 10.2909 14.5575 10.305 14.7825 10.3162C15.4434 10.3444 15.7753 10.3838 16.2113 11.4272C16.7541 12.735 18.0759 15.9638 18.2334 16.2956C18.3937 16.6275 18.5541 17.0775 18.3291 17.5134C18.1181 17.9634 17.9325 18.1631 17.6006 18.5456C17.2687 18.9281 16.9537 19.2206 16.6219 19.6313C16.3181 19.9884 15.975 20.3709 16.3575 21.0319C16.74 21.6788 18.0619 23.8359 20.0081 25.5684C22.5197 27.8044 24.5559 28.5188 25.2844 28.8225C25.8272 29.0475 26.4741 28.9941 26.8706 28.5722C27.3741 28.0294 27.9956 27.1294 28.6284 26.2434C29.0784 25.6078 29.6466 25.5291 30.2428 25.7541C30.8503 25.965 34.065 27.5541 34.7259 27.8831C35.3869 28.215 35.8228 28.3725 35.9831 28.6509C36.1406 28.9294 36.1406 30.2372 35.5978 31.7728Z" fill="#4CB2E0"/>
</g>
<defs>
<clipPath id="clip0_69_6336">
<rect width="45" height="45" fill="white"/>
</clipPath>
</defs>
</svg>
